<?xml version="1.0" encoding="UTF-8" standalone="no"?>
<!-- Created with Inkscape (http://www.inkscape.org/) -->

<svg
   width="58.427544mm"
   height="15.23672mm"
   viewBox="0 0 58.427543 15.23672"
   version="1.1"
   id="svg1"
   sodipodi:docname="categories.svg"
   xmlns:inkscape="http://www.inkscape.org/namespaces/inkscape"
   xmlns:sodipodi="http://sodipodi.sourceforge.net/DTD/sodipodi-0.dtd"
   xmlns="http://www.w3.org/2000/svg"
   xmlns:svg="http://www.w3.org/2000/svg">
  <sodipodi:namedview
     id="namedview1"
     pagecolor="#ffffff"
     bordercolor="#000000"
     borderopacity="0.25"
     inkscape:showpageshadow="2"
     inkscape:pageopacity="0.0"
     inkscape:pagecheckerboard="0"
     inkscape:deskcolor="#d1d1d1"
     inkscape:document-units="mm" />
  <defs
     id="defs1" />
  <g
     inkscape:label="Capa 1"
     inkscape:groupmode="layer"
     id="layer1"
     transform="translate(-50.818141,-104.52417)">
    <g
       id="text2"
       style="font-size:24px;line-height:0;font-family:SignPainter;-inkscape-font-specification:SignPainter;letter-spacing:2.55px;word-spacing:0px;white-space:pre;fill:#969696;fill-opacity:0.891599;stroke:#000000;stroke-opacity:0"
       inkscape:label="text2"
       transform="matrix(0.61284429,0,0,0.61284429,-49.456223,-24.796788)"
       aria-label="Categories">
      <path
         style="letter-spacing:2.11548px"
         d="m 172.52287,221.64564 c -1.392,2.664 -3.096,4.2 -4.416,4.2 -0.864,0 -1.776,-0.912 -1.776,-2.976 0,-1.44 0.456,-3.408 1.512,-5.112 1.992,-3.216 5.4,-5.304 5.976,-4.68 0.288,0.312 0,1.08 -0.336,1.92 -0.144,0.36 -0.312,0.744 -0.408,1.104 -0.096,0.312 -0.14399,0.6 -0.14399,0.888 0,0.696 0.33599,1.224 0.81599,1.536 0.48,0.288 0.816,0.048 0.936,-0.36 0.168,-0.528 0.504,-1.344 0.912,-2.16 0.24,-0.48 0.33601,-0.96 0.33601,-1.392 0,-0.936 -0.62401,-1.872 -1.44001,-2.592 -0.408,-0.336 -0.96,-0.504 -1.55999,-0.504 -0.60001,0 -1.27201,0.168 -1.89601,0.408 -2.712,1.224 -7.008,5.568 -6.912,10.416 0.048,1.968 1.032,3.48 2.16,4.08 0.60001,0.336 1.32,0.504 2.11201,0.504 1.03199,0 2.11199,-0.288 3.09599,-0.984 0.864,-0.648 2.16,-2.04 2.16,-3.432 0,-0.24 -0.048,-0.528 -0.168,-0.792 -0.24,-0.552 -0.792,-0.408 -0.96,-0.072 z m 5.21146,-0.624 c -0.864,1.2 -1.296,2.544 -1.296,3.576 0,1.416 0.768,2.448 2.184,2.448 0.96,0 2.04,-0.744 2.736,-1.416 0.192,0.888 0.888,1.512 2.088,1.512 1.464,0 3,-1.272 3.624,-2.592 0.336,-0.696 0.192,-1.344 0.096,-1.56 -0.24,-0.504 -0.456,-0.48 -0.72,0 -0.792,1.56 -1.992,3.192 -2.856,3.192 -0.24,0 -0.336,-0.216 -0.336,-0.576 0,-1.608 2.016,-4.224 2.64,-5.544 0.624,-1.248 0.408,-2.304 0,-2.784 -0.288,-0.336 -0.696,-0.312 -0.984,0.168 l -0.456,0.744 c -0.216,-0.624 -0.744,-1.056 -1.608,-1.056 -1.224,0 -3.192,1.128 -5.112,3.888 z m 1.2,4.968 c -0.24,0 -0.336,-0.288 -0.336,-0.72 0,-0.768 0.408,-2.04 1.128,-3.168 1.224,-1.968 2.88,-3.48 3.36,-3.48 0.24,0 0.288,0.168 0.288,0.456 0,0.624 -0.432,1.8 -1.368,3.432 -1.176,2.016 -2.28,3.48 -3.072,3.48 z m 9.36347,-1.608 c 0,1.656 1.104,2.688 2.376,2.688 2.016,0 3.624,-2.064 3.96,-2.784 0.264,-0.552 0.36,-0.912 0.24,-1.416 -0.168,-0.648 -0.72,-0.6 -0.984,-0.024 -0.84,1.8 -2.088,3.312 -3.024,3.312 -0.408,0 -0.648,-0.504 -0.648,-1.224 0,-0.528 0.144,-1.152 0.432,-1.8 0.84,-1.824 2.208,-4.2 3.12,-5.76 0.528,-0.072 1.152,-0.12 1.584,-0.072 0.576,0.072 0.744,-0.216 0.504,-0.648 -0.168,-0.288 -0.576,-0.672 -1.32,-0.768 0.288,-0.672 0.384,-1.224 0.384,-1.656 0,-0.288 -0.096,-0.696 -0.264,-0.984 -0.264,-0.456 -0.552,-0.48 -0.912,0.048 -0.552,0.792 -1.056,1.584 -1.8,2.88 -0.528,0.048 -1.176,0.072 -1.728,0.048 -0.552,-0.024 -0.792,0.216 -0.456,0.72 0.192,0.288 0.624,0.552 1.368,0.648 -0.96,1.728 -1.872,3.624 -2.352,4.8 -0.336,0.792 -0.48,1.464 -0.48,1.992 z m 12.96344,-5.856 c 0.264,0.216 -0.24,1.344 -0.936,2.28 -0.48,0.648 -1.248,1.368 -1.824,1.368 -0.168,0 -0.336,-0.048 -0.528,-0.168 1.152,-2.304 2.928,-3.768 3.288,-3.48 z m 1.8,0.96 c 0,-0.312 -0.096,-0.672 -0.24,-0.888 -0.336,-0.48 -0.816,-0.864 -1.488,-1.248 -0.24,-0.144 -0.504,-0.192 -0.84,-0.192 -1.392,0 -3.336,1.272 -4.584,3.816 -0.504,0.96 -0.744,1.896 -0.744,2.76 0,1.92 1.224,3.384 3.456,3.36 1.872,-0.024 3.792,-1.152 4.8,-2.616 0.432,-0.648 0.408,-1.344 0.336,-1.56 -0.192,-0.48 -0.504,-0.432 -0.768,-0.048 -0.984,1.488 -2.592,3.264 -4.416,3.264 -0.72,0 -1.152,-0.744 -1.152,-1.8 0,-0.432 0.072,-0.936 0.216,-1.416 0.552,0.36 1.128,0.528 1.704,0.528 2.112,0 3.72,-2.52 3.72,-3.96 z"
         id="path1" />
      <path
         style="letter-spacing:1.54559px"
         d="m 215.52071,223.08564 c 0,-0.528 -0.432,-0.528 -0.744,-0.12 -0.936,1.296 -2.136,2.304 -3.624,3.216 0.792,-1.824 1.752,-3.576 2.52,-5.088 0.6,-1.2 0.864,-1.848 0.864,-2.496 0,-0.504 -0.168,-0.96 -0.384,-1.224 -0.312,-0.36 -0.744,-0.384 -1.032,0.168 -0.144,0.264 -0.288,0.504 -0.384,0.672 -0.216,-0.576 -0.744,-1.008 -1.536,-1.008 -2.352,0 -6.408,3.96 -6.408,7.392 0,1.44 0.792,2.424 2.16,2.424 0.648,0 1.272,-0.24 1.8,-0.6 l -0.312,0.792 c -2.928,1.008 -5.256,3.48 -5.256,5.64 0,0.744 0.36,1.368 0.696,1.872 0.504,0.672 1.104,0.768 1.68,0.552 1.944,-0.912 3.696,-4.56 4.968,-7.656 1.968,-0.72 3.624,-1.68 4.536,-3.096 0.36,-0.552 0.456,-1.056 0.456,-1.44 z m -8.28,2.928 c -0.216,0 -0.312,-0.312 -0.312,-0.768 0,-2.784 3.696,-6.552 4.512,-6.552 0.168,0 0.24,0.144 0.24,0.432 0,0.624 -0.432,1.8 -1.368,3.432 -1.176,2.016 -2.304,3.48 -3.072,3.456 z m 0.504,2.784 c -0.456,1.2 -0.984,2.256 -1.464,3.096 -0.744,1.296 -1.344,2.016 -1.56,1.848 -0.24,-0.216 0.072,-1.344 0.768,-2.52 0.504,-0.84 1.248,-1.704 2.256,-2.424 z"
         id="path2" />
      <path
         style="letter-spacing:1.26065px"
         d="m 232.45028,223.70964 c 0,-0.312 -0.024,-0.48 -0.144,-0.696 -0.264,-0.48 -0.6,-0.432 -0.816,0.048 -0.72,1.632 -2.088,3.12 -2.928,3.12 -0.36,0 -0.552,-0.384 -0.552,-0.984 0,-0.36 0.072,-0.72 0.192,-1.08 0.432,-1.248 1.584,-2.856 2.592,-4.032 0.288,-0.312 0.408,-0.672 0.408,-0.96 0,-0.624 -0.264,-1.176 -0.672,-1.632 -0.336,-0.336 -0.648,-0.264 -1.056,0.024 -0.72,0.48 -1.416,0.864 -2.064,1.032 0.264,-0.72 0.456,-1.488 0.456,-2.016 0,-0.504 -0.192,-0.84 -0.72,-0.84 -0.792,0.024 -2.4,1.776 -2.4,3.048 0,0.432 0.168,0.768 0.6,1.008 -0.408,0.648 -0.816,1.008 -1.248,1.176 0,-1.272 -0.288,-1.896 -0.768,-2.4 -0.144,-0.144 -0.264,-0.24 -0.384,-0.384 -0.528,-0.696 -0.96,-0.936 -1.8,-0.888 -1.488,0.12 -3.072,1.464 -3.984,3.12 -0.6,1.104 -0.984,2.304 -0.984,3.36 0,0.768 0.216,1.464 0.648,2.088 0.672,0.888 1.536,1.2 2.328,1.2 1.944,0 4.2,-2.832 4.752,-5.136 1.272,-0.144 2.208,-0.864 2.856,-1.872 0.552,-0.024 1.176,-0.144 1.896,-0.456 -1.368,1.656 -2.616,3.864 -2.616,5.088 0,1.416 0.84,2.496 2.376,2.496 1.392,0 3.168,-1.056 3.816,-2.52 0.144,-0.288 0.216,-0.624 0.216,-0.912 z m -10.176,-3.024 c -0.264,-0.312 -0.384,-0.936 -0.384,-1.368 0,-0.384 0.216,-0.576 0.36,-0.576 0.168,0 0.36,0.144 0.36,0.504 0,0.312 -0.096,0.888 -0.336,1.44 z m -4.224,4.104 c 0,-0.864 0.408,-2.232 1.008,-3.36 0.432,-0.72 0.912,-1.344 1.392,-1.824 0.168,0.696 0.6,1.392 1.416,1.872 -0.144,0.6 -0.432,1.248 -0.768,1.824 -0.888,1.512 -2.04,2.496 -2.616,2.496 -0.288,0 -0.432,-0.408 -0.432,-1.008 z m 19.58528,-8.664 c 0,0.744 0.648,1.464 1.416,1.464 0.6,0 0.96,-0.552 0.96,-1.2 0,-0.696 -0.648,-1.56 -1.32,-1.56 -0.552,0 -1.056,0.624 -1.056,1.296 z m 1.776,8.424 c 0.312,-0.624 0.336,-1.224 0.12,-1.632 -0.216,-0.432 -0.528,-0.48 -0.72,-0.048 -0.744,1.632 -1.992,3.24 -2.952,3.24 -0.264,0 -0.36,-0.216 -0.36,-0.6 0,-0.384 0.12,-0.888 0.336,-1.44 0.408,-0.96 1.512,-2.76 1.968,-3.792 0.624,-1.2 0.432,-2.232 -0.024,-2.712 -0.312,-0.36 -0.6,-0.312 -0.96,0.168 -0.888,1.248 -2.424,4.032 -3.024,5.712 -0.192,0.624 -0.288,1.128 -0.288,1.584 0,1.2 0.648,2.04 2.112,2.04 1.416,0 3.072,-1.008 3.792,-2.52 z"
         id="path3" />
      <path
         d="m 246.02417,218.52564 c 0.264,0.216 -0.24,1.344 -0.936,2.28 -0.48,0.648 -1.248,1.368 -1.824,1.368 -0.168,0 -0.336,-0.048 -0.528,-0.168 1.152,-2.304 2.928,-3.768 3.288,-3.48 z m 1.8,0.96 c 0,-0.312 -0.096,-0.672 -0.24,-0.888 -0.336,-0.48 -0.816,-0.864 -1.488,-1.248 -0.24,-0.144 -0.504,-0.192 -0.84,-0.192 -1.392,0 -3.336,1.272 -4.584,3.816 -0.504,0.96 -0.744,1.896 -0.744,2.76 0,1.92 1.224,3.384 3.456,3.36 1.872,-0.024 3.792,-1.152 4.8,-2.616 0.432,-0.648 0.408,-1.344 0.336,-1.56 -0.192,-0.48 -0.504,-0.432 -0.768,-0.048 -0.984,1.488 -2.592,3.264 -4.416,3.264 -0.72,0 -1.152,-0.744 -1.152,-1.8 0,-0.432 0.072,-0.936 0.216,-1.416 0.552,0.36 1.128,0.528 1.704,0.528 2.112,0 3.72,-2.52 3.72,-3.96 z m 5.09397,6.48 c -0.528,0 -1.032,-0.84 -1.32,-1.968 0.72,-1.032 1.392,-2.064 1.968,-2.976 0.048,0.648 0.072,1.416 0.072,2.184 0,1.56 -0.216,2.76 -0.72,2.76 z m -3.288,-2.304 c 0,0.552 0.144,1.128 0.408,1.584 0.816,1.512 2.256,1.896 3.696,1.848 1.8,-0.072 3.48,-0.984 4.392,-2.664 0.432,-0.744 0.36,-1.416 0.24,-1.656 -0.168,-0.384 -0.528,-0.552 -0.744,0 -0.432,1.176 -1.104,1.968 -2.088,2.64 0.264,-0.528 0.384,-1.2 0.408,-1.8 0.048,-1.296 -0.264,-2.856 -0.264,-4.56 0,-0.312 0.024,-0.72 0.048,-1.008 0.744,-1.224 0.6,-1.752 -0.048,-1.752 -0.36,0 -0.792,0.168 -1.176,0.504 -0.552,0.456 -0.84,1.008 -0.936,1.872 -0.624,1.032 -1.464,2.28 -2.256,3.408 -0.072,-0.576 -0.432,-0.696 -0.912,-0.288 -0.528,0.456 -0.768,1.152 -0.768,1.872 z"
         id="path4" />
    </g>
  </g>
</svg>
