<?xml version="1.0" encoding="UTF-8" standalone="no"?>
<!-- Created with Inkscape (http://www.inkscape.org/) -->

<svg
   width="98.525986mm"
   height="13.491713mm"
   viewBox="0 0 98.525984 13.491712"
   version="1.1"
   id="svg1"
   sodipodi:docname="createCup.svg"
   xmlns:inkscape="http://www.inkscape.org/namespaces/inkscape"
   xmlns:sodipodi="http://sodipodi.sourceforge.net/DTD/sodipodi-0.dtd"
   xmlns="http://www.w3.org/2000/svg"
   xmlns:svg="http://www.w3.org/2000/svg">
  <sodipodi:namedview
     id="namedview1"
     pagecolor="#ffffff"
     bordercolor="#000000"
     borderopacity="0.25"
     inkscape:showpageshadow="2"
     inkscape:pageopacity="0.0"
     inkscape:pagecheckerboard="0"
     inkscape:deskcolor="#d1d1d1"
     inkscape:document-units="mm" />
  <defs
     id="defs1" />
  <g
     inkscape:label="Capa 1"
     inkscape:groupmode="layer"
     id="layer1"
     transform="translate(-50.2449,-105.02219)">
    <g
       id="text2"
       style="font-size:20.723px;line-height:0;font-family:SignPainter;-inkscape-font-specification:SignPainter;letter-spacing:2.55px;word-spacing:0px;white-space:pre;fill:#969696;fill-opacity:0.891599;stroke:#000000;stroke-opacity:0"
       inkscape:label="text2"
       transform="matrix(0.61284429,0,0,0.61284429,-49.456223,-24.796788)"
       aria-label="Let's create your Cup">
      <path
         style="letter-spacing:0.824605px"
         d="m 169.30787,216.26678 c 0.51807,-0.91181 0.70458,-1.63712 0.70458,-2.15519 0,-0.33157 -0.0829,-0.64242 -0.18651,-0.84965 -0.20723,-0.37301 -0.4559,-0.51807 -0.78747,-0.0622 -1.28483,1.74074 -4.70412,7.95764 -5.69882,10.48584 -0.20723,0.55952 -0.20723,0.89109 -0.0622,1.2641 0.0829,0.22796 0.35229,0.60097 0.55952,0.89109 0.29012,0.41446 0.55952,0.41446 1.16048,0.2694 1.18122,-0.31084 3.39858,-0.82892 4.37256,-0.80819 0.47663,0 0.51807,-0.20723 0.41446,-0.45591 -0.2694,-0.64241 -0.87037,-1.0776 -2.01013,-0.9947 -0.74603,0.0622 -1.74074,0.20723 -2.75616,0.4559 1.13976,-2.42459 2.48676,-4.74557 4.28966,-8.04052 z m 6.91713,2.46603 c 0.22795,0.18651 -0.20723,1.16049 -0.8082,1.96869 -0.41446,0.55952 -1.0776,1.18121 -1.57495,1.18121 -0.14506,0 -0.29012,-0.0414 -0.45591,-0.14506 0.99471,-1.98941 2.52821,-3.25351 2.83906,-3.00484 z m 1.55422,0.82892 c 0,-0.26939 -0.0829,-0.58024 -0.20723,-0.76675 -0.29012,-0.41446 -0.70458,-0.74602 -1.28483,-1.07759 -0.20723,-0.12434 -0.43518,-0.16579 -0.7253,-0.16579 -1.20193,0 -2.8805,1.09832 -3.95809,3.29496 -0.43519,0.82892 -0.64242,1.63712 -0.64242,2.38315 0,1.65784 1.05688,2.92194 2.98412,2.90122 1.61639,-0.0207 3.27423,-0.99471 4.1446,-2.25881 0.37301,-0.55952 0.35229,-1.16049 0.29012,-1.347 -0.16579,-0.41446 -0.43519,-0.37301 -0.66314,-0.0414 -0.84964,1.28482 -2.23808,2.81833 -3.81303,2.81833 -0.62169,0 -0.9947,-0.64242 -0.9947,-1.55423 0,-0.37301 0.0622,-0.8082 0.1865,-1.22266 0.47663,0.31085 0.97398,0.45591 1.47134,0.45591 1.82362,0 3.21206,-2.17592 3.21206,-3.4193 z m 0.5552,4.2275 c 0,1.42988 0.95326,2.32097 2.05158,2.32097 1.74073,0 3.12917,-1.78218 3.41929,-2.40387 0.22796,-0.47662 0.31085,-0.78747 0.20723,-1.22265 -0.14506,-0.55952 -0.62169,-0.51808 -0.84964,-0.0207 -0.72531,1.55423 -1.8029,2.85978 -2.6111,2.85978 -0.35229,0 -0.55952,-0.43518 -0.55952,-1.05687 0,-0.45591 0.12434,-0.99471 0.37301,-1.55423 0.72531,-1.57495 1.90652,-3.62652 2.69399,-4.97352 0.45591,-0.0622 0.99471,-0.10361 1.36772,-0.0622 0.49735,0.0622 0.64242,-0.18651 0.43519,-0.55952 -0.14507,-0.24868 -0.49736,-0.58024 -1.13977,-0.66314 0.24868,-0.58024 0.33157,-1.05687 0.33157,-1.42988 0,-0.24868 -0.0829,-0.60097 -0.22795,-0.84965 -0.22796,-0.39373 -0.47663,-0.41446 -0.78748,0.0414 -0.47663,0.68386 -0.91181,1.36772 -1.55422,2.48676 -0.45591,0.0414 -1.01543,0.0622 -1.49206,0.0414 -0.47663,-0.0207 -0.68386,0.1865 -0.39374,0.62169 0.16579,0.24867 0.5388,0.47663 1.18121,0.55952 -0.82892,1.49205 -1.61639,3.12917 -2.03085,4.1446 -0.29012,0.68386 -0.41446,1.2641 -0.41446,1.72001 z m 11.51763,-9.76054 c 0.24868,-0.41446 0.43518,-0.91181 0.24868,-1.34699 -0.16579,-0.37302 -0.49735,-0.5388 -0.89109,-0.0414 -0.68386,0.8082 -1.88579,2.98411 -2.25881,4.06171 -0.0829,0.2694 0,0.45591 0.2694,0.49735 0.22795,0.0414 0.51808,0 0.76675,-0.33157 0.5388,-0.68385 1.63712,-2.32097 1.86507,-2.83905 z m -0.0458,11.12825 c -0.45591,0 -0.89109,-0.7253 -1.13977,-1.69928 0.62169,-0.89109 1.20194,-1.78218 1.69929,-2.56965 0.0414,0.55952 0.0622,1.22265 0.0622,1.88579 0,1.34699 -0.18651,2.38314 -0.62169,2.38314 z m -2.83905,-1.9894 c 0,0.47663 0.12434,0.97398 0.35229,1.36771 0.70458,1.30555 1.94796,1.63712 3.19134,1.59568 1.55423,-0.0622 3.00484,-0.84965 3.79231,-2.30026 0.37301,-0.64241 0.31085,-1.22265 0.20723,-1.42988 -0.14506,-0.33157 -0.45591,-0.47663 -0.64241,0 -0.37302,1.01542 -0.95326,1.69928 -1.8029,2.27953 0.22795,-0.45591 0.33156,-1.03615 0.35229,-1.55423 0.0414,-1.11904 -0.22796,-2.46604 -0.22796,-3.93737 0,-0.2694 0.0207,-0.62169 0.0414,-0.87037 0.64241,-1.05687 0.51808,-1.51277 -0.0414,-1.51277 -0.31084,0 -0.68385,0.14506 -1.01542,0.43518 -0.47663,0.39374 -0.72531,0.87036 -0.8082,1.61639 -0.5388,0.89109 -1.2641,1.96869 -1.94796,2.94267 -0.0622,-0.49735 -0.37302,-0.60097 -0.78748,-0.24868 -0.4559,0.39374 -0.66313,0.99471 -0.66313,1.6164 z"
         id="path1" />
      <path
         style="letter-spacing:0.561249px"
         d="m 215.66527,222.58729 c -0.20723,-0.4559 -0.51808,-0.41446 -0.70458,0.0207 -0.62169,1.42988 -1.80291,2.75615 -2.50749,2.69399 -0.31084,-0.0207 -0.47663,-0.33157 -0.47663,-0.84965 0,-0.31084 0.0622,-0.62169 0.16579,-0.93253 0.33157,-1.09832 1.34699,-2.44532 2.23808,-3.48147 0.24868,-0.2694 0.35229,-0.58024 0.35229,-0.82892 0,-0.53879 -0.24867,-1.03615 -0.58024,-1.40916 -0.2694,-0.29012 -0.60097,-0.20723 -0.91181,0.0207 -0.66314,0.47663 -1.22266,0.74603 -1.8029,0.89109 0.22795,-0.68386 0.39373,-1.30555 0.39373,-1.74073 0,-0.45591 -0.16578,-0.72531 -0.60096,-0.72531 -0.70459,0.0207 -2.0723,1.53351 -2.0723,2.63183 0,0.39373 0.14506,0.70458 0.58024,0.91181 -1.0776,2.54893 -3.29496,5.57448 -5.32581,5.49159 -0.60097,-0.0414 -0.95326,-0.62169 -0.95326,-1.49205 0,-0.62169 0.20723,-1.45061 0.62169,-2.30026 0.87037,-1.76145 2.19664,-3.02555 2.46604,-2.81832 0.10361,0.0829 -0.10362,0.49735 -0.31085,0.93253 -0.20723,0.47663 -0.47663,1.16049 -0.47663,1.47133 0,0.55952 0.31085,0.99471 0.72531,1.20194 0.51807,0.2694 0.60097,0.16578 0.74603,-0.2694 0.0622,-0.22795 0.22795,-0.5388 0.37301,-0.84964 0.39374,-0.8082 0.72531,-1.55423 0.41446,-2.21737 -0.22795,-0.43518 -0.60097,-0.80819 -1.22266,-1.18121 -0.20723,-0.12433 -0.4559,-0.16578 -0.7253,-0.16578 -1.20193,0 -2.83905,1.16049 -3.93737,3.27423 -0.41446,0.82892 -0.62169,1.65784 -0.62169,2.38315 0,1.61639 1.03615,2.85977 2.94267,2.85977 2.63182,0 4.95279,-2.81833 6.44485,-6.13401 0.47663,-0.0207 1.05687,-0.14506 1.61639,-0.37301 -1.13976,1.347 -2.23808,3.31568 -2.23808,4.39328 0,1.22265 0.7253,2.13447 2.05157,2.13447 1.16049,0 2.71472,-0.87037 3.23279,-2.1552 0.24868,-0.62169 0.20723,-1.16048 0.10362,-1.38844 z"
         id="path2" />
      <path
         style="letter-spacing:0.807335px"
         d="m 221.20173,218.73281 c 0.22795,0.18651 -0.20723,1.16049 -0.8082,1.96869 -0.41446,0.55952 -1.07759,1.18121 -1.57495,1.18121 -0.14506,0 -0.29012,-0.0414 -0.4559,-0.14506 0.9947,-1.98941 2.5282,-3.25351 2.83905,-3.00484 z m 1.55422,0.82892 c 0,-0.26939 -0.0829,-0.58024 -0.20723,-0.76675 -0.29012,-0.41446 -0.70458,-0.74602 -1.28482,-1.07759 -0.20723,-0.12434 -0.43518,-0.16579 -0.72531,-0.16579 -1.20193,0 -2.88049,1.09832 -3.95809,3.29496 -0.43518,0.82892 -0.64241,1.63712 -0.64241,2.38315 0,1.65784 1.05687,2.92194 2.98411,2.90122 1.61639,-0.0207 3.27423,-0.99471 4.1446,-2.25881 0.37301,-0.55952 0.35229,-1.16049 0.29012,-1.347 -0.16578,-0.41446 -0.43518,-0.37301 -0.66313,-0.0414 -0.84965,1.28482 -2.23809,2.81833 -3.81304,2.81833 -0.62169,0 -0.9947,-0.64242 -0.9947,-1.55423 0,-0.37301 0.0622,-0.8082 0.18651,-1.22266 0.47663,0.31085 0.97398,0.45591 1.47133,0.45591 1.82362,0 3.21206,-2.17592 3.21206,-3.4193 z m 1.6777,1.32628 c -0.74603,1.03615 -1.11904,2.19663 -1.11904,3.08772 0,1.22266 0.66313,2.11375 1.88579,2.11375 0.82892,0 1.76146,-0.64241 2.36242,-1.22266 0.16579,0.76675 0.76675,1.30555 1.8029,1.30555 1.26411,0 2.59038,-1.09832 3.12918,-2.23808 0.29012,-0.60097 0.16578,-1.16049 0.0829,-1.347 -0.20723,-0.43518 -0.39374,-0.41446 -0.62169,0 -0.68386,1.347 -1.72001,2.75616 -2.46604,2.75616 -0.20723,0 -0.29012,-0.18651 -0.29012,-0.49735 0,-1.38844 1.74073,-3.64725 2.27953,-4.78701 0.5388,-1.0776 0.35229,-1.98941 0,-2.40387 -0.24868,-0.29012 -0.60097,-0.2694 -0.84964,0.14506 l -0.39374,0.64241 c -0.18651,-0.5388 -0.64241,-0.91181 -1.38844,-0.91181 -1.05687,0 -2.75616,0.97398 -4.414,3.35713 z m 1.03615,4.28966 c -0.20723,0 -0.29012,-0.24868 -0.29012,-0.62169 0,-0.66314 0.35229,-1.76146 0.97398,-2.73544 1.05687,-1.69928 2.48676,-3.00483 2.90122,-3.00483 0.20723,0 0.24868,0.14506 0.24868,0.39373 0,0.5388 -0.37302,1.55423 -1.18122,2.96339 -1.01542,1.74073 -1.96868,3.00484 -2.65254,3.00484 z m 7.06567,-1.38844 c 0,1.42988 0.95326,2.32097 2.05158,2.32097 1.74073,0 3.12917,-1.78218 3.41929,-2.40387 0.22796,-0.47662 0.31085,-0.78747 0.20723,-1.22265 -0.14506,-0.55952 -0.62169,-0.51808 -0.84964,-0.0207 -0.72531,1.55423 -1.8029,2.85978 -2.6111,2.85978 -0.35229,0 -0.55952,-0.43518 -0.55952,-1.05687 0,-0.45591 0.12434,-0.99471 0.37301,-1.55423 0.72531,-1.57495 1.90652,-3.62652 2.69399,-4.97352 0.45591,-0.0622 0.99471,-0.10361 1.36772,-0.0622 0.49735,0.0622 0.64242,-0.18651 0.43519,-0.55952 -0.14507,-0.24868 -0.49736,-0.58024 -1.13977,-0.66314 0.24868,-0.58024 0.33157,-1.05687 0.33157,-1.42988 0,-0.24868 -0.0829,-0.60097 -0.22795,-0.84965 -0.22796,-0.39373 -0.47663,-0.41446 -0.78748,0.0414 -0.47663,0.68386 -0.91181,1.36772 -1.55422,2.48676 -0.45591,0.0414 -1.01543,0.0622 -1.49206,0.0414 -0.47663,-0.0207 -0.68386,0.1865 -0.39374,0.62169 0.16579,0.24867 0.5388,0.47663 1.18121,0.55952 -0.82892,1.49205 -1.61639,3.12917 -2.03085,4.1446 -0.29012,0.68386 -0.41446,1.2641 -0.41446,1.72001 z m 10.17409,-5.05642 c 0.22796,0.18651 -0.20723,1.16049 -0.80819,1.96869 -0.41446,0.55952 -1.0776,1.18121 -1.57495,1.18121 -0.14506,0 -0.29012,-0.0414 -0.45591,-0.14506 0.99471,-1.98941 2.52821,-3.25351 2.83905,-3.00484 z m 1.55423,0.82892 c 0,-0.26939 -0.0829,-0.58024 -0.20723,-0.76675 -0.29012,-0.41446 -0.70458,-0.74602 -1.28483,-1.07759 -0.20723,-0.12434 -0.43518,-0.16579 -0.7253,-0.16579 -1.20194,0 -2.8805,1.09832 -3.95809,3.29496 -0.43519,0.82892 -0.64242,1.63712 -0.64242,2.38315 0,1.65784 1.05688,2.92194 2.98411,2.90122 1.6164,-0.0207 3.27424,-0.99471 4.1446,-2.25881 0.37302,-0.55952 0.3523,-1.16049 0.29013,-1.347 -0.16579,-0.41446 -0.43519,-0.37301 -0.66314,-0.0414 -0.84964,1.28482 -2.23808,2.81833 -3.81303,2.81833 -0.62169,0 -0.99471,-0.64242 -0.99471,-1.55423 0,-0.37301 0.0622,-0.8082 0.18651,-1.22266 0.47663,0.31085 0.97398,0.45591 1.47133,0.45591 1.82363,0 3.21207,-2.17592 3.21207,-3.4193 z"
         id="path3" />
      <path
         style="letter-spacing:0.902316px"
         d="m 260.42792,222.35934 c -0.0829,-0.2694 -0.39374,-0.22795 -0.66314,0.14506 -0.66313,0.93254 -1.74073,1.98941 -3.00483,2.75616 0.84964,-1.96869 1.92724,-3.97882 2.52821,-5.1393 0.26939,-0.51808 0.37301,-0.97399 0.37301,-1.38845 0,-0.43518 -0.0829,-0.74602 -0.39374,-1.05687 -0.22795,-0.22795 -0.49735,-0.18651 -0.78747,0.18651 -0.49735,0.74603 -1.05687,2.01013 -2.44532,4.35183 -1.01542,1.72001 -1.94796,2.94266 -2.48676,2.94266 -0.53879,0 -0.35229,-0.82892 -0.0622,-1.57494 0.39373,-0.97398 0.82892,-1.82363 1.5335,-2.94267 0.47663,-0.76675 0.7253,-1.36772 0.7253,-1.88579 0,-0.33157 -0.1865,-0.70458 -0.39373,-0.99471 -0.22796,-0.33156 -0.5388,-0.31084 -0.8082,0.0414 -1.28483,1.76145 -2.30025,3.85448 -2.77688,5.16003 -0.18651,0.51807 -0.2694,1.01542 -0.2694,1.45061 0,0.87036 0.4559,1.65784 1.49205,1.65784 0.62169,0 1.16049,-0.18651 1.69929,-0.58025 l -0.31085,0.72531 c -2.01013,0.80819 -3.68869,2.0723 -4.3311,3.85448 -0.12434,0.37301 -0.18651,0.7253 -0.18651,0.97398 0,0.66313 0.31085,1.28482 0.62169,1.72001 0.49735,0.66313 0.93254,0.66313 1.40916,0.47662 1.80291,-0.68385 3.21207,-3.99953 4.35183,-6.73497 1.69929,-0.70458 3.06701,-1.47133 3.89593,-2.73544 0.35229,-0.53879 0.39374,-1.07759 0.29012,-1.40916 z m -6.58991,5.20147 c -0.49736,1.11904 -0.99471,2.13447 -1.42989,2.90122 -0.58024,1.01543 -1.01543,1.6164 -1.16049,1.49206 -0.20723,-0.18651 -0.0622,-1.03615 0.45591,-2.01013 0.43518,-0.8082 1.13976,-1.69929 2.13447,-2.38315 z"
         id="path4" />
      <path
         style="letter-spacing:0.854826px"
         d="m 277.39052,222.54585 c -0.22795,-0.39374 -0.51807,-0.37302 -0.70458,0.0207 -0.74603,1.38844 -1.96869,2.73544 -2.67327,2.73544 -0.2694,0 -0.39373,-0.20723 -0.39373,-0.58025 0,-0.35229 0.12433,-0.78747 0.33156,-1.22266 0.49736,-1.20193 1.49206,-2.56965 1.8858,-3.41929 0.24867,-0.49735 0.33156,-0.93254 0.33156,-1.32627 0,-0.45591 -0.14506,-0.82892 -0.35229,-1.0776 -0.2694,-0.31084 -0.60096,-0.24867 -0.84964,0.12434 -0.76675,1.09832 -1.20193,2.3417 -2.46604,4.33111 -1.05687,1.72001 -2.11374,3.02555 -2.69399,3.02555 -0.1865,0 -0.24867,-0.20723 -0.24867,-0.49735 0,-0.31084 0.0829,-0.68386 0.22795,-1.07759 0.41446,-0.97398 0.87037,-1.8029 1.57495,-2.94267 0.43518,-0.76675 0.68386,-1.38844 0.68386,-1.88579 0,-0.29012 -0.12434,-0.70458 -0.37302,-0.99471 -0.29012,-0.33156 -0.55952,-0.31084 -0.80819,0.0622 l -0.76675,1.11904 c -0.64242,0.93254 -1.59568,1.84435 -2.52821,2.01014 0.0829,-1.26411 -0.24868,-1.80291 -0.66314,-2.23809 -0.10361,-0.10361 -0.20723,-0.18651 -0.31084,-0.31084 -0.45591,-0.60097 -0.87037,-0.8082 -1.57495,-0.76675 -1.28483,0.10361 -2.65254,1.34699 -3.41929,2.67326 -0.5388,0.93254 -0.84965,2.01013 -0.84965,2.8805 0,0.66314 0.16579,1.30555 0.55952,1.82362 0.58025,0.78748 1.36772,1.05688 2.05158,1.05688 1.74073,0 3.46074,-2.30026 4.02026,-4.28966 0.43519,0 0.84965,-0.0829 1.26411,-0.22796 -0.24868,0.47663 -0.45591,0.99471 -0.60097,1.40917 -0.16579,0.49735 -0.24868,0.9947 -0.24868,1.42988 0,0.89109 0.39374,1.67857 1.47134,1.67857 1.03615,0 1.9894,-0.68386 2.67326,-1.42989 0.12434,0.87037 0.72531,1.51278 1.90652,1.51278 1.28482,0 2.75616,-1.03615 3.35712,-2.23809 0.31085,-0.60096 0.31085,-1.16048 0.18651,-1.36771 z m -11.37693,-1.94797 c -0.22795,-0.26939 -0.33156,-0.80819 -0.33156,-1.18121 0,-0.33156 0.1865,-0.49735 0.31084,-0.49735 0.14506,0 0.31085,0.12434 0.31085,0.43518 0,0.2694 -0.0829,0.76676 -0.29013,1.24338 z m -3.64724,3.52291 c 0,-0.76675 0.31084,-1.90651 0.84964,-2.88049 0.39374,-0.66314 0.76675,-1.18121 1.20193,-1.59567 0.18651,0.58024 0.72531,1.30555 1.26411,1.65784 -0.16579,0.47663 -0.35229,0.95325 -0.68386,1.5335 -0.78748,1.40916 -1.67857,2.15519 -2.19664,2.15519 -0.33157,0 -0.43518,-0.29012 -0.43518,-0.87037 z"
         id="path5" />
      <path
         style="letter-spacing:1.89961px"
         d="m 281.75271,216.74341 c -0.64242,0 -1.96869,1.47133 -1.96869,2.5282 0,0.2694 0.14506,0.5388 0.39374,0.76675 -1.13977,1.40917 -2.19664,3.10845 -2.54893,3.77159 -0.29012,0.5388 -0.43518,1.03615 -0.43518,1.49206 0,0.4559 0.16578,0.89108 0.51807,1.22265 0.37302,0.39374 0.64242,0.20723 0.72531,-0.16578 0.29012,-1.42989 1.47133,-3.3364 3.02556,-6.03039 0.4559,-0.0207 0.97398,-0.10362 1.51277,-0.33157 -1.03615,1.2641 -2.13446,2.85977 -2.13446,4.18604 0,1.11905 0.68385,2.01013 1.94796,2.01013 1.18121,0 2.40387,-0.89108 2.90122,-2.0723 0.22795,-0.55952 0.20723,-1.05687 0.0622,-1.34699 -0.18651,-0.37301 -0.47663,-0.35229 -0.64242,0.0207 -0.64241,1.42989 -1.47133,2.59038 -2.17591,2.59038 -0.29012,0 -0.45591,-0.33157 -0.45591,-0.87037 0,-1.22266 1.18121,-2.85977 2.30026,-4.1446 0.22795,-0.2694 0.33156,-0.55952 0.33156,-0.8082 0,-0.49735 -0.31084,-1.03615 -0.60096,-1.32627 -0.2694,-0.2694 -0.47663,-0.22795 -0.82892,0.0207 -0.62169,0.4559 -1.18121,0.74602 -1.67857,0.87036 0.22796,-0.66313 0.37302,-1.2641 0.37302,-1.65784 0,-0.47663 -0.18651,-0.7253 -0.62169,-0.7253 z"
         id="path6" />
      <path
         style="letter-spacing:0.595788px"
         d="m 301.93105,221.4268 c -1.20193,2.30026 -2.67327,3.62653 -3.81303,3.62653 -0.74603,0 -1.5335,-0.78747 -1.5335,-2.56965 0,-1.24338 0.39373,-2.94267 1.30555,-4.414 1.72,-2.77688 4.66267,-4.57978 5.16002,-4.04099 0.24868,0.2694 0,0.93254 -0.29012,1.65784 -0.12434,0.31085 -0.2694,0.64242 -0.35229,0.95326 -0.0829,0.2694 -0.12434,0.51808 -0.12434,0.76675 0,0.60097 0.29012,1.05688 0.70458,1.32627 0.41446,0.24868 0.70459,0.0414 0.8082,-0.31084 0.14506,-0.45591 0.43518,-1.16049 0.78747,-1.86507 0.20723,-0.41446 0.29013,-0.82892 0.29013,-1.20193 0,-0.8082 -0.5388,-1.6164 -1.24338,-2.23809 -0.35229,-0.29012 -0.82892,-0.43518 -1.347,-0.43518 -0.51807,0 -1.09832,0.14506 -1.63712,0.35229 -2.34169,1.05687 -6.05111,4.80774 -5.96822,8.99378 0.0414,1.69929 0.89109,3.00484 1.86507,3.52291 0.51808,0.29012 1.13977,0.43518 1.82362,0.43518 0.89109,0 1.82363,-0.24867 2.67327,-0.84964 0.74603,-0.55952 1.86507,-1.76145 1.86507,-2.96339 0,-0.20723 -0.0414,-0.4559 -0.14506,-0.68386 -0.20723,-0.47663 -0.68386,-0.35229 -0.82892,-0.0622 z"
         id="path7" />
      <path
         style="letter-spacing:1.37722px"
         d="m 313.28208,223.93429 c 0.31084,-0.60097 0.22795,-1.20194 0.14506,-1.38844 -0.16579,-0.39374 -0.51808,-0.33157 -0.72531,0.0207 -0.74603,1.30555 -1.8029,2.73544 -2.48676,2.73544 -0.2694,0 -0.39373,-0.20723 -0.39373,-0.58025 0,-0.8082 0.80819,-2.21736 1.40916,-3.19134 0.7253,-1.20193 1.16049,-2.11375 1.16049,-2.81833 0,-0.4559 -0.10362,-0.78747 -0.31085,-1.07759 -0.24867,-0.3523 -0.58024,-0.2694 -0.87036,0.12433 -0.74603,0.95326 -1.28483,2.36243 -2.50749,4.35183 -1.05687,1.65784 -2.15519,3.06701 -2.69399,3.06701 -0.4559,0 -0.39373,-0.76675 -0.0207,-1.59567 0.72531,-1.59567 2.23808,-3.99954 2.23808,-4.84919 0,-0.31084 -0.0829,-0.66313 -0.31084,-0.95325 -0.24868,-0.31085 -0.62169,-0.35229 -0.89109,0 -1.28483,1.8029 -2.3417,3.8752 -2.7976,5.18075 -0.18651,0.49735 -0.2694,0.97398 -0.2694,1.42988 0,0.89109 0.41446,1.67857 1.47133,1.67857 1.05687,0 1.98941,-0.64242 2.69399,-1.42989 0.0829,0.93253 0.70458,1.5335 1.92724,1.5335 1.28482,0 2.63182,-1.05687 3.23279,-2.23808 z m 3.90541,-3.00484 c 0.89109,-1.51278 2.03085,-2.46603 2.40387,-2.30025 0.10361,0.0414 0.14506,0.29012 0.14506,0.66314 0,0.68385 -0.24868,1.74073 -0.74603,2.71471 -0.84964,1.72001 -1.78218,2.85977 -2.42459,2.85977 -0.5388,0 -0.68386,-1.49205 -0.0414,-2.81833 z m 4.31038,-1.01542 c 0,-1.05688 -0.60096,-2.17592 -1.84434,-2.17592 -0.55953,0 -1.16049,0.2694 -1.67857,0.62169 0,-0.2694 -0.0414,-0.5388 -0.20723,-0.76675 -0.16578,-0.22795 -0.43518,-0.31085 -0.80819,0.14506 -1.28483,1.72001 -4.70412,8.16486 -5.30509,10.13355 -0.18651,0.58024 -0.24868,1.01542 -0.24868,1.34699 0,0.43519 0.10362,0.72531 0.41446,1.11904 0.20723,0.24868 0.45591,0.16579 0.62169,-0.20723 0.87037,-2.03085 1.76146,-3.81303 2.67327,-5.51231 0.47663,1.11904 1.49205,1.67856 3.12917,1.67856 1.72001,0 3.46074,-0.58024 4.39328,-2.25881 0.35229,-0.62169 0.33157,-1.20193 0.29012,-1.40916 -0.0829,-0.41446 -0.51808,-0.51808 -0.76675,-0.0414 -0.60097,1.20194 -1.78218,2.56965 -3.31568,2.8805 0.66313,-0.5388 1.34699,-1.47133 1.84435,-2.6111 0.47662,-0.9947 0.80819,-2.05158 0.80819,-2.94266 z"
         id="path8" />
    </g>
  </g>
</svg>
