<?xml version="1.0" encoding="UTF-8" standalone="no"?>
<!-- Created with Inkscape (http://www.inkscape.org/) -->

<svg
   version="1.1"
   id="svg1"
   width="2395.1721"
   height="1674.0352"
   viewBox="0 0 2395.1721 1674.0352"
   sodipodi:docname="vecteezy_coffee-cup-with-heart_16926920.eps"
   xmlns:inkscape="http://www.inkscape.org/namespaces/inkscape"
   xmlns:sodipodi="http://sodipodi.sourceforge.net/DTD/sodipodi-0.dtd"
   xmlns="http://www.w3.org/2000/svg"
   xmlns:svg="http://www.w3.org/2000/svg">
  <defs
     id="defs1" />
  <sodipodi:namedview
     id="namedview1"
     pagecolor="#ffffff"
     bordercolor="#000000"
     borderopacity="0.25"
     inkscape:showpageshadow="2"
     inkscape:pageopacity="0.0"
     inkscape:pagecheckerboard="0"
     inkscape:deskcolor="#d1d1d1" />
  <g
     id="g1"
     inkscape:groupmode="layer"
     inkscape:label="1"
     transform="translate(-355.43311,-568.01378)">
    <g
       id="group-R5"
       transform="translate(33.47461,89.265531)">
      <path
         id="path2"
         d="m 18591.5,8106.7 c -704.7,-458.2 -1600.9,-735.7 -2416,-439 172.8,422.6 311,854.6 420.3,1293.3 5.4,-1 11.1,-1.8 17,-2.1 1173.5,-63.9 2336.9,1091.4 2199.7,2285.9 -51.2,445.1 -325.2,881 -763.6,1028.6 -389.2,131.1 -850.1,-2 -1088.4,-328.5 7.2,334.2 5.8,668.8 -2.1,1002.9 478.4,800.5 1411.9,1128.6 2200.6,522.5 537.5,-412.9 861.1,-1056.8 973.1,-1716.3 235.1,-1382.8 -356.6,-2877.3 -1540.6,-3647.3 z m -6080,-4004.1 c -858.1,-266.8 -1766.3,-330 -2660.32,-324.5 -884.79,5.3 -1824.72,8.3 -2694.94,176.3 -340.62,65.8 -658.43,191.7 -955.85,357.9 894.4,-159.3 1806.47,-227.7 2713.97,-228.3 1018.67,-0.6 2060.14,68.2 3055.74,293.9 54.6,12.3 43.9,107.3 -13.5,99.6 -995.7,-132.5 -1984.1,-252.8 -2990.37,-255.6 -1017.17,-3 -2024.7,97.1 -3029.04,250.9 -393.06,259.7 -748.79,584.3 -1073.52,921.5 -610.16,633.6 -1098.89,1379.2 -1451.63,2184.5 -921.7,2104.1 -887.94,4464.3 -745.56,6718.9 135.96,-135.1 335.68,-239.6 514.7,-316.6 -8.98,-90.4 -17.11,-180.9 -24.36,-271.5 -52.62,22.3 -104.97,45.3 -157.04,68.9 -26.8,12.2 -50.55,-26.3 -23.5,-40.2 57.93,-29.9 116.67,-58.3 176.1,-85.5 -173.33,-2279 199.66,-4622.2 1103.37,-6721.6 9.05,-21.1 46.01,-5.8 37.45,15.8 -847.67,2137.4 -1227.04,4393.1 -1091.85,6683.8 64.69,-28.6 130.16,-55.7 196.3,-81.4 -96.71,-1006.9 -15.92,-2017 209.73,-3004.7 5.55,-24.2 42.79,-13.9 37.29,10.3 -222.17,980.2 -280.36,1980.1 -205.73,2978.5 456.34,-173 942.22,-283.2 1414.79,-374.6 874.36,-169.3 1777.77,-263.2 2668.61,-242.2 29.63,0.7 29.76,45.8 0,46.1 -1361.76,16.4 -2788.93,147.8 -4078.65,632.1 7.34,91.4 15.75,182.8 25.27,274.1 986.31,-356 2067.39,-483.8 3104.49,-585.2 1509.19,-147.4 3032.39,-176.5 4547.05,-114.8 1399.2,57 2828.7,171.2 4189.8,518.8 142.6,36.4 353.4,84.8 574.5,154.4 -18.1,-854.4 -66.8,-1711.8 -55.9,-2565.8 0.3,-25.3 36.4,-24.5 38.6,0 79.2,855.8 75.3,1726.1 78.8,2585.6 82.3,27.1 165.2,57.3 245.9,91 173.9,-1739.2 -89.4,-3422.8 -349.9,-5143.3 -5,-33 44.2,-48.2 51.2,-14.1 343.6,1682.2 591.3,3470.9 365.6,5186.3 188,84.5 358.8,189.2 473.2,320.2 122.3,-2044.7 131.1,-4152.1 -543,-6108.9 -607.5,-1763.4 -1826.6,-3514.9 -3677.8,-4090.6 z m -9286.97,9860.1 c 76.59,-31.7 147.92,-58.3 206.88,-80 1.55,-0.6 3.11,-1.1 4.66,-1.7 -0.15,-0.6 -0.29,-1.2 -0.38,-1.9 -12.11,-89.7 -22.75,-179.3 -32.01,-269 -66.64,25.4 -132.91,51.8 -198.77,79.2 5.72,91.1 12.27,182.3 19.62,273.4 z m 559.24,1366.2 c 1016.47,309 2093,435.4 3147.95,524.3 1358.92,114.5 2727.11,137.9 4089.68,86.2 1312.9,-49.9 2640.4,-155.9 3925.5,-441.6 416.3,-92.5 841.9,-199.9 1229.1,-382.8 177.8,-84 500.9,-231.6 509.4,-466.3 -7.2,-198.8 -247.9,-330.2 -399.7,-411.4 -319.6,-171.1 -677.1,-274.2 -1026.7,-363.5 -1066.5,-272.4 -2174.1,-390.1 -3269.9,-464.8 -1369.6,-93.4 -2747.07,-101.1 -4117.97,-28.8 -1171.69,61.8 -2353.48,172.1 -3499.27,433.9 -367.55,84 -738.75,181.7 -1085.37,332.4 -187.22,81.4 -477.87,202.8 -565.32,406.5 -184.06,428.9 818.36,701.7 1062.6,775.9 z M 16953,11680.1 c 4.6,4 8.8,9 12.3,15 244.9,419.7 773.6,587.3 1196.7,323.3 384.4,-239.8 517.9,-725.4 454.7,-1152.3 -139.9,-945.79 -1008.9,-1737.3 -1971.1,-1696.3 186.9,820.52 277,1663 307.4,2510.3 z m 2203,2022.7 c -795.7,517 -1705.6,243.2 -2205.5,-481.9 -15.4,457.9 -41.7,914.3 -73.2,1366.2 -0.4,5.8 -1.3,11.3 -2.6,16.4 1,8.1 1.8,16.2 2.4,24.4 1,6.5 1.5,13.4 1.2,20.8 0.3,7.3 -0.1,14.2 -1.2,20.7 -39.5,508.8 -842.2,728.7 -1226.4,845.5 -1090.2,331.5 -2250.6,458.1 -3382.3,546 -1525.4,118.6 -3062.55,128.4 -4589.81,38.5 -1206.41,-71.1 -2431.85,-190 -3605.7,-489.8 -365.62,-93.4 -738.51,-204 -1072.85,-382.9 -184.48,-98.7 -402.76,-238.7 -473,-448.9 -23.73,-70.9 -28.61,-137.6 -18.66,-200 -145.62,-2189.9 -219.7,-4478.1 545.66,-6571.1 306.61,-838.4 744.7,-1625.6 1312.92,-2315.1 550.48,-668 1282.12,-1376.4 2092.34,-1714.1 836.78,-348.9 1825.19,-320.2 2716.3,-356.2 921.2,-37.3 1853.8,-25.8 2760.8,156.6 873.7,175.7 1683.8,531.1 2349.3,1130.8 729.8,657.7 1303.7,1480.6 1718.9,2368.4 33.4,71.6 65.8,143.5 97.2,215.7 783.8,-302 1677.8,-82.4 2389.7,311.5 717.9,397.2 1258.9,1005 1574.3,1761.3 564.1,1352.1 424.2,3270.6 -909.8,4137.2"
         style="fill:#56b4b5;fill-opacity:1;fill-rule:nonzero;stroke:none"
         transform="matrix(0.13333333,0,0,-0.13333333,0,2633.3333)" />
      <path
         id="path3"
         d="M 12370.9,9336.9 C 12273.7,9137.7 12148,8958.6 12003.8,8792.7 11014.3,8330.6 10048.1,7804 9123.52,7223 c -67.85,72.1 -139.09,141.9 -212.8,209.9 598.95,359.1 1188.98,732.3 1793.28,1082.7 568.3,329.4 1158.2,625.8 1725.1,957.6 -17.2,-46.6 -36.7,-92.2 -58.2,-136.3 z M 10901.4,7824.1 c -5.6,1.6 -11.9,1.2 -18.4,-2.2 -520.4,-271.4 -1040.85,-549.1 -1541.15,-856.5 -56.25,74.7 -116.57,146.7 -180.1,216.4 897.25,533.7 1806.65,1031 2739.35,1498.1 -296.3,-311.9 -654.2,-579.9 -999.7,-855.8 z m -969.53,-965.5 c -137.1,-48.1 -269.98,-119.9 -400.56,-186.2 -47.43,87.2 -100.47,170.5 -158.19,250.5 447.86,240 889.08,493.2 1332.28,742 -293.9,-244 -567.9,-501.5 -773.53,-806.3 z m -256.9,-514.1 c -33.32,98.8 -73.56,192.9 -119.76,282.8 107.03,39.9 217.36,83.7 317.63,139.3 -79.83,-131.1 -146.96,-271 -197.87,-422.1 z M 12481.9,10111 c 47.2,-172.94 30.8,-369.8 -25.7,-556.9 -612,-287.4 -1201.4,-644.4 -1784.8,-982.6 -607.8,-352.4 -1217.6,-709.7 -1800.8,-1102 -100.87,91.3 -205.96,179.6 -313.03,266.6 1233.47,907.2 2602.83,1605.8 3924.33,2374.9 z M 9628.51,8948.2 c 5.16,-24.8 9.85,-49.7 14.02,-74.7 -0.55,-12.3 1.99,-23.2 6.8,-32.7 11.42,-29.8 41.49,-43 71.91,-42 30.33,-1.6 60.56,11 72.52,40.4 5.25,9.9 8.03,21.5 7.32,34.6 12.12,74.3 28.17,147.8 47.92,220.2 123.02,80.1 247.1,158.8 372.8,235.7 662.7,405.3 1346.8,766 2041.1,1112.6 99.6,-77 165.4,-174.2 203.8,-282.8 -740.8,-411.8 -1477.5,-831.3 -2212.6,-1253.4 -597.13,-342.9 -1206.64,-693.8 -1737.8,-1136.6 -88.17,71.1 -177.47,141.5 -266.65,212 459.86,324 912.69,654 1378.86,966.7 z m -1721.22,-691 c 541.24,336 1084.52,704.3 1591.36,1091.3 47.13,-105.7 85.29,-215.4 113.38,-328.3 -483.87,-311.9 -959.76,-642.7 -1399.52,-1009.4 -102.76,81.4 -205.14,163 -305.22,246.4 z m 1418.09,1404.1 c 55.89,-83.4 105.89,-170.6 149.29,-261 -548.86,-338.7 -1093.3,-720.6 -1605.85,-1110.9 -69.26,58.4 -137.28,117.7 -203.43,178.3 558.23,390.6 1104.62,798.8 1659.99,1193.6 z m -1911.13,-945 c 546.51,430 1097.81,848.4 1668.43,1245.67 76.29,-79.18 146.66,-163.93 210.16,-253.47 -562.18,-390.5 -1126.03,-784 -1664.45,-1206.6 -74.27,69.4 -145.97,140.6 -214.14,214.4 z m 1381.6,1496.5 c 88.44,-64.9 172.07,-136.3 249.97,-213.46 C 8469.74,9615.6 7908.72,9200.7 7383.65,8749.9 c -62.17,69 -121.2,140.3 -176.35,214.4 505.15,454.7 1049.46,840.18 1588.55,1248.5 z m -384.76,226.4 c 115.65,-52.9 226.52,-116.1 331.19,-188.3 C 8178.4,9910.04 7653.93,9452 7179.1,9002.9 c -66.75,93.2 -127.27,190.7 -180.19,293.7 469.7,381.9 943.72,759.4 1412.18,1142.6 z m -1042.42,-307.3 c 95.06,77.5 190.55,154.6 286.43,231.2 59.94,47.9 120.05,95.5 180.28,142.9 39.3,31 60.91,58.6 82.36,87.9 119.34,-20.2 236.6,-53.4 347.37,-94.4 27.99,-10.3 55.74,-21.3 83.25,-32.8 -475.07,-349 -934.7,-731.3 -1371.99,-1125 -55.32,114.5 -98.12,239.9 -120.52,365.9 175.43,135.32 341.28,284.25 512.82,424.3 z M 7216.5,10519 c 206.52,97.8 436.37,113.4 660.68,81.2 -351.03,-263.8 -709.71,-535.7 -1030.15,-834.76 -38.43,303.06 48.13,601.36 369.47,753.56 z m 2874.4,-863.7 c 309.1,174.38 607.4,367 918.3,538.6 267.5,147.6 545,274.6 816.3,413.7 87.7,-10.7 173.9,-31.5 256.6,-64.2 45,-17.8 86,-38.3 123.2,-61.3 -707.5,-330.3 -1393.2,-713.65 -2056.6,-1123.8 -90.4,-55.9 -180.94,-112.3 -271.38,-169.2 52.73,163.4 124.58,320.2 213.58,466.2 z m 963.1,831.2 c 195.2,79 414.4,131.2 630.3,129.9 -537.2,-232.1 -1076.9,-541.7 -1542.7,-881.9 222.1,331.1 535.1,599.4 912.4,752 z m 1177.2,227.1 c -509.1,243.2 -1139.1,88.5 -1592.7,-204.4 -448.2,-289.5 -777.23,-723.66 -921.58,-1225.8 -179.7,549.75 -612.15,1052.3 -1139.05,1329.5 -2.59,2.1 -5.53,3.7 -8.65,4.5 -388.85,202.3 -828.45,281.8 -1255.53,167.2 -609.29,-163.5 -820.84,-766.5 -612.19,-1331.3 235.31,-636.9 811.56,-1106.5 1321.12,-1521.8 669.59,-545.7 1327.96,-1084.3 1573.2,-1948.7 12.48,-44 45.97,-61.2 79.08,-58.6 33.18,-2.7 66.78,14.5 79.33,58.6 426.17,1500.2 2101.67,1943.2 2794.87,3250 271.1,511.1 269.2,1200.3 -317.9,1480.8"
         style="fill:#56b4b5;fill-opacity:1;fill-rule:nonzero;stroke:none"
         transform="matrix(0.13333333,0,0,-0.13333333,0,2633.3333)" />
      <path
         id="path4"
         d="m 15736.7,8587.7 c -15.7,10.6 -31.4,21 -47.1,31.5 -32,21.4 -61.9,-30.2 -30.1,-51.4 14.8,-9.9 29.7,-19.9 44.5,-29.8 14.4,-9.6 30.1,-22.7 47.3,-26.1 21,-4.1 43.8,18.3 30,39 -10.7,16.1 -28.7,26.2 -44.6,36.8"
         style="fill:#56b4b5;fill-opacity:1;fill-rule:nonzero;stroke:none"
         transform="matrix(0.13333333,0,0,-0.13333333,0,2633.3333)" />
      <path
         id="path5"
         d="m 15769.1,8716.1 c -14.4,11.4 -33.7,13.8 -47.7,0 -12.2,-11.8 -14.1,-36.1 0,-47.7 44.6,-36.9 86.7,-79.3 141.1,-100.2 20.2,-7.7 39,19 27.9,36.3 -30.2,46.6 -78.1,77.4 -121.3,111.6"
         style="fill:#56b4b5;fill-opacity:1;fill-rule:nonzero;stroke:none"
         transform="matrix(0.13333333,0,0,-0.13333333,0,2633.3333)" />
      <path
         id="path6"
         d="m 15788.5,10556.4 c 30.9,127.4 44.3,259.5 62.3,389.2 5.9,42.8 -59.8,61.2 -65.6,18.1 -17.8,-132.7 -41,-266.8 -45.6,-400.7 -0.9,-28 42.3,-34 48.9,-6.6"
         style="fill:#56b4b5;fill-opacity:1;fill-rule:nonzero;stroke:none"
         transform="matrix(0.13333333,0,0,-0.13333333,0,2633.3333)" />
      <path
         id="path7"
         d="m 7635.5,12857.5 c 4.18,-21.9 34.64,-22.7 45.1,-5.9 20.81,33.4 15.21,76.3 10.03,113.4 -4.37,31.2 -56.08,23.7 -54.88,-7.4 1.29,-33.3 -6.56,-67.3 -0.25,-100.1"
         style="fill:#56b4b5;fill-opacity:1;fill-rule:nonzero;stroke:none"
         transform="matrix(0.13333333,0,0,-0.13333333,0,2633.3333)" />
      <path
         id="path8"
         d="m 7804.98,12780.8 c 30.83,43.6 27.76,123.2 16.93,173.2 -6.13,28.3 -53.98,30 -58.82,0 -4.54,-27.9 -4.66,-56.2 -7.36,-84.3 -2.64,-27.6 -6.8,-55.8 1.59,-82.7 7.03,-22.6 34.84,-24.3 47.66,-6.2"
         style="fill:#56b4b5;fill-opacity:1;fill-rule:nonzero;stroke:none"
         transform="matrix(0.13333333,0,0,-0.13333333,0,2633.3333)" />
      <path
         id="path9"
         d="m 4380.39,6797.9 c 11.51,1.4 21.64,7.1 24.94,19 2.77,10.1 -1.6,24.6 -11.88,29.2 -32.69,14.5 -68.66,14.2 -103.94,17.5 -29.41,2.7 -35.96,-45.7 -6.98,-51.7 31.66,-6.5 65.49,-18 97.86,-14"
         style="fill:#56b4b5;fill-opacity:1;fill-rule:nonzero;stroke:none"
         transform="matrix(0.13333333,0,0,-0.13333333,0,2633.3333)" />
      <path
         id="path10"
         d="m 4425.11,6741.6 c -23.11,6.1 -46.63,6.9 -70.36,6.8 -33.86,-0.3 -33.92,-52.4 0,-52.7 23.71,-0.1 47.25,0.7 70.36,6.8 19.26,5.1 19.28,34 0,39.1"
         style="fill:#56b4b5;fill-opacity:1;fill-rule:nonzero;stroke:none"
         transform="matrix(0.13333333,0,0,-0.13333333,0,2633.3333)" />
      <path
         id="path11"
         d="m 3403.43,9066.9 c -4.34,21.6 -36.18,12.2 -32.76,-9.1 76.83,-477.3 189.82,-945.5 381.67,-1390.6 11.94,-27.7 58.78,-8 48.94,20.6 -156.41,454 -303.36,907.4 -397.85,1379.1"
         style="fill:#56b4b5;fill-opacity:1;fill-rule:nonzero;stroke:none"
         transform="matrix(0.13333333,0,0,-0.13333333,0,2633.3333)" />
      <path
         id="path12"
         d="m 3721.88,10365.5 c -5.33,4.4 -9.39,9.9 -14.88,14.3 -8.11,6.5 -16.51,9.3 -26.14,12.6 -14.91,5 -29.91,8.9 -45.2,12.7 -42.56,10.5 -58.66,-50.9 -17.95,-65.1 27.89,-9.8 58.44,-23.4 87.45,-14.2 h 0.24 c 17.62,1.8 33.81,25.6 16.48,39.7"
         style="fill:#56b4b5;fill-opacity:1;fill-rule:nonzero;stroke:none"
         transform="matrix(0.13333333,0,0,-0.13333333,0,2633.3333)" />
      <path
         id="path13"
         d="m 3687.03,10191.9 c -30.01,12.8 -59.58,20.1 -91.42,26.9 -27.11,5.8 -48.55,-34.9 -20.1,-47.7 29.23,-13.1 57.38,-26 88.73,-33.3 13.38,-3.1 25.98,2.2 33.4,13.6 3.05,4.7 3.74,9.5 4.05,14.9 0.5,9.3 -5.78,21.8 -14.66,25.6"
         style="fill:#56b4b5;fill-opacity:1;fill-rule:nonzero;stroke:none"
         transform="matrix(0.13333333,0,0,-0.13333333,0,2633.3333)" />
      <path
         id="path14"
         d="m 12295.5,4594.8 c -12.1,34.7 -48.6,61.4 -86.5,49.2 -32.7,-10.6 -64.1,-50.1 -49.1,-86.5 8.3,-20.3 16.5,-40.4 24.8,-60.7 5.9,-14.3 11.1,-27.8 20.7,-40.1 5.8,-7.5 13,-13.9 21.1,-18.9 2,-1.2 23.4,-13.1 13.3,-6.9 29.2,-17.9 66.6,-0.4 76,30.9 -3.5,-8.4 -1.9,-4.5 4.9,11.5 1.9,7.9 3.2,15.8 3.7,23.8 0,13.9 -4,27 -8.6,39.8 -6.7,19.3 -13.5,38.7 -20.3,57.9"
         style="fill:#56b4b5;fill-opacity:1;fill-rule:nonzero;stroke:none"
         transform="matrix(0.13333333,0,0,-0.13333333,0,2633.3333)" />
      <path
         id="path15"
         d="m 18543.5,13538.6 c -26.2,12.8 -49.2,-25.6 -23.1,-39.4 938,-493.9 1482.9,-1491.1 1417.6,-2543.6 -2.1,-34.5 49.7,-33.4 53.1,0 107.9,1058 -497.3,2118.3 -1447.6,2583"
         style="fill:#56b4b5;fill-opacity:1;fill-rule:nonzero;stroke:none"
         transform="matrix(0.13333333,0,0,-0.13333333,0,2633.3333)" />
      <path
         id="path16"
         d="m 19888.4,10660.4 c -17.5,12.2 -35.1,24.3 -52.6,36.3 -30.9,21.4 -60.1,-29 -29.4,-50.2 17.6,-12.1 35.1,-24.3 52.7,-36.3 17.5,-12 34.1,-24.2 55.6,-26.7 19,-2.1 27.6,21.2 20.3,35.4 -9.3,18.3 -30.1,30.1 -46.6,41.5"
         style="fill:#56b4b5;fill-opacity:1;fill-rule:nonzero;stroke:none"
         transform="matrix(0.13333333,0,0,-0.13333333,0,2633.3333)" />
      <path
         id="path17"
         d="m 19970.8,10770.1 c -7.6,7.6 -19.1,11.2 -28,17.1 -6,3.9 -11.9,8.2 -17.4,12.7 l -9.5,8.8 c -1.8,1.6 -19,12.9 -13.4,8.3 -10.3,8.5 -23.7,11.7 -35.8,4.7 -10.7,-6.3 -18.1,-21.3 -13.6,-33.4 4.8,-13.1 7.9,-23.5 17.8,-35.6 8.2,-10 17.1,-18.3 27.7,-25.8 22,-15.8 46.2,-25.8 72.2,-16.6 15,5.3 26.9,24.4 16.1,39.6 -4.7,6.7 -10.4,14.4 -16.1,20.2"
         style="fill:#56b4b5;fill-opacity:1;fill-rule:nonzero;stroke:none"
         transform="matrix(0.13333333,0,0,-0.13333333,0,2633.3333)" />
      <path
         id="path18"
         d="m 19890.1,10406.8 c -163.9,-511.3 -389.8,-965.8 -695.4,-1405.9 -17.8,-25.7 23,-57.4 43.5,-33.6 347.7,403.6 592.3,905.14 695.9,1427.4 5.7,28.6 -34.9,40.3 -44,12.1"
         style="fill:#56b4b5;fill-opacity:1;fill-rule:nonzero;stroke:none"
         transform="matrix(0.13333333,0,0,-0.13333333,0,2633.3333)" />
      <path
         id="path19"
         d="m 18672.5,9846.09 c -416.6,-630.29 -1065.9,-922.39 -1777,-1106.29 -40.9,-10.6 -23.5,-73.7 17.5,-63.3 696.6,177.3 1445.8,473.3 1800.5,1145.62 14.3,27.17 -24.2,49.46 -41,23.97"
         style="fill:#56b4b5;fill-opacity:1;fill-rule:nonzero;stroke:none"
         transform="matrix(0.13333333,0,0,-0.13333333,0,2633.3333)" />
      <path
         id="path20"
         d="m 18801.9,10015 c -14.8,11.8 -29.7,23.3 -44.5,34.9 -13.8,10.7 -32.4,13.4 -45.8,0 -11.5,-11.5 -13.5,-34.5 0,-45.8 15.1,-12.67 30.2,-25.52 45.5,-38 16.1,-13.11 33.7,-29.52 55.9,-28.47 18,0.86 27.7,15.75 24.9,32.71 -3.3,19.51 -21.5,33.06 -36,44.66"
         style="fill:#56b4b5;fill-opacity:1;fill-rule:nonzero;stroke:none"
         transform="matrix(0.13333333,0,0,-0.13333333,0,2633.3333)" />
      <path
         id="path21"
         d="m 18093.2,12463.2 c -31.7,5.4 -45.3,-39.2 -13.5,-49 265.4,-81.9 478,-244.5 623.8,-481 14.1,-22.8 45.1,-2.9 35,20.4 -114.6,266.2 -359.2,460.8 -645.3,509.6"
         style="fill:#56b4b5;fill-opacity:1;fill-rule:nonzero;stroke:none"
         transform="matrix(0.13333333,0,0,-0.13333333,0,2633.3333)" />
      <path
         id="path22"
         d="m 7803.72,13743.3 c -51.13,0.2 -51.07,-78.3 0,-79.3 1350.37,-27.3 2707.78,3.5 4055.18,100.2 1284.5,92.2 2606.2,261.7 3809.4,742.9 56.7,22.6 35.3,113.4 -25.9,94 -2521.2,-800.1 -5211.9,-866.4 -7838.68,-857.8"
         style="fill:#56b4b5;fill-opacity:1;fill-rule:nonzero;stroke:none"
         transform="matrix(0.13333333,0,0,-0.13333333,0,2633.3333)" />
      <path
         id="path23"
         d="m 3542.65,14770.7 c 1600.59,371.7 3234.74,595.7 4876.19,670.5 1618.96,73.8 3219.66,-34.2 4827.46,-217.7 49.6,-5.7 61.6,79.7 11.9,87.9 -3209.9,526.7 -6584.43,294.9 -9734.79,-470.9 -45.27,-11 -26.09,-80.3 19.24,-69.8"
         style="fill:#56b4b5;fill-opacity:1;fill-rule:nonzero;stroke:none"
         transform="matrix(0.13333333,0,0,-0.13333333,0,2633.3333)" />
    </g>
  </g>
</svg>
