<?xml version="1.0" encoding="UTF-8" standalone="no"?>
<!-- Created with Inkscape (http://www.inkscape.org/) -->

<svg
   width="800"
   height="441.078"
   viewBox="0 0 800.00001 441.07801"
   version="1.1"
   id="svg1"
   inkscape:export-filename="firstBodyImage.svg"
   inkscape:export-xdpi="96"
   inkscape:export-ydpi="96"
   sodipodi:docname="firstBodyImage.svg"
   inkscape:version="1.3 (0e150ed, 2023-07-21)"
   xml:space="preserve"
   xmlns:inkscape="http://www.inkscape.org/namespaces/inkscape"
   xmlns:sodipodi="http://sodipodi.sourceforge.net/DTD/sodipodi-0.dtd"
   xmlns="http://www.w3.org/2000/svg"
   xmlns:svg="http://www.w3.org/2000/svg"><sodipodi:namedview
     id="namedview1"
     pagecolor="#ffffff"
     bordercolor="#000000"
     borderopacity="0.25"
     inkscape:showpageshadow="2"
     inkscape:pageopacity="0.0"
     inkscape:pagecheckerboard="0"
     inkscape:deskcolor="#d1d1d1"
     inkscape:document-units="px"
     inkscape:zoom="1.020386"
     inkscape:cx="341.53742"
     inkscape:cy="332.22722"
     inkscape:window-width="1512"
     inkscape:window-height="1057"
     inkscape:window-x="218"
     inkscape:window-y="32"
     inkscape:window-maximized="0"
     inkscape:current-layer="layer3"
     showguides="true" /><defs
     id="defs1"><rect
       x="546.27716"
       y="188.59567"
       width="459.56534"
       height="106.30452"
       id="rect1" /><rect
       x="546.27716"
       y="188.59567"
       width="457.60529"
       height="107.28454"
       id="rect1-4" /><rect
       x="546.27716"
       y="188.59567"
       width="457.60529"
       height="107.28454"
       id="rect27" /></defs><g
     inkscape:label="Capa 1"
     inkscape:groupmode="layer"
     id="layer1"
     transform="translate(-479.80621,-225.77759)"
     style="display:inline"><text
       xml:space="preserve"
       style="font-style:normal;font-variant:normal;font-weight:normal;font-stretch:normal;font-size:26.6667px;font-family:'Heiti TC';-inkscape-font-specification:'Heiti TC';display:none;fill:#584e48;fill-opacity:1;stroke:none;stroke-opacity:1"
       x="687.56622"
       y="716.71094"
       id="text3-5"><tspan
         sodipodi:role="line"
         id="tspan3-3"
         x="0"
         y="0"
         style="font-size:26.6667px;fill:#584e48;fill-opacity:1">The community for cups and mugs lovers!</tspan></text><path
       style="font-size:85.3333px;line-height:0;font-family:SignPainter;-inkscape-font-specification:SignPainter;letter-spacing:7.82px;word-spacing:0px;white-space:pre;display:inline;fill:#aeaaa5;stroke-width:1.23219"
       d="m 644.06429,551.24055 c 0,2.52352 0.94632,4.7316 2.41837,5.67793 1.47206,0.94632 2.94412,0.63088 3.575,-0.73603 3.68013,-7.88601 6.7294,-14.40512 10.61982,-21.97568 5.78308,-1.47206 13.24849,-2.41838 18.08526,-2.83896 2.31322,-0.2103 2.52352,-1.15662 2.10292,-2.62867 -0.94632,-3.3647 -3.78528,-5.57279 -9.77864,-5.1522 -1.5772,0.1051 -3.04926,0.21029 -5.04705,0.52573 4.9419,-9.04262 9.04262,-16.29775 12.51247,-22.08082 10.09409,-1.7875 15.24629,-2.94411 20.60877,-2.83896 2.20809,0 2.73381,-1.15662 2.20809,-2.31323 -1.47206,-3.575 -4.41617,-5.67793 -9.46322,-5.67793 -2.52352,0 -5.99337,0.42058 -9.6735,1.05146 -5.04705,0.84118 -9.56836,1.47206 -15.66688,1.47206 -1.99779,0 -2.62867,0.63089 -2.31323,1.99779 0.42059,1.89264 1.57721,3.99558 3.99559,5.36249 -9.25292,14.82569 -19.87276,34.80359 -22.92201,43.74106 -0.84117,2.62867 -1.26176,4.83675 -1.26176,6.41396 z m 50.43245,-20.29333 c -3.78529,5.25734 -5.67793,11.14555 -5.67793,15.66687 0,6.20366 3.3647,10.72497 9.56836,10.72497 4.20588,0 8.93747,-3.25955 11.98673,-6.20366 0.84118,3.89043 3.89043,6.62425 9.14778,6.62425 6.41395,0 13.14335,-5.57278 15.87716,-11.35585 1.47206,-3.04927 0.84117,-5.88822 0.42059,-6.83454 -1.05146,-2.20808 -1.99778,-2.10294 -3.1544,0 -3.46985,6.83454 -8.72718,13.98451 -12.51247,13.98451 -1.05148,0 -1.47206,-0.94632 -1.47206,-2.52352 0,-7.04484 8.83234,-18.50584 11.56614,-24.28891 2.73383,-5.46763 1.78751,-10.09408 0,-12.19702 -1.26176,-1.47206 -3.04925,-1.36691 -4.31101,0.73602 l -1.99778,3.25956 c -0.94632,-2.73382 -3.25956,-4.62646 -7.04485,-4.62646 -5.36248,0 -13.98451,4.9419 -22.39626,17.03378 z m 5.25734,21.76539 c -1.05147,0 -1.47206,-1.26177 -1.47206,-3.15441 0,-3.3647 1.7875,-8.93748 4.94191,-13.87938 5.36247,-8.62204 12.61761,-15.24628 14.72055,-15.24628 1.05146,0 1.26176,0.73603 1.26176,1.99779 0,2.73381 -1.89264,7.88601 -5.99337,15.03599 -5.15219,8.83233 -9.98894,15.24629 -13.45879,15.24629 z m 59.58039,-37.74771 c -1.05146,-1.89264 -2.62866,-1.99779 -3.99557,0 -6.51911,9.77866 -14.6154,24.4992 -16.61319,30.38743 -0.63088,2.10293 -0.94632,3.89043 -0.94632,5.46763 0,2.52353 0.84117,4.31101 2.31323,5.78307 1.68234,1.68235 3.04926,1.05147 3.78528,-0.63088 4.31103,-9.46321 9.04262,-19.76759 14.82569,-25.86611 5.78309,-6.5191 10.93528,-9.46321 11.8816,-9.46321 0.73602,0 -0.94632,2.73382 -3.15441,6.20367 -4.10072,6.51909 -8.93747,16.19259 -8.93747,21.87052 0,5.46763 3.04925,9.04263 10.09408,9.04263 6.30881,0 13.98453,-5.57278 16.92865,-11.35585 1.47204,-2.83897 1.3669,-6.09852 0.52572,-7.36028 -0.94632,-1.47206 -2.41837,-1.5772 -3.46984,0.42058 -3.78529,7.04484 -9.25292,13.87939 -12.82791,13.87939 -1.3669,0 -2.10293,-1.36692 -2.10293,-3.57499 0,-3.89044 3.57499,-10.83012 6.93968,-16.19261 3.3647,-5.88823 5.25735,-9.25292 5.25735,-11.56616 0,-3.99557 -2.83897,-7.67571 -5.88823,-7.67571 -3.78529,0 -8.83232,3.46984 -13.35364,7.67571 0.1051,-0.63088 0.1051,-1.3669 0.1051,-2.10293 0,-1.68234 -0.42059,-3.3647 -1.36692,-4.9419 z m 37.07882,15.98232 c -3.78529,5.25734 -5.67793,11.14555 -5.67793,15.66687 0,6.20366 3.3647,10.72497 9.56836,10.72497 4.20586,0 8.93747,-3.25955 11.98673,-6.20366 0.84117,3.89043 3.89043,6.62425 9.14777,6.62425 6.41395,0 13.14336,-5.57278 15.87717,-11.35585 1.47206,-3.04927 0.84117,-5.88822 0.42058,-6.83454 -1.05147,-2.20808 -1.99779,-2.10294 -3.15439,0 -3.46985,6.83454 -8.7272,13.98451 -12.51248,13.98451 -1.05147,0 -1.47205,-0.94632 -1.47205,-2.52352 0,-7.04484 8.83232,-18.50584 11.56614,-24.28891 2.73383,-5.46763 1.78751,-10.09408 0,-12.19702 -1.26176,-1.47206 -3.04926,-1.36691 -4.31102,0.73602 l -1.99779,3.25956 c -0.94632,-2.73382 -3.25954,-4.62646 -7.04483,-4.62646 -5.36249,0 -13.98452,4.9419 -22.39626,17.03378 z m 5.25733,21.76539 c -1.05146,0 -1.47205,-1.26177 -1.47205,-3.15441 0,-3.3647 1.78749,-8.93748 4.9419,-13.87938 5.36248,-8.62204 12.61762,-15.24628 14.72054,-15.24628 1.05148,0 1.26177,0.73603 1.26177,1.99779 0,2.73381 -1.89265,7.88601 -5.99336,15.03599 -5.1522,8.83233 -9.98895,15.24629 -13.4588,15.24629 z m 41.39002,-7.04484 c 0,7.25512 4.83675,11.77644 10.40953,11.77644 8.83233,0 15.87716,-9.04263 17.34922,-12.19703 1.15661,-2.41837 1.57721,-3.99558 1.05147,-6.20366 -0.73603,-2.83896 -3.15441,-2.62867 -4.31101,-0.1051 -3.68015,7.886 -9.14778,14.51025 -13.2485,14.51025 -1.78751,0 -2.83897,-2.20809 -2.83897,-5.36249 0,-2.31323 0.63088,-5.04705 1.89264,-7.886 3.68015,-7.99117 9.6735,-18.4007 13.66909,-25.23524 2.31322,-0.31544 5.04705,-0.52573 6.93969,-0.31544 2.52352,0.31544 3.25955,-0.94633 2.20808,-2.83897 -0.73603,-1.26175 -2.52352,-2.94411 -5.78307,-3.36469 1.26175,-2.94411 1.68235,-5.36249 1.68235,-7.25513 0,-1.26176 -0.4206,-3.04925 -1.15662,-4.31101 -1.15661,-1.9978 -2.41837,-2.10294 -3.99557,0.21028 -2.41839,3.46985 -4.62647,6.93969 -7.88602,12.61762 -2.31322,0.2103 -5.15219,0.31544 -7.57057,0.2103 -2.41837,-0.10511 -3.46985,0.94632 -1.99779,3.15439 0.84118,1.26177 2.73381,2.41838 5.99337,2.83897 -4.20586,7.57057 -8.20145,15.87717 -10.30439,21.02936 -1.47205,3.46984 -2.10293,6.41395 -2.10293,8.72719 z m 49.17078,-36.1705 c 0,3.25955 2.83897,6.41395 6.20367,6.41395 2.62867,0 4.20587,-2.41837 4.20587,-5.25733 0,-3.04927 -2.83897,-6.83455 -5.78307,-6.83455 -2.41838,0 -4.62647,2.73382 -4.62647,5.67793 z m 7.78087,36.90653 c 1.36691,-2.73383 1.47205,-5.36249 0.52574,-7.14998 -0.94632,-1.89264 -2.31324,-2.10294 -3.1544,-0.2103 -3.25956,7.14998 -8.7272,14.19481 -12.93307,14.19481 -1.15661,0 -1.5772,-0.94632 -1.5772,-2.62867 0,-1.68234 0.52574,-3.89042 1.47206,-6.30881 1.78749,-4.20586 6.62425,-12.09188 8.62204,-16.61319 2.73381,-5.25733 1.89264,-9.77864 -0.10511,-11.88158 -1.3669,-1.5772 -2.62866,-1.36691 -4.20587,0.73602 -3.89043,5.46763 -10.61982,17.66467 -13.24849,25.02495 -0.84117,2.7338 -1.26176,4.94189 -1.26176,6.93969 0,5.25733 2.83897,8.93747 9.25292,8.93747 6.20365,0 13.45879,-4.41616 16.61319,-11.04041 z m 29.19285,-32.17492 c -6.09851,0 -14.40511,5.67792 -19.7676,16.50804 -2.20808,4.20587 -3.25956,8.41174 -3.25956,12.19703 0,8.41174 5.36249,14.61541 15.03601,14.51026 8.20144,-0.1051 16.71833,-5.25734 20.71391,-11.56615 1.89265,-2.94411 1.89265,-5.67792 1.36691,-7.04484 -0.63088,-1.78748 -2.20808,-1.3669 -3.15441,0.2103 -4.20587,6.30881 -11.461,14.40511 -19.34701,14.29997 -2.83896,-0.10511 -4.73161,-2.94411 -4.73161,-7.57058 0,-3.1544 1.05148,-7.46541 3.15441,-11.77644 4.20588,-8.51689 11.04042,-15.35143 12.30218,-14.29996 0.42058,0.42059 -0.31544,2.31322 -1.36691,4.41616 -1.89264,4.31103 -2.41838,6.41396 -2.41838,7.78086 0,2.83897 1.7875,4.83676 3.68014,5.99337 2.10293,1.05148 3.04925,0.84118 3.78528,-1.15661 0.42059,-1.15661 1.05148,-2.73382 1.89264,-4.31102 1.9978,-4.10073 3.68015,-7.99116 2.10294,-11.461 -1.68234,-3.15441 -6.09851,-6.72939 -9.98894,-6.72939 z m 65.36342,32.17492 c 1.57719,-3.04927 1.1566,-6.09852 0.73602,-7.04484 -0.84118,-1.99778 -2.62867,-1.68234 -3.68014,0.10511 -3.78529,6.62425 -9.14777,13.87938 -12.61761,13.87938 -1.36692,0 -1.9978,-1.05148 -1.9978,-2.94411 0,-4.10072 4.10073,-11.25071 7.14999,-16.19261 3.68013,-6.09851 5.88821,-10.72497 5.88821,-14.29996 0,-2.31323 -0.52572,-3.99559 -1.5772,-5.46763 -1.26176,-1.7875 -2.94411,-1.36692 -4.41615,0.63088 -3.78529,4.83675 -6.51911,11.98672 -12.72277,22.08082 -5.36249,8.41174 -10.93527,15.56173 -13.66908,15.56173 -2.31323,0 -1.99779,-3.89043 -0.10511,-8.09631 3.68015,-8.0963 11.35586,-20.29333 11.35586,-24.60435 0,-1.5772 -0.42058,-3.36469 -1.5772,-4.83675 -1.26176,-1.5772 -3.15441,-1.7875 -4.52131,0 -6.51911,9.14777 -11.88159,19.66245 -14.19482,26.28669 -0.94633,2.52353 -1.36691,4.94191 -1.36691,7.25513 0,4.52131 2.10294,8.5169 7.46543,8.5169 5.36248,0 10.09408,-3.25955 13.66907,-7.25513 0.4206,4.7316 3.575,7.78087 9.77866,7.78087 6.51911,0 13.35364,-5.36249 16.4029,-11.35586 z m 22.46354,-15.24629 c 4.5213,-7.67572 10.3044,-12.51247 12.1971,-11.67129 0.5257,0.21029 0.736,1.47205 0.736,3.36469 0,3.46985 -1.2618,8.83234 -3.7853,13.77423 -4.311,8.72719 -9.0426,14.51026 -12.3022,14.51026 -2.7338,0 -3.4698,-7.57057 -0.2103,-14.29996 z m 21.8706,-5.15219 c 0,-5.36249 -3.0493,-11.04042 -9.3581,-11.04042 -2.839,0 -5.8882,1.36692 -8.5169,3.1544 0,-1.3669 -0.2103,-2.73381 -1.0515,-3.89042 -0.8411,-1.15662 -2.208,-1.57721 -4.1007,0.73602 -6.5191,8.72719 -23.86832,41.42784 -26.91757,51.41679 -0.94632,2.94411 -1.26176,5.15219 -1.26176,6.83454 0,2.20808 0.52572,3.68014 2.10293,5.67793 1.05147,1.26176 2.31323,0.84117 3.1544,-1.05147 4.41617,-10.30439 8.9375,-19.34701 13.5639,-27.96905 2.4184,5.67793 7.5706,8.51689 15.8772,8.51689 8.7272,0 17.5595,-2.94411 22.2911,-11.461 1.7875,-3.1544 1.6824,-6.09851 1.4721,-7.14999 -0.4206,-2.10292 -2.6287,-2.62866 -3.8904,-0.21028 -3.0493,6.09851 -9.0427,13.03819 -16.8235,14.61539 3.3647,-2.73381 6.8345,-7.46541 9.358,-13.24849 2.4184,-5.04704 4.1008,-10.40953 4.1008,-14.93084 z m 25.0922,26.60213 c -2.3132,0 -4.5213,-3.68013 -5.783,-8.62204 3.1544,-4.52131 6.0985,-9.04262 8.622,-13.03819 0.2103,2.83895 0.3155,6.20366 0.3155,9.56836 0,6.83454 -0.9464,12.09187 -3.1545,12.09187 z m -14.4051,-10.09408 c 0,2.41837 0.6309,4.94189 1.7875,6.93969 3.575,6.62424 9.8838,8.30659 16.1926,8.0963 7.886,-0.31544 15.2463,-4.31103 19.2419,-11.6713 1.8926,-3.25955 1.5772,-6.20366 1.0515,-7.25512 -0.7361,-1.68236 -2.3133,-2.41838 -3.2596,0 -1.8926,5.15219 -4.8367,8.62203 -9.1478,11.56614 1.1567,-2.31322 1.6824,-5.25734 1.7875,-7.88601 0.2103,-5.67793 -1.1566,-12.51247 -1.1566,-19.9779 0,-1.3669 0.1051,-3.15439 0.2103,-4.41615 3.2596,-5.36249 2.6287,-7.67572 -0.2103,-7.67572 -1.5772,0 -3.4698,0.73603 -5.1522,2.20808 -2.4183,1.99779 -3.6801,4.41616 -4.1007,8.20145 -2.7338,4.52131 -6.4139,9.98895 -9.8838,14.93085 -0.3154,-2.52353 -1.8926,-3.04927 -3.9956,-1.26177 -2.3132,1.99779 -3.3647,5.04705 -3.3647,8.20146 z"
       id="text1"
       inkscape:label="text1"
       aria-label="Fanaticups" /><text
       xml:space="preserve"
       id="text27"
       style="font-size:85.3333px;white-space:pre;shape-inside:url(#rect27);display:none;fill:#e74a61;fill-opacity:1;stroke:none;stroke-opacity:1"
       transform="translate(175.7022,347.24856)"
       inkscape:label="text1"><tspan
         x="546.27734"
         y="272.649"
         id="tspan4"><tspan
           style="font-family:'Heiti TC';-inkscape-font-specification:'Heiti TC'"
           id="tspan3">Fanaticups</tspan></tspan></text><text
       xml:space="preserve"
       style="font-style:normal;font-variant:normal;font-weight:normal;font-stretch:normal;font-size:26.6667px;font-family:'Heiti TC';-inkscape-font-specification:'Heiti TC';display:none;fill:#e74a61;fill-opacity:1;stroke:none;stroke-opacity:1"
       x="687.56622"
       y="670.71094"
       id="text28"><tspan
         sodipodi:role="line"
         id="tspan28"
         x="0"
         y="0"
         style="font-size:26.6667px">The community for cups and mugs lovers!</tspan></text><path
       d="m 785.19031,469.21779 v -13.83155 h 165.1357 v 13.83155 z M 930.5235,337.03849 h 24.17798 q 1.58789,0 2.69958,-1.00568 1.11178,-1.00568 1.11178,-2.48775 v -34.156 q 0,-1.48207 -1.11178,-2.48808 -1.11169,-1.00568 -2.69958,-1.00568 H 930.5235 Z m -107.28844,92.09489 q -15.88348,0 -26.96407,-10.88196 -11.08068,-10.88188 -11.08068,-26.5203 V 282.06381 h 49.76678 v 24.74237 l -18.3347,14.90435 q -0.66319,0.55024 -2.3146,4.70005 v 37.33159 q 0,2.35424 1.74983,4.19056 1.7504,1.83632 4.38994,1.83632 h 38.64459 q 2.63888,0 4.38928,-1.83632 1.75049,-1.83632 1.75049,-4.19056 v -37.32003 q 0,-0.74556 -2.31526,-4.71161 l -18.22115,-14.90435 v -24.74237 h 110.00597 q 7.23558,0 12.4394,5.07239 5.20374,5.0722 5.20374,12.25286 v 34.156 q 0,7.18066 -5.20374,12.25279 -5.20382,5.0722 -12.4394,5.0722 H 930.5235 v 40.86107 q 0,15.63842 -11.08002,26.5203 -11.08059,10.88196 -26.9641,10.88196 z"
       id="path1"
       style="fill:#aeaaa5;fill-opacity:1;stroke:#1c0104;stroke-width:0.275227;stroke-opacity:1" /></g><g
     inkscape:groupmode="layer"
     id="layer3"
     inkscape:label="slogan"
     style="display:inline"><path
       style="font-size:64px;line-height:0;font-family:'Savoye LET';-inkscape-font-specification:'Savoye LET';letter-spacing:2.82117px;fill:#aeaaa5;stroke-width:1.10639"
       d="m 11.968559,406.55392 1.15625,-2.8125 q 2.9375,1.25 6.4375,1.25 4.09375,0 7.25,-2.1875 3.1875,-2.21875 5.6875,-6.75 0.8125,-1.5 1.59375,-3.40625 0.78125,-1.9375 1.9375,-5.40625 0.96875,-2.875 1.875,-6.1875 0.9375,-3.34375 1.5625,-6.09375 0.65625,-2.75 1.25,-6.125 l 3.34375,-1.5 -0.21875,-0.0312 -0.625,-0.0937 q -7.09375,-0.875 -13.625,-0.875 -3.34375,0 -5.625,0.4375 -2.28125,0.4375 -3.875,1.40625 -2.1875,1.375 -2.1875,3.53125 0,4.40625 11,5 l -2.125,2.21875 q -3,-0.1875 -5.21875,-1.09375 -2.21875,-0.90625 -3.4375,-2.40625 -1.1875,-1.5 -1.1875,-3.40625 0,-3.84375 4.84375,-6.1875 4.09375,-1.96875 12.03125,-1.96875 2.15625,0 5.5,0.25 3.375,0.25 6.96875,0.65625 3.59375,0.375 5.96875,0.8125 l 0.5625,0.0937 -1.40625,2.8125 -0.5625,-0.0937 q -2.75,-0.5 -6.40625,-1.03125 l -0.21875,-0.0312 -0.09375,0.4375 -0.09375,0.4375 q -2.46875,11.28125 -5.09375,18.59375 -2.625,7.28125 -5.90625,11.65625 -3.28125,4.375 -7.65625,6.34375 -4.34375,1.96875 -10.28125,1.96875 -1.5625,0 -3.125,-0.21875 z m 37.571171,-0.90625 8.3125,-42.75 3.28125,-1.59375 -8.65625,38.0625 q 0.125,-0.21875 0.125,-0.28125 l 0.71875,-1.625 q 1.84375,-4.1875 4.625,-7.25 2.625,-2.84375 4.84375,-2.84375 1.1875,0 1.90625,0.78125 0.71875,0.75 0.71875,2.03125 0,0.71875 -0.34375,2.03125 l -0.3125,1.3125 -0.96875,3.8125 -0.28125,1.21875 q -0.46875,1.875 -0.46875,2.875 0,1 0.34375,1.625 0.34375,0.59375 0.90625,0.59375 0.96875,0 3.09375,-2.3125 l 0.46875,0.4375 -0.28125,0.34375 q -1.78125,2.09375 -2.65625,2.84375 -0.84375,0.71875 -1.53125,0.71875 -0.96875,0 -1.65625,-1.03125 -0.6875,-1.03125 -0.6875,-2.40625 0,-0.84375 0.40625,-2.96875 l 1.1875,-6.625 q 0.28125,-1.46875 0.28125,-2.1875 0,-0.65625 -0.34375,-1 -0.34375,-0.34375 -0.9375,-0.34375 -1.15625,0 -2.65625,1.375 -1.5,1.34375 -3.03125,3.75 -1.5,2.40625 -2.625,5.15625 -1.125,2.71875 -1.6875,5.59375 z m 35.664921,-5.15625 0.5625,0.46875 q -1.9375,2.5625 -3.78125,3.71875 -1.84375,1.125 -3.96875,1.125 -2.53125,0 -4.0625,-1.6875 -1.53125,-1.6875 -1.53125,-4.46875 0,-2.8125 1.46875,-5.6875 1.5,-2.90625 3.71875,-4.78125 2.25,-1.90625 4.4375,-1.90625 1.28125,0 2.09375,0.75 0.84375,0.75 0.84375,1.9375 0,2.40625 -2.625,4.8125 -2.625,2.40625 -7.15625,4.09375 -0.03125,0.25 -0.03125,0.5625 0,2.15625 1.1875,3.53125 1.1875,1.34375 3.0625,1.34375 1.46875,0 2.84375,-0.90625 1.375,-0.9375 2.9375,-2.90625 z m -10,-2.375 q 3.375,-1.5 5.1875,-3.34375 1.21875,-1.25 1.96875,-2.6875 0.75,-1.4375 0.75,-2.59375 0,-1.46875 -1.34375,-1.46875 -2.03125,0 -4.125,3.21875 -2.0625,3.1875 -2.4375,6.875 z m 42.579839,2.53125 q -1.90625,2.6875 -3.71875,3.9375 -1.78125,1.21875 -3.96875,1.21875 -2.40625,0 -3.9375,-1.6875 -1.5,-1.6875 -1.5,-4.375 0,-2.8125 1.46875,-5.71875 1.46875,-2.90625 3.75,-4.8125 2.3125,-1.90625 4.4375,-1.90625 1.4375,0 2.3125,0.8125 0.875,0.78125 0.875,2.125 0,1.21875 -0.9375,2.34375 -0.90625,1.09375 -1.96875,1.09375 -0.46875,0 -0.84375,-0.375 2.03125,-0.90625 2.03125,-3.375 0,-0.875 -0.46875,-1.34375 -0.4375,-0.5 -1.1875,-0.5 -1.15625,0 -2.34375,0.9375 -1.15625,0.9375 -2.1875,2.625 -1.03125,1.65625 -1.625,3.5625 -0.5625,1.875 -0.5625,3.8125 0,2.3125 1.09375,3.75 1.09375,1.4375 2.875,1.4375 1.53125,0 2.96875,-0.96875 1.4375,-0.96875 3,-2.96875 z m 4.97742,-1.3125 q 0,-2.8125 1.5,-5.59375 1.53125,-2.8125 3.9375,-4.5625 2.40625,-1.75 4.90625,-1.75 2.625,0 4.21875,1.75 1.625,1.71875 1.625,4.46875 0,3 -1.5,5.8125 -1.46875,2.8125 -3.90625,4.625 -2.40625,1.78125 -4.875,1.78125 -2.65625,0 -4.28125,-1.78125 -1.625,-1.8125 -1.625,-4.75 z m 13.375,-6.875 q 0,-1.875 -0.9375,-3.09375 -0.90625,-1.21875 -2.34375,-1.21875 -1.3125,0 -2.53125,0.84375 -1.1875,0.84375 -2.1875,2.46875 -1.125,1.875 -1.875,4.375 -0.71875,2.5 -0.71875,4.4375 0,2.3125 0.90625,3.5625 0.90625,1.25 2.59375,1.25 2.71875,0 4.78125,-3.78125 1.0625,-1.9375 1.6875,-4.34375 0.625,-2.40625 0.625,-4.5 z m 20.78992,12.53125 -2.0625,0.65625 2.46875,-12.71875 q 0,0 0.21875,-1.09375 0.1875,-0.90625 0.1875,-1.5 0,-1.375 -1.09375,-1.375 -1.03125,0 -2.5,1.40625 -1.46875,1.375 -3.09375,4 -1.0625,1.6875 -1.84375,3.25 -0.75,1.5625 -1.40625,3.34375 -0.625,1.75 -1.21875,4.03125 l -1.9375,0.65625 3.21875,-17.3125 3,-1.28125 -2.71875,11.34375 q 2.09375,-4.84375 4.78125,-7.9375 2.71875,-3.125 4.875,-3.125 2.34375,0 2.34375,2.65625 0,0.90625 -0.46875,3.21875 l -1.03125,4.65625 q 3.03125,-5.8125 5.125,-8.1875 2.09375,-2.40625 4.15625,-2.40625 1.15625,0 1.8125,0.6875 0.65625,0.6875 0.65625,1.96875 0,1.03125 -0.625,3.5625 l -0.96875,3.84375 -0.3125,1.21875 q -0.4375,1.9375 -0.4375,2.875 0,1 0.34375,1.625 0.34375,0.59375 0.875,0.59375 1,0 3.125,-2.3125 l 0.46875,0.4375 -0.28125,0.34375 q -1.78125,2.09375 -2.65625,2.84375 -0.84375,0.71875 -1.5625,0.71875 -0.96875,0 -1.65625,-0.96875 -0.65625,-1 -0.65625,-2.46875 0,-0.90625 0.40625,-2.96875 l 1.15625,-6.46875 0.1875,-1.125 q 0.1875,-0.9375 0.1875,-1.5 0,-0.5625 -0.34375,-0.90625 -0.34375,-0.34375 -0.9375,-0.34375 -0.6875,0 -1.53125,0.59375 -0.8125,0.5625 -1.75,1.75 -0.9375,1.1875 -2.09375,3.125 -1.5625,2.65625 -2.53125,4.96875 -0.96875,2.28125 -1.875,5.625 z m 33.10241,0 -2.0625,0.65625 2.46875,-12.71875 q 0,0 0.21875,-1.09375 0.1875,-0.90625 0.1875,-1.5 0,-1.375 -1.09375,-1.375 -1.03125,0 -2.5,1.40625 -1.46875,1.375 -3.09375,4 -1.0625,1.6875 -1.84375,3.25 -0.75,1.5625 -1.40625,3.34375 -0.625,1.75 -1.21875,4.03125 l -1.9375,0.65625 3.21875,-17.3125 3,-1.28125 -2.71875,11.34375 q 2.09375,-4.84375 4.78125,-7.9375 2.71875,-3.125 4.875,-3.125 2.34375,0 2.34375,2.65625 0,0.90625 -0.46875,3.21875 l -1.03125,4.65625 q 3.03125,-5.8125 5.125,-8.1875 2.09375,-2.40625 4.15625,-2.40625 1.15625,0 1.8125,0.6875 0.65625,0.6875 0.65625,1.96875 0,1.03125 -0.625,3.5625 l -0.96875,3.84375 -0.3125,1.21875 q -0.4375,1.9375 -0.4375,2.875 0,1 0.34375,1.625 0.34375,0.59375 0.875,0.59375 1,0 3.125,-2.3125 l 0.46875,0.4375 -0.28125,0.34375 q -1.78125,2.09375 -2.65625,2.84375 -0.84375,0.71875 -1.5625,0.71875 -0.96875,0 -1.65625,-0.96875 -0.65625,-1 -0.65625,-2.46875 0,-0.90625 0.40625,-2.96875 l 1.15625,-6.46875 0.1875,-1.125 q 0.1875,-0.9375 0.1875,-1.5 0,-0.5625 -0.34375,-0.90625 -0.34375,-0.34375 -0.9375,-0.34375 -0.6875,0 -1.53125,0.59375 -0.8125,0.5625 -1.75,1.75 -0.9375,1.1875 -2.09375,3.125 -1.5625,2.65625 -2.53125,4.96875 -0.96875,2.28125 -1.875,5.625 z m 26.85244,-17.9375 -3.03125,12.09375 q -0.40625,1.625 -0.40625,2.75 0,1.09375 0.6875,1.75 0.6875,0.65625 1.78125,0.65625 2.65625,0 5.53125,-4.34375 l 0.125,-0.1875 q 0.0625,-0.3125 0.0937,-0.5 l 1.96875,-10.9375 3.0625,-1.28125 -2.75,10.28125 q -0.6875,2.53125 -0.6875,4.0625 0,1 0.34375,1.625 0.34375,0.625 0.90625,0.625 0.96875,0 3.09375,-2.3125 l 0.5,0.4375 -0.3125,0.34375 q -1.78125,2.09375 -2.625,2.84375 -0.84375,0.71875 -1.5625,0.71875 -0.96875,0 -1.65625,-0.96875 -0.65625,-1 -0.65625,-2.46875 0,-0.46875 0.0312,-0.875 -3.25,4.3125 -6.4375,4.3125 -1.59375,0 -2.5625,-0.90625 -0.9375,-0.9375 -0.9375,-2.46875 0,-1.1875 0.34375,-2.90625 l 2.125,-11.0625 z m 16.07116,18.59375 3.3125,-17.3125 2.96875,-1.28125 -2.6875,11.46875 q 2.59375,-5.46875 5.15625,-8.3125 2.5625,-2.84375 4.90625,-2.84375 1.15625,0 1.875,0.78125 0.71875,0.75 0.71875,2.03125 0,0.71875 -0.34375,2.03125 l -0.3125,1.3125 -0.9375,3.8125 -0.3125,1.21875 q -0.46875,1.875 -0.46875,2.875 0,1 0.34375,1.625 0.34375,0.59375 0.90625,0.59375 0.96875,0 3.09375,-2.3125 l 0.5,0.4375 -0.3125,0.34375 q -1.78125,2.09375 -2.625,2.84375 -0.84375,0.71875 -1.5625,0.71875 -0.96875,0 -1.65625,-0.96875 -0.65625,-1 -0.65625,-2.46875 0,-1 0.375,-2.96875 l 1.21875,-6.625 q 0.25,-1.5625 0.25,-2.1875 0,-0.65625 -0.34375,-1 -0.34375,-0.34375 -0.9375,-0.34375 -2.15625,0 -5.3125,4.625 -1.53125,2.21875 -2.53125,4.40625 -1,2.15625 -2.25,6 l -0.28125,0.84375 z m 30.41492,-30.84375 q 0.8125,0 1.3125,0.5 0.5,0.5 0.5,1.3125 0,0.78125 -0.53125,1.3125 -0.53125,0.53125 -1.28125,0.53125 -0.71875,0 -1.28125,-0.5625 -0.5625,-0.5625 -0.5625,-1.28125 0,-0.75 0.53125,-1.28125 0.53125,-0.53125 1.3125,-0.53125 z m -0.90625,12.25 -2.75,10.28125 q -0.6875,2.53125 -0.6875,4.0625 0,1 0.34375,1.625 0.34375,0.625 0.90625,0.625 0.96875,0 3.09375,-2.3125 l 0.5,0.4375 -0.3125,0.34375 q -1.78125,2.09375 -2.625,2.84375 -0.84375,0.71875 -1.5625,0.71875 -0.96875,0 -1.65625,-0.96875 -0.65625,-1 -0.65625,-2.46875 0,-0.9375 0.375,-2.96875 l 1.96875,-10.9375 z m 11.75867,1.59375 -2.375,10.40625 q -0.375,1.71875 -0.375,2.4375 0,1.125 0.53125,1.8125 0.53125,0.6875 1.40625,0.6875 0.84375,0 1.53125,-0.46875 0.71875,-0.5 2.15625,-2.03125 l 0.375,-0.375 0.46875,0.46875 q -1.84375,2.25 -3.09375,3.1875 -1.21875,0.90625 -2.40625,0.90625 -1.5,0 -2.40625,-0.96875 -0.875,-1 -0.875,-2.59375 0,-1.1875 0.46875,-3.4375 l 2.03125,-10.03125 h -3 l 0.21875,-1.0625 h 3 l 1.75,-8.4375 3,-1.1875 -2.1875,9.625 h 5.0625 l -0.21875,1.0625 z m 5.53991,27.78125 1.53125,-2.0625 q 1.8125,1.9375 4.09375,1.9375 2.40625,0 3.875,-1.90625 1.46875,-1.90625 2.40625,-6.25 l 1.4375,-6.46875 q -3.4375,4.03125 -6.21875,4.03125 -1.625,0 -2.5625,-1 -0.90625,-1 -0.90625,-2.6875 0,-1.125 0.28125,-2.46875 l 2.125,-11.21875 3.03125,-1.28125 -3.03125,12.59375 q -0.375,1.53125 -0.375,2.28125 0,1.0625 0.625,1.75 0.65625,0.65625 1.71875,0.65625 1.15625,0 2.53125,-1 1.40625,-1.03125 3.125,-3.0625 l 2.6875,-11.9375 2.9375,-1.28125 -4.5625,18.375 q -0.8125,3.3125 -1.5625,5.1875 -0.71875,1.875 -1.6875,3.125 -3.0625,3.9375 -7.46875,3.9375 -2.5625,0 -4.03125,-1.25 z m 42.07984,-27.78125 h -3.0625 l 0.21875,-1.0625 h 3.09375 l 2.9375,-13.71875 q 0.75,-3.40625 1.53125,-5.4375 0.78125,-2.03125 1.875,-3.5 2.6875,-3.59375 6.6875,-3.59375 1.34375,0 2.46875,0.4375 l -1.125,2.84375 q -1.25,-1.75 -3.1875,-1.75 -1.46875,0 -2.40625,1.15625 -0.90625,1.125 -1.5625,3.75 l -4.78125,19.8125 h 5.03125 l -0.21875,1.0625 h -5.0625 l -4.28125,17.75 q -0.84375,3.5625 -1.625,5.3125 -0.8125,1.75 -2.1875,3.25 -2.5,2.71875 -5.46875,2.71875 -1.4375,0 -2.5625,-0.5 l 1.53125,-2.25 q 1.3125,1.0625 2.84375,1.0625 2.3125,0 3.46875,-2.4375 0.84375,-1.8125 1.78125,-6 z m 9.1962,10.6875 q 0,-2.8125 1.5,-5.59375 1.53125,-2.8125 3.9375,-4.5625 2.40625,-1.75 4.90625,-1.75 2.625,0 4.21875,1.75 1.625,1.71875 1.625,4.46875 0,3 -1.5,5.8125 -1.46875,2.8125 -3.90625,4.625 -2.40625,1.78125 -4.875,1.78125 -2.65625,0 -4.28125,-1.78125 -1.625,-1.8125 -1.625,-4.75 z m 13.375,-6.875 q 0,-1.875 -0.9375,-3.09375 -0.90625,-1.21875 -2.34375,-1.21875 -1.3125,0 -2.53125,0.84375 -1.1875,0.84375 -2.1875,2.46875 -1.125,1.875 -1.875,4.375 -0.71875,2.5 -0.71875,4.4375 0,2.3125 0.90625,3.5625 0.90625,1.25 2.59375,1.25 2.71875,0 4.78125,-3.78125 1.0625,-1.9375 1.6875,-4.34375 0.625,-2.40625 0.625,-4.5 z m 8.19616,4 q 2.6875,-3.25 3.59375,-6.0625 -2.53125,-1.40625 -2.53125,-4.03125 0,-1.25 0.59375,-2.03125 0.59375,-0.78125 1.5,-0.78125 0.9375,0 1.53125,0.875 0.59375,0.84375 0.59375,2.21875 0,0.96875 -0.34375,2.15625 0.84375,0.21875 1.53125,0.21875 1.9375,0 3.1875,-1.125 h 1.5 l -0.21875,0.4375 q -2.25,4.125 -3.71875,8.125 -1.4375,3.96875 -1.4375,5.9375 0,0.71875 0.375,1.21875 0.375,0.46875 0.90625,0.46875 1.28125,0 4.125,-2.71875 l 0.5,0.5625 q -0.875,0.96875 -2.71875,2.40625 -1.65625,1.3125 -3.09375,1.3125 -1.21875,0 -1.9375,-0.8125 -0.6875,-0.8125 -0.6875,-2.21875 0,-2.34375 1.8125,-5.9375 0.65625,-1.34375 1.6875,-3.0625 1.03125,-1.71875 2.59375,-4.09375 l 0.3125,-0.4375 q -1.03125,0.9375 -2,1.34375 -0.9375,0.375 -2.15625,0.375 -0.5625,0 -1.1875,-0.15625 -1,3.0625 -3.75,6.3125 z m 4.28125,-7.9375 q 0.125,-0.78125 0.125,-1.3125 0,-1.09375 -0.375,-1.71875 -0.34375,-0.625 -0.90625,-0.625 -0.3125,0 -0.5625,0.3125 -0.21875,0.28125 -0.21875,0.71875 0,1.46875 1.9375,2.625 z m 39.42359,12.125 q -1.90625,2.6875 -3.71875,3.9375 -1.78125,1.21875 -3.96875,1.21875 -2.40625,0 -3.9375,-1.6875 -1.5,-1.6875 -1.5,-4.375 0,-2.8125 1.46875,-5.71875 1.46875,-2.90625 3.75,-4.8125 2.3125,-1.90625 4.4375,-1.90625 1.4375,0 2.3125,0.8125 0.875,0.78125 0.875,2.125 0,1.21875 -0.9375,2.34375 -0.90625,1.09375 -1.96875,1.09375 -0.46875,0 -0.84375,-0.375 2.03125,-0.90625 2.03125,-3.375 0,-0.875 -0.46875,-1.34375 -0.4375,-0.5 -1.1875,-0.5 -1.15625,0 -2.34375,0.9375 -1.15625,0.9375 -2.1875,2.625 -1.03125,1.65625 -1.625,3.5625 -0.5625,1.875 -0.5625,3.8125 0,2.3125 1.09375,3.75 1.09375,1.4375 2.875,1.4375 1.53125,0 2.96875,-0.96875 1.4375,-0.96875 3,-2.96875 z m 11.32116,-13.59375 -3.03125,12.09375 q -0.40625,1.625 -0.40625,2.75 0,1.09375 0.6875,1.75 0.6875,0.65625 1.78125,0.65625 2.65625,0 5.53125,-4.34375 l 0.125,-0.1875 q 0.0625,-0.3125 0.0937,-0.5 l 1.96875,-10.9375 3.0625,-1.28125 -2.75,10.28125 q -0.6875,2.53125 -0.6875,4.0625 0,1 0.34375,1.625 0.34375,0.625 0.90625,0.625 0.96875,0 3.09375,-2.3125 l 0.5,0.4375 -0.3125,0.34375 q -1.78125,2.09375 -2.625,2.84375 -0.84375,0.71875 -1.5625,0.71875 -0.96875,0 -1.65625,-0.96875 -0.65625,-1 -0.65625,-2.46875 0,-0.46875 0.0312,-0.875 -3.25,4.3125 -6.4375,4.3125 -1.59375,0 -2.5625,-0.90625 -0.9375,-0.9375 -0.9375,-2.46875 0,-1.1875 0.34375,-2.90625 l 2.125,-11.0625 z m 13.60242,30.6875 5.90625,-29.40625 3,-1.28125 -2.0625,8.96875 q 2.3125,-4.65625 4.34375,-6.6875 2.0625,-2.0625 4.5,-2.0625 1.875,0 2.96875,1.375 1.09375,1.375 1.09375,3.78125 0,2.4375 -1,5 -0.96875,2.5625 -2.75,4.65625 -3.21875,3.875 -7.09375,3.875 -2.4375,0 -4,-1.28125 l -3.21875,13.0625 z m 5.375,-15.125 q 1.3125,2.5625 3.6875,2.5625 3.4375,0 6,-5.59375 2.09375,-4.5 2.09375,-7.5625 0,-1.65625 -0.625,-2.5625 -0.625,-0.90625 -1.78125,-0.90625 -1.875,0 -3.9375,2.46875 -1.96875,2.4375 -3.34375,5.4375 -0.53125,1.1875 -1,2.53125 -0.4375,1.34375 -0.84375,2.75 z m 18.07117,0.71875 1.75,-2.0625 q 1.375,3.25 4.375,3.25 1.5625,0 2.65625,-1 1.125,-1.03125 1.125,-2.375 0,-0.96875 -0.53125,-1.65625 -0.53125,-0.6875 -2.53125,-2.3125 -1.84375,-1.5 -2.5,-2.34375 -0.625,-0.875 -0.625,-2 0,-1.46875 0.84375,-2.71875 0.875,-1.25 2.3125,-2 1.4375,-0.78125 3.03125,-0.78125 1.40625,0 2.34375,0.71875 0.96875,0.6875 0.96875,1.78125 0,1.4375 -1.21875,1.96875 -0.1875,-1.46875 -1.125,-2.28125 -0.90625,-0.84375 -2.34375,-0.84375 -1.28125,0 -2.25,0.84375 -0.9375,0.8125 -0.9375,1.875 0,1.3125 1.625,2.59375 l 1.8125,1.46875 q 2.65625,2.09375 2.65625,4.28125 0,1.625 -0.9375,3.0625 -0.90625,1.40625 -2.5,2.25 -1.5625,0.84375 -3.3125,0.84375 -2.78125,0 -4.6875,-2.5625 z m 49.70483,-16.46875 -2.9375,11.4375 q -0.46875,1.875 -0.46875,2.9375 0,0.9375 0.40625,1.625 0.40625,0.6875 1,0.6875 0.90625,0 3,-2.21875 l 0.4375,0.4375 -0.34375,0.40625 q -1.65625,1.90625 -2.5625,2.6875 -0.875,0.75 -1.53125,0.75 -1,0 -1.75,-1.03125 -0.71875,-1.0625 -0.71875,-2.4375 0,-1 0.75,-4.53125 l 0.25,-1.1875 q -1.15625,2.6875 -3.09375,5.15625 -3.25,4.125 -6.21875,4.125 -1.78125,0 -2.8125,-1.28125 -1.03125,-1.28125 -1.03125,-3.4375 0,-2.9375 1.65625,-6.15625 1.6875,-3.21875 4.15625,-5.28125 2.5,-2.09375 4.84375,-2.09375 2.46875,0 3.6875,1.8125 l 0.34375,-1.1875 z m -3.59375,4 q -0.375,-1.1875 -1.28125,-1.84375 -0.875,-0.6875 -2.03125,-0.6875 -1.375,0 -2.90625,1.28125 -1.53125,1.25 -2.8125,3.5 -1,1.78125 -1.6875,3.9375 -0.65625,2.15625 -0.65625,3.5625 0,1.59375 0.59375,2.5 0.625,0.90625 1.75,0.90625 1.4375,0 3,-1.34375 1.5625,-1.34375 3.09375,-3.84375 0.9375,-1.4375 1.46875,-2.875 0.53125,-1.4375 1.1875,-4 z m 9.91492,14.78125 3.3125,-17.3125 2.96875,-1.28125 -2.6875,11.46875 q 2.59375,-5.46875 5.15625,-8.3125 2.5625,-2.84375 4.90625,-2.84375 1.15625,0 1.875,0.78125 0.71875,0.75 0.71875,2.03125 0,0.71875 -0.34375,2.03125 l -0.3125,1.3125 -0.9375,3.8125 -0.3125,1.21875 q -0.46875,1.875 -0.46875,2.875 0,1 0.34375,1.625 0.34375,0.59375 0.90625,0.59375 0.96875,0 3.09375,-2.3125 l 0.5,0.4375 -0.3125,0.34375 q -1.78125,2.09375 -2.625,2.84375 -0.84375,0.71875 -1.5625,0.71875 -0.96875,0 -1.65625,-0.96875 -0.65625,-1 -0.65625,-2.46875 0,-1 0.375,-2.96875 l 1.21875,-6.625 q 0.25,-1.5625 0.25,-2.1875 0,-0.65625 -0.34375,-1 -0.34375,-0.34375 -0.9375,-0.34375 -2.15625,0 -5.3125,4.625 -1.53125,2.21875 -2.53125,4.40625 -1,2.15625 -2.25,6 l -0.28125,0.84375 z m 45.9462,-44.34375 -8.28125,36.03125 q -0.65625,2.875 -0.65625,4 0,1 0.34375,1.625 0.375,0.625 1,0.625 0.8125,0 1.96875,-1.21875 l 0.90625,-0.90625 q 0.0312,-0.0312 0.0625,-0.0625 0.0312,-0.0312 0.0937,-0.0625 l 0.46875,0.4375 -0.25,0.28125 q -1.1875,1.3125 -1.21875,1.34375 l -1.03125,1.03125 q -0.78125,0.78125 -1.15625,0.96875 -0.34375,0.21875 -0.78125,0.21875 -1.03125,0 -1.71875,-1.0625 -0.6875,-1.0625 -0.6875,-2.4375 0,-0.8125 0.4375,-2.96875 l 0.34375,-1.78125 q -0.8125,1.96875 -2.5625,4.28125 -3.15625,4.0625 -6.125,4.0625 -1.78125,0 -2.8125,-1.28125 -1.03125,-1.3125 -1.03125,-3.53125 0,-3.09375 1.625,-6.25 1.625,-3.1875 4.125,-5.25 2.53125,-2.0625 5.03125,-2.0625 1.84375,0 3.4375,1.09375 l 5.09375,-25.53125 z m -8.75,28.6875 q -0.28125,-0.84375 -1.15625,-1.34375 -0.875,-0.53125 -1.875,-0.53125 -1.46875,0 -3.03125,1.3125 -1.53125,1.3125 -2.90625,3.71875 -1,1.78125 -1.65625,3.90625 -0.625,2.09375 -0.625,3.8125 0,1.5 0.625,2.40625 0.65625,0.90625 1.78125,0.90625 1.3125,0 2.8125,-1.34375 1.53125,-1.34375 3.0625,-3.875 1.03125,-1.71875 1.625,-3.5625 0.71875,-2.375 1.03125,-3.8125 z m 35.73605,15 -2.0625,0.65625 2.46875,-12.71875 q 0,0 0.21875,-1.09375 0.1875,-0.90625 0.1875,-1.5 0,-1.375 -1.09375,-1.375 -1.03125,0 -2.5,1.40625 -1.46875,1.375 -3.09375,4 -1.0625,1.6875 -1.84375,3.25 -0.75,1.5625 -1.40625,3.34375 -0.625,1.75 -1.21875,4.03125 l -1.9375,0.65625 3.21875,-17.3125 3,-1.28125 -2.71875,11.34375 q 2.09375,-4.84375 4.78125,-7.9375 2.71875,-3.125 4.875,-3.125 2.34375,0 2.34375,2.65625 0,0.90625 -0.46875,3.21875 l -1.03125,4.65625 q 3.03125,-5.8125 5.125,-8.1875 2.09375,-2.40625 4.15625,-2.40625 1.15625,0 1.8125,0.6875 0.65625,0.6875 0.65625,1.96875 0,1.03125 -0.625,3.5625 l -0.96875,3.84375 -0.3125,1.21875 q -0.4375,1.9375 -0.4375,2.875 0,1 0.34375,1.625 0.34375,0.59375 0.875,0.59375 1,0 3.125,-2.3125 l 0.46875,0.4375 -0.28125,0.34375 q -1.78125,2.09375 -2.65625,2.84375 -0.84375,0.71875 -1.5625,0.71875 -0.96875,0 -1.65625,-0.96875 -0.65625,-1 -0.65625,-2.46875 0,-0.90625 0.40625,-2.96875 l 1.15625,-6.46875 0.1875,-1.125 q 0.1875,-0.9375 0.1875,-1.5 0,-0.5625 -0.34375,-0.90625 -0.34375,-0.34375 -0.9375,-0.34375 -0.6875,0 -1.53125,0.59375 -0.8125,0.5625 -1.75,1.75 -0.9375,1.1875 -2.09375,3.125 -1.5625,2.65625 -2.53125,4.96875 -0.96875,2.28125 -1.875,5.625 z m 26.85242,-17.9375 -3.03125,12.09375 q -0.40625,1.625 -0.40625,2.75 0,1.09375 0.6875,1.75 0.6875,0.65625 1.78125,0.65625 2.65625,0 5.53125,-4.34375 l 0.125,-0.1875 q 0.0625,-0.3125 0.0937,-0.5 l 1.96875,-10.9375 3.0625,-1.28125 -2.75,10.28125 q -0.6875,2.53125 -0.6875,4.0625 0,1 0.34375,1.625 0.34375,0.625 0.90625,0.625 0.96875,0 3.09375,-2.3125 l 0.5,0.4375 -0.3125,0.34375 q -1.78125,2.09375 -2.625,2.84375 -0.84375,0.71875 -1.5625,0.71875 -0.96875,0 -1.65625,-0.96875 -0.65625,-1 -0.65625,-2.46875 0,-0.46875 0.0312,-0.875 -3.25,4.3125 -6.4375,4.3125 -1.59375,0 -2.5625,-0.90625 -0.9375,-0.9375 -0.9375,-2.46875 0,-1.1875 0.34375,-2.90625 l 2.125,-11.0625 z m 33.22741,-0.1875 -4.78125,19.03125 q -0.71875,3.0625 -1.28125,4.5 -0.53125,1.4375 -1.3125,2.625 -1.46875,2.25 -3.59375,3.4375 -2.09375,1.21875 -4.53125,1.21875 -2.21875,0 -3.90625,-1.25 l 1.59375,-2.0625 q 2.03125,1.9375 4.03125,1.9375 1.28125,0 2.59375,-0.8125 1.3125,-0.8125 1.9375,-2 0.8125,-1.4375 1.6875,-5.21875 l 2.40625,-10.3125 q -4.1875,7.8125 -8.5,7.8125 -1.75,0 -2.84375,-1.3125 -1.0625,-1.34375 -1.0625,-3.40625 0,-2.9375 1.65625,-6.125 1.65625,-3.1875 4.15625,-5.28125 2.53125,-2.125 4.90625,-2.125 2.21875,0 3.6875,1.65625 l 0.28125,-1.09375 z m -3.5,3.875 q -1.21875,-2.34375 -3.21875,-2.34375 -2.09375,0 -4.125,2.3125 -1.65625,1.9375 -2.84375,4.875 -1.15625,2.90625 -1.15625,5.21875 0,1.5625 0.65625,2.46875 0.6875,0.875 1.90625,0.875 1.25,0 2.75,-1.375 1.53125,-1.375 3.03125,-3.875 1.71875,-2.84375 2.65625,-6.75 z m 6.50873,12.59375 1.75,-2.0625 q 1.375,3.25 4.375,3.25 1.5625,0 2.65625,-1 1.125,-1.03125 1.125,-2.375 0,-0.96875 -0.53125,-1.65625 -0.53125,-0.6875 -2.53125,-2.3125 -1.84375,-1.5 -2.5,-2.34375 -0.625,-0.875 -0.625,-2 0,-1.46875 0.84375,-2.71875 0.875,-1.25 2.3125,-2 1.4375,-0.78125 3.03125,-0.78125 1.40625,0 2.34375,0.71875 0.96875,0.6875 0.96875,1.78125 0,1.4375 -1.21875,1.96875 -0.1875,-1.46875 -1.125,-2.28125 -0.90625,-0.84375 -2.34375,-0.84375 -1.28125,0 -2.25,0.84375 -0.9375,0.8125 -0.9375,1.875 0,1.3125 1.625,2.59375 l 1.8125,1.46875 q 2.65625,2.09375 2.65625,4.28125 0,1.625 -0.9375,3.0625 -0.90625,1.40625 -2.5,2.25 -1.5625,0.84375 -3.3125,0.84375 -2.78125,0 -4.6875,-2.5625 z m 43.79859,-42.03125 -8.21875,36.03125 -0.28125,1.21875 q -0.40625,1.71875 -0.40625,2.90625 0,0.96875 0.34375,1.59375 0.375,0.59375 0.90625,0.59375 0.96875,0 3.09375,-2.3125 l 0.5,0.4375 -0.3125,0.34375 q -1.78125,2.09375 -2.625,2.84375 -0.84375,0.71875 -1.5625,0.71875 -0.9375,0 -1.65625,-1.03125 -0.6875,-1.0625 -0.6875,-2.40625 0,-0.9375 0.40625,-2.96875 l 7.21875,-36.375 z m 0.32116,38.03125 q 0,-2.8125 1.5,-5.59375 1.53125,-2.8125 3.9375,-4.5625 2.40625,-1.75 4.90625,-1.75 2.625,0 4.21875,1.75 1.625,1.71875 1.625,4.46875 0,3 -1.5,5.8125 -1.46875,2.8125 -3.90625,4.625 -2.40625,1.78125 -4.875,1.78125 -2.65625,0 -4.28125,-1.78125 -1.625,-1.8125 -1.625,-4.75 z m 13.375,-6.875 q 0,-1.875 -0.9375,-3.09375 -0.90625,-1.21875 -2.34375,-1.21875 -1.3125,0 -2.53125,0.84375 -1.1875,0.84375 -2.1875,2.46875 -1.125,1.875 -1.875,4.375 -0.71875,2.5 -0.71875,4.4375 0,2.3125 0.90625,3.5625 0.90625,1.25 2.59375,1.25 2.71875,0 4.78125,-3.78125 1.0625,-1.9375 1.6875,-4.34375 0.625,-2.40625 0.625,-4.5 z m 9.03992,-4.125 2.8125,-1.28125 v 0.8125 q 0.0937,4.5625 0.53125,9.59375 0.25,2.625 0.4375,3.90625 0.1875,1.25 0.4375,1.6875 0.25,0.4375 0.6875,0.4375 1.15625,0 4.125,-4.40625 2.65625,-3.875 2.65625,-7.15625 0,-1.15625 -0.28125,-1.90625 -0.28125,-0.78125 -1.0625,-1.5625 l 2.34375,-2.1875 q 1.09375,1.4375 1.09375,3.5 0,4.15625 -4.9375,10.96875 -1.5,2.0625 -3.1875,3.6875 -0.78125,0.71875 -1.28125,1 -0.46875,0.3125 -0.9375,0.3125 -0.75,0 -1.09375,-0.59375 -0.34375,-0.59375 -0.53125,-2.25 z m 31.10242,12.15625 0.5625,0.46875 q -1.9375,2.5625 -3.78125,3.71875 -1.84375,1.125 -3.96875,1.125 -2.53125,0 -4.0625,-1.6875 -1.53125,-1.6875 -1.53125,-4.46875 0,-2.8125 1.46875,-5.6875 1.5,-2.90625 3.71875,-4.78125 2.25,-1.90625 4.4375,-1.90625 1.28125,0 2.09375,0.75 0.84375,0.75 0.84375,1.9375 0,2.40625 -2.625,4.8125 -2.625,2.40625 -7.15625,4.09375 -0.0312,0.25 -0.0312,0.5625 0,2.15625 1.1875,3.53125 1.1875,1.34375 3.0625,1.34375 1.46875,0 2.84375,-0.90625 1.375,-0.9375 2.9375,-2.90625 z m -10,-2.375 q 3.375,-1.5 5.1875,-3.34375 1.21875,-1.25 1.96875,-2.6875 0.75,-1.4375 0.75,-2.59375 0,-1.46875 -1.34375,-1.46875 -2.03125,0 -4.125,3.21875 -2.0625,3.1875 -2.4375,6.875 z m 15.53991,-1.65625 q 2.6875,-3.25 3.59375,-6.0625 -2.53125,-1.40625 -2.53125,-4.03125 0,-1.25 0.59375,-2.03125 0.59375,-0.78125 1.5,-0.78125 0.9375,0 1.53125,0.875 0.59375,0.84375 0.59375,2.21875 0,0.96875 -0.34375,2.15625 0.84375,0.21875 1.53125,0.21875 1.9375,0 3.1875,-1.125 h 1.5 l -0.21875,0.4375 q -2.25,4.125 -3.71875,8.125 -1.4375,3.96875 -1.4375,5.9375 0,0.71875 0.375,1.21875 0.375,0.46875 0.90625,0.46875 1.28125,0 4.125,-2.71875 l 0.5,0.5625 q -0.875,0.96875 -2.71875,2.40625 -1.65625,1.3125 -3.09375,1.3125 -1.21875,0 -1.9375,-0.8125 -0.6875,-0.8125 -0.6875,-2.21875 0,-2.34375 1.8125,-5.9375 0.65625,-1.34375 1.6875,-3.0625 1.03125,-1.71875 2.59375,-4.09375 l 0.3125,-0.4375 q -1.03125,0.9375 -2,1.34375 -0.9375,0.375 -2.15625,0.375 -0.5625,0 -1.1875,-0.15625 -1,3.0625 -3.75,6.3125 z m 4.28125,-7.9375 q 0.125,-0.78125 0.125,-1.3125 0,-1.09375 -0.375,-1.71875 -0.34375,-0.625 -0.90625,-0.625 -0.3125,0 -0.5625,0.3125 -0.21875,0.28125 -0.21875,0.71875 0,1.46875 1.9375,2.625 z m 10.66492,14.8125 1.75,-2.0625 q 1.375,3.25 4.375,3.25 1.5625,0 2.65625,-1 1.125,-1.03125 1.125,-2.375 0,-0.96875 -0.53125,-1.65625 -0.53125,-0.6875 -2.53125,-2.3125 -1.84375,-1.5 -2.5,-2.34375 -0.625,-0.875 -0.625,-2 0,-1.46875 0.84375,-2.71875 0.875,-1.25 2.3125,-2 1.4375,-0.78125 3.03125,-0.78125 1.40625,0 2.34375,0.71875 0.96875,0.6875 0.96875,1.78125 0,1.4375 -1.21875,1.96875 -0.1875,-1.46875 -1.125,-2.28125 -0.90625,-0.84375 -2.34375,-0.84375 -1.28125,0 -2.25,0.84375 -0.9375,0.8125 -0.9375,1.875 0,1.3125 1.625,2.59375 l 1.8125,1.46875 q 2.65625,2.09375 2.65625,4.28125 0,1.625 -0.9375,3.0625 -0.90625,1.40625 -2.5,2.25 -1.5625,0.84375 -3.3125,0.84375 -2.78125,0 -4.6875,-2.5625 z m 32.66492,-37.5625 -7.90625,31.875 -0.875,0.40625 4.625,-30.40625 z m -9.1875,34.84375 q 1.09375,0 1.8125,0.71875 0.71875,0.71875 0.71875,1.8125 0,1.09375 -0.71875,1.8125 -0.71875,0.71875 -1.8125,0.71875 -1.0625,0 -1.8125,-0.71875 -0.75,-0.71875 -0.75,-1.8125 0,-1.09375 0.75,-1.8125 0.75,-0.71875 1.8125,-0.71875 z"
       id="text29-2"
       inkscape:label="text29"
       aria-label="The community for cups and mugs lovers!" /></g></svg>
