<?xml version="1.0" encoding="UTF-8" standalone="no"?>
<!-- Created with Inkscape (http://www.inkscape.org/) -->

<svg
   width="611.66998"
   height="441.078"
   viewBox="0 0 611.66999 441.07801"
   version="1.1"
   id="svg1"
   inkscape:export-filename="firstBodyImage.svg"
   inkscape:export-xdpi="96"
   inkscape:export-ydpi="96"
   sodipodi:docname="firstBodyImage.svg"
   inkscape:version="1.3 (0e150ed, 2023-07-21)"
   xml:space="preserve"
   xmlns:inkscape="http://www.inkscape.org/namespaces/inkscape"
   xmlns:sodipodi="http://sodipodi.sourceforge.net/DTD/sodipodi-0.dtd"
   xmlns="http://www.w3.org/2000/svg"
   xmlns:svg="http://www.w3.org/2000/svg"><sodipodi:namedview
     id="namedview1"
     pagecolor="#ffffff"
     bordercolor="#000000"
     borderopacity="0.25"
     inkscape:showpageshadow="2"
     inkscape:pageopacity="0.0"
     inkscape:pagecheckerboard="0"
     inkscape:deskcolor="#d1d1d1"
     inkscape:document-units="px"
     inkscape:zoom="1.020386"
     inkscape:cx="341.53742"
     inkscape:cy="332.22722"
     inkscape:window-width="1512"
     inkscape:window-height="1057"
     inkscape:window-x="218"
     inkscape:window-y="32"
     inkscape:window-maximized="0"
     inkscape:current-layer="layer3"
     showguides="true" /><defs
     id="defs1"><rect
       x="546.27716"
       y="188.59567"
       width="459.56534"
       height="106.30452"
       id="rect1" /><rect
       x="546.27716"
       y="188.59567"
       width="457.60529"
       height="107.28454"
       id="rect1-4" /><rect
       x="546.27716"
       y="188.59567"
       width="457.60529"
       height="107.28454"
       id="rect27" /></defs><g
     inkscape:label="Capa 1"
     inkscape:groupmode="layer"
     id="layer1"
     transform="translate(-479.80621,-225.77759)"
     style="display:inline"><text
       xml:space="preserve"
       style="font-style:normal;font-variant:normal;font-weight:normal;font-stretch:normal;font-size:26.6667px;font-family:'Heiti TC';-inkscape-font-specification:'Heiti TC';display:none;fill:#584e48;fill-opacity:1;stroke:none;stroke-opacity:1"
       x="687.56622"
       y="716.71094"
       id="text3-5"><tspan
         sodipodi:role="line"
         id="tspan3-3"
         x="0"
         y="0"
         style="font-size:26.6667px;fill:#584e48;fill-opacity:1">The community for cups and mugs lovers!</tspan></text><path
       style="font-size:85.3333px;line-height:0;font-family:SignPainter;-inkscape-font-specification:SignPainter;letter-spacing:7.82px;word-spacing:0px;white-space:pre;display:inline;fill:#aeaaa5"
       d="m 543.80268,209.35988 c 0,2.048 0.768,3.84 1.96266,4.608 1.19467,0.768 2.38934,0.512 2.90134,-0.59733 2.98666,-6.4 5.46133,-11.69067 8.61866,-17.83466 4.69333,-1.19467 10.75199,-1.96267 14.67733,-2.304 1.87733,-0.17067 2.048,-0.93867 1.70666,-2.13333 -0.768,-2.73067 -3.072,-4.52267 -7.93599,-4.18134 -1.28,0.0853 -2.47467,0.17067 -4.096,0.42667 4.01066,-7.33866 7.33866,-13.22666 10.15466,-17.91999 8.192,-1.45067 12.37333,-2.38933 16.72533,-2.304 1.792,0 2.21866,-0.93867 1.792,-1.87733 -1.19467,-2.90134 -3.584,-4.608 -7.68,-4.608 -2.048,0 -4.864,0.34133 -7.85066,0.85333 -4.096,0.68267 -7.76533,1.19467 -12.71467,1.19467 -1.62133,0 -2.13333,0.512 -1.87733,1.62133 0.34133,1.536 1.28,3.24267 3.24267,4.352 -7.50933,12.03199 -16.128,28.24532 -18.60266,35.49865 -0.68267,2.13333 -1.024,3.92533 -1.024,5.20533 z m 40.92913,-16.46932 c -3.072,4.26666 -4.608,9.04532 -4.608,12.71466 0,5.03466 2.73067,8.70399 7.76533,8.70399 3.41334,0 7.25333,-2.64533 9.728,-5.03466 0.68267,3.15733 3.15733,5.376 7.424,5.376 5.20533,0 10.66666,-4.52267 12.88532,-9.216 1.19467,-2.47467 0.68267,-4.77866 0.34134,-5.54666 -0.85333,-1.792 -1.62133,-1.70667 -2.56,0 -2.816,5.54666 -7.08266,11.34932 -10.15466,11.34932 -0.85334,0 -1.19467,-0.768 -1.19467,-2.048 0,-5.71733 7.168,-15.01866 9.38666,-19.71199 2.21867,-4.43733 1.45067,-8.19199 0,-9.89866 -1.024,-1.19467 -2.47466,-1.10933 -3.49866,0.59733 l -1.62133,2.64534 c -0.768,-2.21867 -2.64534,-3.75467 -5.71734,-3.75467 -4.35199,0 -11.34932,4.01067 -18.17599,13.824 z m 4.26667,17.66399 c -0.85334,0 -1.19467,-1.024 -1.19467,-2.56 0,-2.73067 1.45067,-7.25333 4.01067,-11.264 4.35199,-6.99733 10.23999,-12.37332 11.94666,-12.37332 0.85333,0 1.024,0.59733 1.024,1.62133 0,2.21866 -1.536,6.4 -4.864,12.20266 -4.18133,7.168 -8.10666,12.37333 -10.92266,12.37333 z m 48.35327,-30.63466 c -0.85333,-1.536 -2.13333,-1.62133 -3.24266,0 -5.29067,7.936 -11.86133,19.88266 -13.48266,24.66133 -0.512,1.70666 -0.768,3.15733 -0.768,4.43733 0,2.048 0.68266,3.49866 1.87733,4.69333 1.36533,1.36533 2.47467,0.85333 3.072,-0.512 3.49867,-7.68 7.33866,-16.04266 12.03199,-20.99199 4.69334,-5.29067 8.87467,-7.68 9.64267,-7.68 0.59733,0 -0.768,2.21867 -2.56,5.03467 -3.328,5.29066 -7.25333,13.14132 -7.25333,17.74932 0,4.43733 2.47466,7.33867 8.19199,7.33867 5.12,0 11.34933,-4.52267 13.73867,-9.216 1.19466,-2.304 1.10933,-4.94933 0.42666,-5.97333 -0.768,-1.19467 -1.96266,-1.28 -2.816,0.34133 -3.072,5.71733 -7.50933,11.264 -10.41066,11.264 -1.10933,0 -1.70666,-1.10934 -1.70666,-2.90133 0,-3.15734 2.90133,-8.78933 5.63199,-13.14133 2.73067,-4.77867 4.26667,-7.50933 4.26667,-9.38667 0,-3.24266 -2.304,-6.22933 -4.77867,-6.22933 -3.072,0 -7.16799,2.816 -10.83733,6.22933 0.0853,-0.512 0.0853,-1.10933 0.0853,-1.70666 0,-1.36533 -0.34134,-2.73067 -1.10934,-4.01067 z m 30.09181,12.97067 c -3.072,4.26666 -4.608,9.04532 -4.608,12.71466 0,5.03466 2.73067,8.70399 7.76533,8.70399 3.41333,0 7.25333,-2.64533 9.728,-5.03466 0.68266,3.15733 3.15733,5.376 7.42399,5.376 5.20533,0 10.66667,-4.52267 12.88533,-9.216 1.19467,-2.47467 0.68267,-4.77866 0.34133,-5.54666 -0.85333,-1.792 -1.62133,-1.70667 -2.55999,0 -2.816,5.54666 -7.08267,11.34932 -10.15467,11.34932 -0.85333,0 -1.19466,-0.768 -1.19466,-2.048 0,-5.71733 7.16799,-15.01866 9.38666,-19.71199 2.21867,-4.43733 1.45067,-8.19199 0,-9.89866 -1.024,-1.19467 -2.47467,-1.10933 -3.49867,0.59733 l -1.62133,2.64534 c -0.768,-2.21867 -2.64533,-3.75467 -5.71733,-3.75467 -4.352,0 -11.34933,4.01067 -18.17599,13.824 z m 4.26666,17.66399 c -0.85333,0 -1.19466,-1.024 -1.19466,-2.56 0,-2.73067 1.45066,-7.25333 4.01066,-11.264 4.352,-6.99733 10.24,-12.37332 11.94666,-12.37332 0.85334,0 1.024,0.59733 1.024,1.62133 0,2.21866 -1.536,6.4 -4.86399,12.20266 -4.18134,7.168 -8.10667,12.37333 -10.92267,12.37333 z m 33.59063,-5.71733 c 0,5.88799 3.92533,9.55733 8.44799,9.55733 7.168,0 12.88533,-7.33867 14.08,-9.89867 0.93866,-1.96266 1.28,-3.24266 0.85333,-5.03466 -0.59733,-2.304 -2.56,-2.13333 -3.49866,-0.0853 -2.98667,6.39999 -7.424,11.77599 -10.752,11.77599 -1.45067,0 -2.304,-1.792 -2.304,-4.352 0,-1.87733 0.512,-4.096 1.536,-6.39999 2.98667,-6.48534 7.85066,-14.93333 11.09333,-20.48 1.87733,-0.256 4.096,-0.42666 5.632,-0.256 2.048,0.256 2.64533,-0.768 1.792,-2.304 -0.59734,-1.02399 -2.048,-2.38933 -4.69333,-2.73066 1.02399,-2.38933 1.36533,-4.352 1.36533,-5.888 0,-1.024 -0.34134,-2.47466 -0.93867,-3.49866 -0.93866,-1.62134 -1.96266,-1.70667 -3.24266,0.17066 -1.96267,2.816 -3.75467,5.632 -6.4,10.24 -1.87733,0.17067 -4.18133,0.256 -6.144,0.17067 -1.96266,-0.0853 -2.816,0.768 -1.62133,2.55999 0.68267,1.024 2.21866,1.96267 4.864,2.304 -3.41333,6.144 -6.656,12.88533 -8.36267,17.06666 -1.19466,2.816 -1.70666,5.20533 -1.70666,7.08267 z m 39.90521,-29.35466 c 0,2.64533 2.304,5.20533 5.03467,5.20533 2.13333,0 3.41333,-1.96266 3.41333,-4.26666 0,-2.47467 -2.304,-5.54667 -4.69333,-5.54667 -1.96267,0 -3.75467,2.21867 -3.75467,4.608 z m 6.31467,29.95199 c 1.10933,-2.21867 1.19466,-4.352 0.42667,-5.80266 -0.768,-1.536 -1.87734,-1.70667 -2.56,-0.17067 -2.64534,5.80266 -7.08267,11.51999 -10.496,11.51999 -0.93867,0 -1.28,-0.768 -1.28,-2.13333 0,-1.36533 0.42667,-3.15733 1.19467,-5.12 1.45066,-3.41333 5.376,-9.81333 6.99733,-13.48266 2.21866,-4.26666 1.536,-7.93599 -0.0853,-9.64266 -1.10933,-1.28 -2.13333,-1.10933 -3.41333,0.59733 -3.15733,4.43733 -8.61866,14.336 -10.75199,20.30933 -0.68267,2.21866 -1.024,4.01066 -1.024,5.632 0,4.26666 2.304,7.25333 7.50933,7.25333 5.03466,0 10.92266,-3.584 13.48266,-8.96 z m 23.69185,-26.11199 c -4.94933,0 -11.69066,4.608 -16.04266,13.39733 -1.792,3.41333 -2.64534,6.82666 -2.64534,9.89866 0,6.82666 4.352,11.86133 12.20267,11.776 6.65599,-0.0853 13.56799,-4.26667 16.81066,-9.38667 1.536,-2.38933 1.536,-4.60799 1.10933,-5.71733 -0.512,-1.45066 -1.792,-1.10933 -2.56,0.17067 -3.41333,5.12 -9.30133,11.69066 -15.70133,11.60533 -2.304,-0.0853 -3.84,-2.38933 -3.84,-6.144 0,-2.56 0.85334,-6.05866 2.56,-9.55733 3.41334,-6.912 8.96,-12.45866 9.984,-11.60533 0.34133,0.34134 -0.256,1.87733 -1.10933,3.584 -1.536,3.49867 -1.96267,5.20533 -1.96267,6.31466 0,2.304 1.45067,3.92534 2.98667,4.864 1.70666,0.85334 2.47466,0.68267 3.07199,-0.93866 0.34134,-0.93867 0.85334,-2.21867 1.536,-3.49867 1.62134,-3.328 2.98667,-6.48533 1.70667,-9.30133 -1.36533,-2.56 -4.94933,-5.46133 -8.10666,-5.46133 z m 53.04656,26.11199 c 1.27999,-2.47467 0.93866,-4.94933 0.59733,-5.71733 -0.68267,-1.62133 -2.13333,-1.36533 -2.98667,0.0853 -3.072,5.376 -7.42399,11.264 -10.23999,11.264 -1.10934,0 -1.62134,-0.85334 -1.62134,-2.38933 0,-3.328 3.328,-9.13067 5.80267,-13.14133 2.98666,-4.94933 4.77866,-8.704 4.77866,-11.60533 0,-1.87733 -0.42666,-3.24267 -1.28,-4.43733 -1.024,-1.45067 -2.38933,-1.10934 -3.58399,0.512 -3.072,3.92533 -5.29067,9.72799 -10.32533,17.91999 -4.352,6.82666 -8.87467,12.62933 -11.09333,12.62933 -1.87733,0 -1.62133,-3.15733 -0.0853,-6.57067 2.98667,-6.57066 9.216,-16.46932 9.216,-19.96799 0,-1.28 -0.34133,-2.73066 -1.28,-3.92533 -1.024,-1.28 -2.56,-1.45067 -3.66933,0 -5.29067,7.424 -9.64266,15.95733 -11.52,21.33332 -0.768,2.048 -1.10933,4.01067 -1.10933,5.888 0,3.66933 1.70667,6.912 6.05867,6.912 4.35199,0 8.19199,-2.64533 11.09332,-5.888 0.34134,3.84 2.90134,6.31467 7.936,6.31467 5.29067,0 10.83733,-4.352 13.312,-9.216 z m 18.23061,-12.37333 c 3.66933,-6.22933 8.36266,-10.15466 9.89866,-9.47199 0.42667,0.17066 0.59733,1.19466 0.59733,2.73066 0,2.816 -1.024,7.168 -3.072,11.17866 -3.49866,7.08267 -7.33866,11.776 -9.98399,11.776 -2.21867,0 -2.816,-6.144 -0.17067,-11.60533 z m 17.74932,-4.18133 c 0,-4.352 -2.47466,-8.96 -7.59466,-8.96 -2.304,0 -4.77867,1.10934 -6.912,2.56 0,-1.10933 -0.17066,-2.21866 -0.85333,-3.15733 -0.68267,-0.93867 -1.792,-1.28 -3.328,0.59733 -5.29066,7.08267 -19.37066,33.62132 -21.84532,41.72799 -0.768,2.38933 -1.024,4.18133 -1.024,5.54666 0,1.792 0.42666,2.98667 1.70666,4.608 0.85334,1.024 1.87734,0.68267 2.56,-0.85333 3.584,-8.36267 7.25333,-15.70133 11.008,-22.69866 1.96266,4.608 6.14399,6.912 12.88532,6.912 7.08267,0 14.25067,-2.38934 18.09066,-9.30133 1.45067,-2.56 1.36534,-4.94933 1.19467,-5.80267 -0.34133,-1.70666 -2.13333,-2.13333 -3.15733,-0.17066 -2.47467,4.94933 -7.33867,10.58132 -13.65333,11.86132 2.73067,-2.21866 5.54666,-6.05866 7.59466,-10.75199 1.96267,-4.096 3.328,-8.448 3.328,-12.11733 z m 20.36399,21.58932 c -1.87733,0 -3.66933,-2.98666 -4.69333,-6.99733 2.56,-3.66933 4.94933,-7.33866 6.99733,-10.58132 0.17067,2.30399 0.256,5.03466 0.256,7.76533 0,5.54666 -0.768,9.81332 -2.56,9.81332 z m -11.69066,-8.19199 c 0,1.96266 0.512,4.01066 1.45067,5.632 2.90133,5.37599 8.02133,6.74133 13.14133,6.57066 6.39999,-0.256 12.37332,-3.49867 15.61599,-9.472 1.536,-2.64533 1.28,-5.03466 0.85333,-5.88799 -0.59733,-1.36534 -1.87733,-1.96267 -2.64533,0 -1.536,4.18133 -3.92533,6.99733 -7.424,9.38666 0.93867,-1.87733 1.36534,-4.26667 1.45067,-6.4 0.17067,-4.608 -0.93867,-10.15466 -0.93867,-16.21333 0,-1.10933 0.0853,-2.55999 0.17067,-3.58399 2.64533,-4.352 2.13333,-6.22933 -0.17067,-6.22933 -1.28,0 -2.816,0.59733 -4.18133,1.79199 -1.96267,1.62134 -2.98666,3.584 -3.328,6.656 -2.21866,3.66933 -5.20533,8.10667 -8.02133,12.11733 -0.256,-2.048 -1.536,-2.47467 -3.24266,-1.024 -1.87734,1.62133 -2.73067,4.096 -2.73067,6.656 z"
       id="text1"
       inkscape:label="text1"
       transform="matrix(1.2321895,0,0,1.2321895,-114.00366,293.2695)"
       aria-label="Fanaticups" /><text
       xml:space="preserve"
       id="text27"
       style="font-size:85.3333px;white-space:pre;shape-inside:url(#rect27);display:none;fill:#e74a61;fill-opacity:1;stroke:none;stroke-opacity:1"
       transform="translate(175.7022,347.24856)"
       inkscape:label="text1"><tspan
         x="546.27734"
         y="272.649"
         id="tspan2"><tspan
           style="font-family:'Heiti TC';-inkscape-font-specification:'Heiti TC'"
           id="tspan1">Fanaticups</tspan></tspan></text><text
       xml:space="preserve"
       style="font-style:normal;font-variant:normal;font-weight:normal;font-stretch:normal;font-size:26.6667px;font-family:'Heiti TC';-inkscape-font-specification:'Heiti TC';display:none;fill:#e74a61;fill-opacity:1;stroke:none;stroke-opacity:1"
       x="687.56622"
       y="670.71094"
       id="text28"><tspan
         sodipodi:role="line"
         id="tspan28"
         x="0"
         y="0"
         style="font-size:26.6667px">The community for cups and mugs lovers!</tspan></text><path
       d="m 697.19031,473.21779 v -13.83155 h 165.1357 v 13.83155 z M 842.5235,341.03849 h 24.17798 q 1.58789,0 2.69958,-1.00568 1.11178,-1.00568 1.11178,-2.48775 v -34.156 q 0,-1.48207 -1.11178,-2.48808 -1.11169,-1.00568 -2.69958,-1.00568 H 842.5235 Z m -107.28844,92.09489 q -15.88348,0 -26.96407,-10.88196 -11.08068,-10.88188 -11.08068,-26.5203 V 286.06381 h 49.76678 v 24.74237 l -18.3347,14.90435 q -0.66319,0.55024 -2.3146,4.70005 v 37.33159 q 0,2.35424 1.74983,4.19056 1.7504,1.83632 4.38994,1.83632 h 38.64459 q 2.63888,0 4.38928,-1.83632 1.75049,-1.83632 1.75049,-4.19056 v -37.32003 q 0,-0.74556 -2.31526,-4.71161 l -18.22115,-14.90435 v -24.74237 h 110.00597 q 7.23558,0 12.4394,5.07239 5.20374,5.0722 5.20374,12.25286 v 34.156 q 0,7.18066 -5.20374,12.25279 -5.20382,5.0722 -12.4394,5.0722 H 842.5235 v 40.86107 q 0,15.63842 -11.08002,26.5203 -11.08059,10.88196 -26.9641,10.88196 z"
       id="path1"
       style="fill:#aeaaa5;fill-opacity:1;stroke:#1c0104;stroke-width:0.275227;stroke-opacity:1" /></g><g
     inkscape:groupmode="layer"
     id="layer3"
     inkscape:label="slogan"
     style="display:inline"><path
       style="font-size:47.2027px;line-height:0;font-family:'Savoye LET';-inkscape-font-specification:'Savoye LET';letter-spacing:2.82117px;display:inline;fill:#aeaaa5;stroke-width:1.10639"
       d="m 5.5793817,394.51366 0.8527832,-2.07434 q 2.1665302,0.92193 4.7479281,0.92193 3.019313,0 5.347181,-1.61338 2.350916,-1.63642 4.194771,-4.97841 0.599253,-1.10631 1.175458,-2.51225 0.576205,-1.42899 1.428988,-3.98734 0.714494,-2.12043 1.382892,-4.56354 0.691446,-2.46616 1.15241,-4.4944 0.484012,-2.02824 0.921927,-4.51744 l 2.466157,-1.10632 -0.161337,-0.0231 -0.460964,-0.0691 q -5.23194,-0.64535 -10.049013,-0.64535 -2.466157,0 -4.148675,0.32268 -1.682518,0.32267 -2.857976,1.03716 -1.6133734,1.01412 -1.6133734,2.60445 0,3.2498 8.1129644,3.68771 l -1.567277,1.63642 q -2.212627,-0.13829 -3.849049,-0.80668 -1.636421,-0.6684 -2.535301,-1.77472 -0.8758314,-1.10631 -0.8758314,-2.51225 0,-2.83493 3.5724704,-4.56354 3.019313,-1.45204 8.873554,-1.45204 1.590326,0 4.056483,0.18439 2.489205,0.18438 5.139747,0.48401 2.650542,0.27658 4.402205,0.59925 l 0.414867,0.0692 -1.037168,2.07434 -0.414868,-0.0692 q -2.028241,-0.36877 -4.72488,-0.76059 l -0.161337,-0.0231 -0.06914,0.32268 -0.06914,0.32267 q -1.820807,8.3204 -3.756856,13.71368 -1.936048,5.37023 -4.356108,8.59697 -2.420061,3.22675 -5.646808,4.67879 -3.203699,1.45203 -7.5828559,1.45203 -1.1524097,0 -2.3048194,-0.16133 z m 28.4507613,-0.6684 6.13082,-31.52993 2.42006,-1.17546 -6.384349,28.0727 q 0.09219,-0.16134 0.09219,-0.20743 l 0.530109,-1.19851 q 1.359843,-3.08846 3.411133,-5.34718 1.936048,-2.09739 3.57247,-2.09739 0.875831,0 1.40594,0.57621 0.530108,0.55316 0.530108,1.49813 0,0.53011 -0.25353,1.49814 l -0.230482,0.96802 -0.714494,2.81188 -0.207434,0.89888 q -0.345723,1.38289 -0.345723,2.12043 0,0.73754 0.25353,1.19851 0.253531,0.43791 0.668398,0.43791 0.714494,0 2.281771,-1.70556 l 0.345723,0.32267 -0.207434,0.25353 q -1.313747,1.54423 -1.959096,2.09739 -0.622301,0.53011 -1.129362,0.53011 -0.714494,0 -1.221554,-0.76059 -0.50706,-0.76059 -0.50706,-1.77471 0,-0.62231 0.299626,-2.18958 l 0.875832,-4.88622 q 0.207434,-1.08327 0.207434,-1.61337 0,-0.48402 -0.253531,-0.73755 -0.25353,-0.25353 -0.691445,-0.25353 -0.852784,0 -1.959097,1.01412 -1.106313,0.99108 -2.235675,2.76579 -1.106313,1.77471 -1.936048,3.80295 -0.829735,2.00519 -1.244603,4.12563 z m 27.044824,-3.80295 0.414867,0.34572 q -1.428988,1.88995 -2.788831,2.74273 -1.359844,0.82974 -2.927121,0.82974 -1.866904,0 -2.996265,-1.2446 -1.129362,-1.24461 -1.129362,-3.29589 0,-2.07434 1.083265,-4.19478 1.106314,-2.14348 2.742735,-3.52637 1.65947,-1.40594 3.272844,-1.40594 0.944976,0 1.544229,0.55316 0.622301,0.55315 0.622301,1.42899 0,1.77471 -1.936048,3.54942 -1.936048,1.77471 -5.278037,3.01931 -0.02305,0.18439 -0.02305,0.41487 0,1.59032 0.875832,2.60444 0.875831,0.99108 2.258723,0.99108 1.083265,0 2.097385,-0.6684 1.014121,-0.69145 2.166531,-2.14348 z m -7.375423,-1.75167 q 2.489205,-1.10631 3.826001,-2.46615 0.898879,-0.92193 1.452036,-1.98215 0.553157,-1.06021 0.553157,-1.913 0,-1.08326 -0.991073,-1.08326 -1.498132,0 -3.042361,2.37396 -1.521181,2.35092 -1.79776,5.0706 z m 32.885304,1.86691 q -1.40594,1.98214 -2.742735,2.90407 -1.313747,0.89888 -2.927121,0.89888 -1.77471,0 -2.904072,-1.2446 -1.106313,-1.24461 -1.106313,-3.22675 0,-2.07434 1.083265,-4.21782 1.083265,-2.14348 2.765783,-3.54942 1.705566,-1.40594 3.272844,-1.40594 1.060217,0 1.705566,0.59925 0.645349,0.57621 0.645349,1.56728 0,0.89888 -0.691445,1.72861 -0.668398,0.80669 -1.452037,0.80669 -0.345723,0 -0.622301,-0.27658 1.498133,-0.6684 1.498133,-2.4892 0,-0.64535 -0.345723,-0.99108 -0.322675,-0.36877 -0.875832,-0.36877 -0.852783,0 -1.728614,0.69145 -0.852783,0.69145 -1.613374,1.93605 -0.76059,1.22155 -1.198506,2.62749 -0.414867,1.38289 -0.414867,2.81188 0,1.70557 0.806687,2.76578 0.806686,1.06022 2.120433,1.06022 1.129362,0 2.189579,-0.71449 1.060217,-0.7145 2.212626,-2.18958 z m 4.411495,-0.96803 q 0,-2.07433 1.106313,-4.12562 1.129361,-2.07434 2.904072,-3.36504 1.774711,-1.2907 3.618567,-1.2907 1.936045,0 3.111505,1.2907 1.19851,1.26765 1.19851,3.29589 0,2.21263 -1.10632,4.28697 -1.08326,2.07433 -2.881021,3.41113 -1.77471,1.31375 -3.595518,1.31375 -1.959096,0 -3.157602,-1.31375 -1.198506,-1.3368 -1.198506,-3.50333 z m 9.864627,-5.0706 q 0,-1.38289 -0.69145,-2.28177 -0.668394,-0.89888 -1.728611,-0.89888 -0.968024,0 -1.866904,0.6223 -0.875831,0.6223 -1.613373,1.82081 -0.829735,1.38289 -1.382892,3.22675 -0.530108,1.84385 -0.530108,3.27284 0,1.70557 0.668397,2.62749 0.668398,0.92193 1.913001,0.92193 2.005192,0 3.526373,-2.78883 0.783639,-1.42899 1.244607,-3.2037 0.46096,-1.77471 0.46096,-3.31894 z m 16.07388,9.24233 -1.52118,0.48401 1.82081,-9.38062 q 0,0 0.16133,-0.80668 0.13829,-0.6684 0.13829,-1.10632 0,-1.01412 -0.80668,-1.01412 -0.76059,0 -1.84386,1.03717 -1.08326,1.01412 -2.28177,2.95017 -0.78364,1.2446 -1.35984,2.39701 -0.55316,1.15241 -1.03717,2.46616 -0.46097,1.2907 -0.89888,2.97322 l -1.42899,0.48401 2.37396,-12.7687 2.21263,-0.94498 -2.00519,8.3665 q 1.54423,-3.57247 3.52637,-5.85424 2.00519,-2.30482 3.59552,-2.30482 1.72861,0 1.72861,1.95909 0,0.6684 -0.34572,2.37397 l -0.76059,3.43418 q 2.23568,-4.28697 3.7799,-6.03863 1.54423,-1.77471 3.06541,-1.77471 0.85279,0 1.3368,0.50706 0.48401,0.50706 0.48401,1.45204 0,0.76059 -0.46096,2.62749 l -0.7145,2.83493 -0.23048,0.89888 q -0.32267,1.42899 -0.32267,2.12043 0,0.73754 0.25353,1.19851 0.25353,0.43791 0.64535,0.43791 0.73754,0 2.30482,-1.70556 l 0.34572,0.32267 -0.20743,0.25353 q -1.31375,1.54423 -1.9591,2.09739 -0.6223,0.53011 -1.15241,0.53011 -0.71449,0 -1.22156,-0.7145 -0.48401,-0.73754 -0.48401,-1.8208 0,-0.6684 0.29963,-2.18958 l 0.85278,-4.77098 0.13829,-0.82973 q 0.13829,-0.69145 0.13829,-1.10632 0,-0.41487 -0.25353,-0.6684 -0.25353,-0.25353 -0.69145,-0.25353 -0.50706,0 -1.12936,0.43792 -0.59925,0.41487 -1.2907,1.2907 -0.69144,0.87583 -1.54422,2.30482 -1.15241,1.9591 -1.86691,3.66466 -0.71449,1.68252 -1.38289,4.14868 z m 25.15487,0 -1.52118,0.48401 1.82081,-9.38062 q 0,0 0.16133,-0.80668 0.13829,-0.6684 0.13829,-1.10632 0,-1.01412 -0.80668,-1.01412 -0.76059,0 -1.84386,1.03717 -1.08327,1.01412 -2.28177,2.95017 -0.78364,1.2446 -1.35984,2.39701 -0.55316,1.15241 -1.03717,2.46616 -0.46097,1.2907 -0.89888,2.97322 l -1.42899,0.48401 2.37396,-12.7687 2.21263,-0.94498 -2.00519,8.3665 q 1.54423,-3.57247 3.52637,-5.85424 2.00519,-2.30482 3.59552,-2.30482 1.72861,0 1.72861,1.95909 0,0.6684 -0.34572,2.37397 l -0.76059,3.43418 q 2.23567,-4.28697 3.7799,-6.03863 1.54423,-1.77471 3.06541,-1.77471 0.85279,0 1.3368,0.50706 0.48401,0.50706 0.48401,1.45204 0,0.76059 -0.46096,2.62749 l -0.7145,2.83493 -0.23048,0.89888 q -0.32267,1.42899 -0.32267,2.12043 0,0.73754 0.25353,1.19851 0.25353,0.43791 0.64535,0.43791 0.73754,0 2.30482,-1.70556 l 0.34572,0.32267 -0.20744,0.25353 q -1.31374,1.54423 -1.95909,2.09739 -0.6223,0.53011 -1.15241,0.53011 -0.7145,0 -1.22156,-0.7145 -0.48401,-0.73754 -0.48401,-1.8208 0,-0.6684 0.29963,-2.18958 l 0.85278,-4.77098 0.13829,-0.82973 q 0.13829,-0.69145 0.13829,-1.10632 0,-0.41487 -0.25353,-0.6684 -0.25353,-0.25353 -0.69145,-0.25353 -0.50706,0 -1.12936,0.43792 -0.59925,0.41487 -1.2907,1.2907 -0.69144,0.87583 -1.54423,2.30482 -1.15241,1.9591 -1.8669,3.66466 -0.71449,1.68252 -1.38289,4.14868 z m 20.54523,-13.22967 -2.23568,8.91965 q -0.29962,1.19851 -0.29962,2.02825 0,0.80668 0.50706,1.29069 0.50706,0.48402 1.31375,0.48402 1.95909,0 4.07953,-3.2037 l 0.0922,-0.13829 q 0.0461,-0.23048 0.0691,-0.36877 l 1.45204,-8.06687 2.25872,-0.94498 -2.02824,7.58286 q -0.50706,1.8669 -0.50706,2.99626 0,0.73755 0.25353,1.19851 0.25353,0.46096 0.6684,0.46096 0.71449,0 2.28177,-1.70556 l 0.36877,0.32267 -0.23048,0.25353 q -1.31375,1.54423 -1.93605,2.09739 -0.6223,0.53011 -1.15241,0.53011 -0.71449,0 -1.22155,-0.7145 -0.48402,-0.73754 -0.48402,-1.8208 0,-0.34573 0.0231,-0.64535 -2.39701,3.18065 -4.74792,3.18065 -1.17546,0 -1.88996,-0.6684 -0.69144,-0.69145 -0.69144,-1.82081 0,-0.87583 0.25353,-2.14348 l 1.56727,-8.15906 z m 12.59361,13.71368 2.44311,-12.7687 2.18958,-0.94498 -1.98214,8.45869 q 1.913,-4.03343 3.80295,-6.13082 1.88995,-2.09739 3.61856,-2.09739 0.85279,0 1.3829,0.57621 0.5301,0.55316 0.5301,1.49813 0,0.53011 -0.25353,1.49814 l -0.23048,0.96802 -0.69144,2.81188 -0.23048,0.89888 q -0.34573,1.38289 -0.34573,2.12043 0,0.73754 0.25353,1.19851 0.25353,0.43791 0.6684,0.43791 0.71449,0 2.28177,-1.70556 l 0.36877,0.32267 -0.23048,0.25353 q -1.31375,1.54423 -1.93605,2.09739 -0.6223,0.53011 -1.15241,0.53011 -0.71449,0 -1.22155,-0.7145 -0.48401,-0.73754 -0.48401,-1.8208 0,-0.73755 0.27657,-2.18958 l 0.89888,-4.88622 q 0.18439,-1.15241 0.18439,-1.61337 0,-0.48402 -0.25353,-0.73755 -0.25353,-0.25353 -0.69145,-0.25353 -1.59032,0 -3.91819,3.41114 -1.12936,1.63642 -1.8669,3.24979 -0.73755,1.59033 -1.65947,4.42526 l -0.20744,0.6223 z m 23.17273,-22.74857 q 0.59925,0 0.96802,0.36877 0.36877,0.36877 0.36877,0.96803 0,0.5762 -0.39182,0.96802 -0.39182,0.39182 -0.94497,0.39182 -0.53011,0 -0.94498,-0.41487 -0.41487,-0.41487 -0.41487,-0.94497 0,-0.55316 0.39182,-0.94498 0.39182,-0.39182 0.96803,-0.39182 z m -0.6684,9.03489 -2.02824,7.58286 q -0.50706,1.8669 -0.50706,2.99626 0,0.73755 0.25353,1.19851 0.25353,0.46096 0.6684,0.46096 0.71449,0 2.28177,-1.70556 l 0.36877,0.32267 -0.23048,0.25353 q -1.31375,1.54423 -1.93605,2.09739 -0.6223,0.53011 -1.15241,0.53011 -0.7145,0 -1.22156,-0.7145 -0.48401,-0.73754 -0.48401,-1.8208 0,-0.69145 0.27658,-2.18958 l 1.45204,-8.06687 z m 9.41296,1.17546 -1.75167,7.67505 q -0.27657,1.26765 -0.27657,1.79776 0,0.82973 0.39182,1.33679 0.39181,0.50706 1.03716,0.50706 0.6223,0 1.12937,-0.34572 0.5301,-0.36877 1.59032,-1.49813 l 0.27658,-0.27658 0.34572,0.34572 q -1.35984,1.65947 -2.28177,2.35092 -0.89888,0.6684 -1.77471,0.6684 -1.10631,0 -1.77471,-0.7145 -0.64535,-0.73754 -0.64535,-1.913 0,-0.87583 0.34572,-2.5353 l 1.49813,-7.39847 h -2.21262 l 0.16134,-0.78364 h 2.21262 l 1.2907,-6.22301 2.21263,-0.87583 -1.61338,7.09884 h 3.73381 l -0.16134,0.78364 z m 4.82635,20.48985 1.12936,-1.52119 q 1.3368,1.42899 3.01931,1.42899 1.77471,0 2.85798,-1.40594 1.08326,-1.40594 1.77471,-4.60964 l 1.06022,-4.77097 q -2.5353,2.97321 -4.58659,2.97321 -1.19851,0 -1.88996,-0.73754 -0.66839,-0.73754 -0.66839,-1.98214 0,-0.82974 0.20743,-1.82081 l 1.56728,-8.2743 2.23567,-0.94498 -2.23567,9.28843 q -0.27658,1.12936 -0.27658,1.68251 0,0.78364 0.46096,1.2907 0.48402,0.48401 1.26765,0.48401 0.85279,0 1.86691,-0.73754 1.03717,-0.76059 2.30482,-2.25872 l 1.98214,-8.80441 2.16653,-0.94498 -3.36503,13.55234 q -0.59926,2.44311 -1.15241,3.826 -0.53011,1.38289 -1.24461,2.30482 -2.25872,2.90407 -5.50851,2.90407 -1.88996,0 -2.97322,-0.92192 z m 32.51653,-20.48985 h -2.25872 l 0.16134,-0.78364 h 2.28177 l 2.16653,-10.11815 q 0.55316,-2.51226 1.12936,-4.01039 0.57621,-1.49813 1.38289,-2.5814 1.98215,-2.65054 4.93232,-2.65054 0.99107,0 1.8208,0.32267 l -0.82973,2.09739 q -0.92193,-1.2907 -2.35092,-1.2907 -1.08326,0 -1.77471,0.85278 -0.6684,0.82974 -1.15241,2.76579 l -3.52637,14.61255 h 3.71076 l -0.16134,0.78364 h -3.73381 l -3.1576,13.09138 q -0.6223,2.62749 -1.19851,3.91819 -0.59925,1.2907 -1.61337,2.39701 -1.84386,2.00519 -4.03343,2.00519 -1.06022,0 -1.88996,-0.36877 l 1.12937,-1.65947 q 0.96802,0.78364 2.09738,0.78364 1.70557,0 2.55835,-1.79776 0.6223,-1.33679 1.31375,-4.42525 z m 7.52301,7.88248 q 0,-2.07433 1.10631,-4.12562 1.12936,-2.07434 2.90407,-3.36504 1.77472,-1.2907 3.61857,-1.2907 1.93605,0 3.11151,1.2907 1.1985,1.26765 1.1985,3.29589 0,2.21263 -1.10631,4.28697 -1.08327,2.07433 -2.88102,3.41113 -1.77472,1.31375 -3.59552,1.31375 -1.9591,0 -3.15761,-1.31375 -1.1985,-1.3368 -1.1985,-3.50333 z m 9.86463,-5.0706 q 0,-1.38289 -0.69145,-2.28177 -0.6684,-0.89888 -1.72861,-0.89888 -0.96803,0 -1.86691,0.6223 -0.87583,0.6223 -1.61337,1.82081 -0.82974,1.38289 -1.38289,3.22675 -0.53011,1.84385 -0.53011,3.27284 0,1.70557 0.6684,2.62749 0.66839,0.92193 1.913,0.92193 2.00519,0 3.52637,-2.78883 0.78364,-1.42899 1.2446,-3.2037 0.46097,-1.77471 0.46097,-3.31894 z m 6.78547,2.95017 q 1.98214,-2.39701 2.65054,-4.47135 -1.8669,-1.03717 -1.8669,-2.97322 0,-0.92192 0.43791,-1.49813 0.43792,-0.5762 1.10632,-0.5762 0.69144,0 1.12936,0.64534 0.43791,0.62231 0.43791,1.63643 0,0.71449 -0.25353,1.59032 0.62231,0.16134 1.12937,0.16134 1.42898,0 2.35091,-0.82974 h 1.10631 l -0.16133,0.32268 q -1.65947,3.04236 -2.74274,5.99253 -1.06021,2.92712 -1.06021,4.37916 0,0.5301 0.27657,0.89888 0.27658,0.34572 0.6684,0.34572 0.94498,0 3.04236,-2.00519 l 0.36877,0.41486 q -0.64535,0.7145 -2.00519,1.77471 -1.22155,0.96803 -2.28177,0.96803 -0.89888,0 -1.42899,-0.59925 -0.50706,-0.59926 -0.50706,-1.63643 0,-1.72861 1.3368,-4.37915 0.48401,-0.99108 1.2446,-2.25873 0.76059,-1.26765 1.913,-3.01931 l 0.23048,-0.32267 q -0.76059,0.69144 -1.47508,0.99107 -0.69145,0.27658 -1.59033,0.27658 -0.41487,0 -0.87583,-0.11524 -0.73754,2.25872 -2.76578,4.65573 z m 3.1576,-5.85424 q 0.0922,-0.57621 0.0922,-0.96803 0,-0.80668 -0.27657,-1.26765 -0.25353,-0.46096 -0.6684,-0.46096 -0.23048,0 -0.41487,0.23048 -0.16134,0.20744 -0.16134,0.53011 0,1.08326 1.42899,1.93605 z m 30.55743,8.9427 q -1.40594,1.98214 -2.74273,2.90407 -1.31375,0.89888 -2.92712,0.89888 -1.77472,0 -2.90408,-1.2446 -1.10631,-1.24461 -1.10631,-3.22675 0,-2.07434 1.08326,-4.21782 1.08327,-2.14348 2.76579,-3.54942 1.70556,-1.40594 3.27284,-1.40594 1.06022,0 1.70557,0.59925 0.64535,0.57621 0.64535,1.56728 0,0.89888 -0.69145,1.72861 -0.6684,0.80669 -1.45203,0.80669 -0.34573,0 -0.62231,-0.27658 1.49814,-0.6684 1.49814,-2.4892 0,-0.64535 -0.34573,-0.99108 -0.32267,-0.36877 -0.87583,-0.36877 -0.85278,0 -1.72861,0.69145 -0.85279,0.69145 -1.61338,1.93605 -0.76059,1.22155 -1.1985,2.62749 -0.41487,1.38289 -0.41487,2.81188 0,1.70557 0.80669,2.76578 0.80668,1.06022 2.12043,1.06022 1.12936,0 2.18958,-0.71449 1.06022,-0.7145 2.21263,-2.18958 z m 9.09028,-10.02597 -2.23568,8.91965 q -0.29962,1.19851 -0.29962,2.02825 0,0.80668 0.50706,1.29069 0.50706,0.48402 1.31374,0.48402 1.9591,0 4.07953,-3.2037 l 0.0922,-0.13829 q 0.0461,-0.23048 0.0691,-0.36877 l 1.45204,-8.06687 2.25872,-0.94498 -2.02824,7.58286 q -0.50706,1.8669 -0.50706,2.99626 0,0.73755 0.25353,1.19851 0.25353,0.46096 0.6684,0.46096 0.71449,0 2.28177,-1.70556 l 0.36877,0.32267 -0.23048,0.25353 q -1.31375,1.54423 -1.93605,2.09739 -0.6223,0.53011 -1.15241,0.53011 -0.71449,0 -1.22155,-0.7145 -0.48402,-0.73754 -0.48402,-1.8208 0,-0.34573 0.023,-0.64535 -2.39701,3.18065 -4.74793,3.18065 -1.17545,0 -1.88995,-0.6684 -0.69144,-0.69145 -0.69144,-1.82081 0,-0.87583 0.25353,-2.14348 l 1.56727,-8.15906 z m 10.77279,22.63333 4.35611,-21.68835 2.21263,-0.94498 -1.52119,6.61483 q 1.70557,-3.43418 3.2037,-4.93231 1.52118,-1.52118 3.31894,-1.52118 1.3829,0 2.18958,1.01412 0.80669,1.01412 0.80669,2.78883 0,1.79776 -0.73754,3.68771 -0.7145,1.88996 -2.02824,3.43418 -2.37397,2.85798 -5.23194,2.85798 -1.79776,0 -2.95017,-0.94498 l -2.37397,9.63415 z m 3.96429,-11.15533 q 0.96802,1.88996 2.71969,1.88996 2.5353,0 4.42525,-4.12563 1.54423,-3.31894 1.54423,-5.57766 0,-1.22156 -0.46096,-1.88996 -0.46097,-0.66839 -1.31375,-0.66839 -1.38289,0 -2.90407,1.8208 -1.45204,1.79776 -2.46616,4.01039 -0.39182,0.87583 -0.73754,1.8669 -0.32268,0.99108 -0.6223,2.02824 z m 14.06868,0.53011 1.2907,-1.52118 q 1.01412,2.39701 3.22675,2.39701 1.15241,0 1.95909,-0.73754 0.82974,-0.76059 0.82974,-1.75166 0,-0.7145 -0.39182,-1.22156 -0.39182,-0.50706 -1.8669,-1.70556 -1.35985,-1.10632 -1.84386,-1.72862 -0.46096,-0.64535 -0.46096,-1.47508 0,-1.08327 0.6223,-2.00519 0.64535,-0.92193 1.70556,-1.47509 1.06022,-0.5762 2.23568,-0.5762 1.03717,0 1.72861,0.53011 0.7145,0.50706 0.7145,1.31374 0,1.06022 -0.89888,1.45204 -0.13829,-1.08327 -0.82974,-1.68252 -0.66839,-0.6223 -1.72861,-0.6223 -0.94498,0 -1.65947,0.6223 -0.69145,0.59925 -0.69145,1.38289 0,0.96803 1.19851,1.913 l 1.33679,1.08327 q 1.9591,1.54423 1.9591,3.1576 0,1.19851 -0.69144,2.25872 -0.6684,1.03717 -1.84386,1.65947 -1.15241,0.6223 -2.44311,0.6223 -2.05129,0 -3.45723,-1.88995 z m 38.14031,-12.1464 -2.16653,8.43564 q -0.34573,1.38289 -0.34573,2.16653 0,0.69145 0.29963,1.19851 0.29963,0.50706 0.73754,0.50706 0.6684,0 2.21263,-1.63642 l 0.32268,0.32267 -0.25354,0.29963 q -1.22155,1.40594 -1.88995,1.98214 -0.64535,0.55316 -1.12936,0.55316 -0.73754,0 -1.2907,-0.76059 -0.53011,-0.78364 -0.53011,-1.79776 0,-0.73754 0.55316,-3.34199 l 0.18439,-0.87583 q -0.85279,1.98215 -2.28177,3.80295 -2.39702,3.04236 -4.5866,3.04236 -1.31374,0 -2.07433,-0.94497 -0.76059,-0.94498 -0.76059,-2.5353 0,-2.16653 1.22155,-4.5405 1.2446,-2.37396 3.06541,-3.89514 1.84386,-1.54423 3.57247,-1.54423 1.82081,0 2.71969,1.33679 l 0.25353,-0.87583 z m -2.65054,2.95017 q -0.27658,-0.87583 -0.94498,-1.35984 -0.64535,-0.50706 -1.49813,-0.50706 -1.01412,0 -2.14348,0.94497 -1.12937,0.92193 -2.07434,2.5814 -0.73754,1.31375 -1.2446,2.90408 -0.48402,1.59032 -0.48402,2.62749 0,1.17546 0.43792,1.84385 0.46096,0.6684 1.2907,0.6684 1.06021,0 2.21262,-0.99107 1.15241,-0.99107 2.28178,-2.83493 0.69144,-1.06021 1.08326,-2.12043 0.39182,-1.06022 0.87583,-2.95017 z m 8.0531,10.9018 2.44311,-12.7687 2.18958,-0.94498 -1.98214,8.45869 q 1.913,-4.03343 3.80295,-6.13082 1.88995,-2.09739 3.61856,-2.09739 0.85279,0 1.3829,0.57621 0.5301,0.55316 0.5301,1.49813 0,0.53011 -0.25353,1.49814 l -0.23048,0.96802 -0.69144,2.81188 -0.23049,0.89888 q -0.34572,1.38289 -0.34572,2.12043 0,0.73754 0.25353,1.19851 0.25353,0.43791 0.6684,0.43791 0.71449,0 2.28177,-1.70556 l 0.36877,0.32267 -0.23048,0.25353 q -1.31375,1.54423 -1.93605,2.09739 -0.6223,0.53011 -1.15241,0.53011 -0.71449,0 -1.22155,-0.7145 -0.48401,-0.73754 -0.48401,-1.8208 0,-0.73755 0.27657,-2.18958 l 0.89888,-4.88622 q 0.18439,-1.15241 0.18439,-1.61337 0,-0.48402 -0.25353,-0.73755 -0.25353,-0.25353 -0.69145,-0.25353 -1.59032,0 -3.91819,3.41114 -1.12936,1.63642 -1.8669,3.24979 -0.73755,1.59033 -1.65947,4.42526 l -0.20744,0.6223 z m 34.62769,-32.70539 -6.10777,26.57457 q -0.48401,2.12043 -0.48401,2.95017 0,0.73754 0.25353,1.1985 0.27658,0.46097 0.73754,0.46097 0.59926,0 1.45204,-0.89888 l 0.6684,-0.6684 q 0.023,-0.0231 0.0461,-0.0461 0.023,-0.023 0.0691,-0.0461 l 0.34572,0.32267 -0.18439,0.20744 q -0.87583,0.96802 -0.89888,0.99107 l -0.76059,0.76059 q -0.5762,0.5762 -0.85278,0.71449 -0.25353,0.16134 -0.5762,0.16134 -0.76059,0 -1.26765,-0.78364 -0.50706,-0.78364 -0.50706,-1.79776 0,-0.59925 0.32267,-2.18958 l 0.25353,-1.31374 q -0.59925,1.45203 -1.88995,3.1576 -2.32787,2.99626 -4.51745,2.99626 -1.31374,0 -2.07434,-0.94497 -0.76059,-0.96803 -0.76059,-2.60445 0,-2.28177 1.19851,-4.60964 1.19851,-2.35091 3.04236,-3.87209 1.86691,-1.52118 3.71076,-1.52118 1.35984,0 2.5353,0.80668 l 3.75686,-18.83037 z m -6.45349,21.15824 q -0.20743,-0.6223 -0.85278,-0.99107 -0.64535,-0.39182 -1.3829,-0.39182 -1.08326,0 -2.23567,0.96803 -1.12936,0.96802 -2.14348,2.74273 -0.73754,1.31375 -1.22156,2.88103 -0.46096,1.54422 -0.46096,2.81187 0,1.10632 0.46096,1.77472 0.48402,0.66839 1.31375,0.66839 0.96802,0 2.07434,-0.99107 1.12936,-0.99107 2.25872,-2.85797 0.76059,-1.26766 1.19851,-2.6275 0.53011,-1.75166 0.76059,-2.81188 z m 27.83772,11.06314 -1.52118,0.48401 1.82081,-9.38062 q 0,0 0.16134,-0.80668 0.13829,-0.6684 0.13829,-1.10632 0,-1.01412 -0.80669,-1.01412 -0.76059,0 -1.84386,1.03717 -1.08326,1.01412 -2.28177,2.95017 -0.78364,1.2446 -1.35984,2.39701 -0.55316,1.15241 -1.03717,2.46616 -0.46096,1.2907 -0.89888,2.97322 l -1.42899,0.48401 2.37397,-12.7687 2.21262,-0.94498 -2.00519,8.3665 q 1.54423,-3.57247 3.52637,-5.85424 2.0052,-2.30482 3.59552,-2.30482 1.72862,0 1.72862,1.95909 0,0.6684 -0.34573,2.37397 l -0.76059,3.43418 q 2.23568,-4.28697 3.77991,-6.03863 1.54423,-1.77471 3.06541,-1.77471 0.85278,0 1.33679,0.50706 0.48401,0.50706 0.48401,1.45204 0,0.76059 -0.46096,2.62749 l -0.71449,2.83493 -0.23049,0.89888 q -0.32267,1.42899 -0.32267,2.12043 0,0.73754 0.25353,1.19851 0.25353,0.43791 0.64535,0.43791 0.73754,0 2.30482,-1.70556 l 0.34572,0.32267 -0.20743,0.25353 q -1.31375,1.54423 -1.9591,2.09739 -0.6223,0.53011 -1.15241,0.53011 -0.71449,0 -1.22155,-0.7145 -0.48401,-0.73754 -0.48401,-1.8208 0,-0.6684 0.29962,-2.18958 l 0.85279,-4.77098 0.13828,-0.82973 q 0.13829,-0.69145 0.13829,-1.10632 0,-0.41487 -0.25353,-0.6684 -0.25353,-0.25353 -0.69144,-0.25353 -0.50706,0 -1.12936,0.43792 -0.59926,0.41487 -1.2907,1.2907 -0.69145,0.87583 -1.54423,2.30482 -1.15241,1.9591 -1.86691,3.66466 -0.71449,1.68252 -1.38289,4.14868 z m 20.54524,-13.22967 -2.23567,8.91965 q -0.29963,1.19851 -0.29963,2.02825 0,0.80668 0.50706,1.29069 0.50706,0.48402 1.31375,0.48402 1.95909,0 4.07953,-3.2037 l 0.0922,-0.13829 q 0.0461,-0.23048 0.0691,-0.36877 l 1.45204,-8.06687 2.25872,-0.94498 -2.02824,7.58286 q -0.50706,1.8669 -0.50706,2.99626 0,0.73755 0.25353,1.19851 0.25353,0.46096 0.6684,0.46096 0.71449,0 2.28177,-1.70556 l 0.36877,0.32267 -0.23048,0.25353 q -1.31375,1.54423 -1.93605,2.09739 -0.6223,0.53011 -1.15241,0.53011 -0.71449,0 -1.22155,-0.7145 -0.48401,-0.73754 -0.48401,-1.8208 0,-0.34573 0.023,-0.64535 -2.39701,3.18065 -4.74792,3.18065 -1.17546,0 -1.88996,-0.6684 -0.69144,-0.69145 -0.69144,-1.82081 0,-0.87583 0.25353,-2.14348 l 1.56728,-8.15906 z m 25.24706,-0.13829 -3.52638,14.03635 q -0.5301,2.25873 -0.94497,3.31894 -0.39182,1.06022 -0.96803,1.93605 -1.08326,1.65947 -2.65054,2.5353 -1.54423,0.89888 -3.34199,0.89888 -1.63642,0 -2.88102,-0.92192 l 1.17546,-1.52119 q 1.49813,1.42899 2.97322,1.42899 0.94497,0 1.913,-0.59925 0.96802,-0.59925 1.42898,-1.47508 0.59926,-1.06022 1.24461,-3.84905 l 1.77471,-7.60591 q -3.08846,5.76205 -6.26911,5.76205 -1.2907,0 -2.09739,-0.96802 -0.78364,-0.99108 -0.78364,-2.51226 0,-2.16653 1.22156,-4.51744 1.22155,-2.35092 3.06541,-3.89515 1.8669,-1.56727 3.61856,-1.56727 1.63643,0 2.71969,1.22155 l 0.20743,-0.80669 z m -2.5814,2.85798 q -0.89888,-1.72861 -2.37396,-1.72861 -1.54423,0 -3.04236,1.70556 -1.22156,1.42899 -2.09739,3.59552 -0.85278,2.14348 -0.85278,3.84905 0,1.15241 0.48401,1.82081 0.50706,0.64535 1.40594,0.64535 0.92193,0 2.02824,-1.01413 1.12936,-1.01412 2.23567,-2.85797 1.26765,-2.09739 1.9591,-4.97841 z m 5.54086,9.28842 1.2907,-1.52118 q 1.01412,2.39701 3.22675,2.39701 1.15241,0 1.95909,-0.73754 0.82974,-0.76059 0.82974,-1.75166 0,-0.7145 -0.39182,-1.22156 -0.39182,-0.50706 -1.8669,-1.70556 -1.35985,-1.10632 -1.84386,-1.72862 -0.46096,-0.64535 -0.46096,-1.47508 0,-1.08327 0.6223,-2.00519 0.64535,-0.92193 1.70556,-1.47509 1.06022,-0.5762 2.23568,-0.5762 1.03717,0 1.72861,0.53011 0.7145,0.50706 0.7145,1.31374 0,1.06022 -0.89888,1.45204 -0.13829,-1.08327 -0.82974,-1.68252 -0.6684,-0.6223 -1.72861,-0.6223 -0.94498,0 -1.65947,0.6223 -0.69145,0.59925 -0.69145,1.38289 0,0.96803 1.19851,1.913 l 1.33679,1.08327 q 1.9591,1.54423 1.9591,3.1576 0,1.19851 -0.69145,2.25872 -0.66839,1.03717 -1.84385,1.65947 -1.15241,0.6223 -2.44311,0.6223 -2.05129,0 -3.45723,-1.88995 z m 33.7842,-30.99982 -6.06168,26.57457 -0.20743,0.89888 q -0.29963,1.26765 -0.29963,2.14348 0,0.71449 0.25353,1.17546 0.27658,0.43791 0.6684,0.43791 0.71449,0 2.28177,-1.70556 l 0.36877,0.32267 -0.23048,0.25353 q -1.31375,1.54423 -1.93605,2.09739 -0.6223,0.53011 -1.15241,0.53011 -0.69144,0 -1.22155,-0.76059 -0.50706,-0.78364 -0.50706,-1.77471 0,-0.69145 0.29963,-2.18958 l 5.32413,-26.8281 z m 0.97729,28.04965 q 0,-2.07433 1.10631,-4.12562 1.12936,-2.07434 2.90407,-3.36504 1.77471,-1.2907 3.61857,-1.2907 1.93605,0 3.11151,1.2907 1.1985,1.26765 1.1985,3.29589 0,2.21263 -1.10631,4.28697 -1.08327,2.07433 -2.88103,3.41113 -1.77471,1.31375 -3.59551,1.31375 -1.9591,0 -3.15761,-1.31375 -1.1985,-1.3368 -1.1985,-3.50333 z m 9.86462,-5.0706 q 0,-1.38289 -0.69144,-2.28177 -0.6684,-0.89888 -1.72862,-0.89888 -0.96802,0 -1.8669,0.6223 -0.87583,0.6223 -1.61337,1.82081 -0.82974,1.38289 -1.3829,3.22675 -0.5301,1.84385 -0.5301,3.27284 0,1.70557 0.66839,2.62749 0.6684,0.92193 1.913,0.92193 2.0052,0 3.52638,-2.78883 0.78364,-1.42899 1.2446,-3.2037 0.46096,-1.77471 0.46096,-3.31894 z m 7.40776,-3.04236 2.07434,-0.94498 v 0.59926 q 0.0691,3.36503 0.39182,7.07579 0.18439,1.93605 0.32268,2.88103 0.13828,0.92192 0.32267,1.2446 0.18439,0.32267 0.50706,0.32267 0.85278,0 3.04236,-3.24979 1.9591,-2.85798 1.9591,-5.27804 0,-0.85278 -0.20744,-1.40594 -0.20743,-0.5762 -0.78363,-1.15241 l 1.72861,-1.61337 q 0.80669,1.06022 0.80669,2.5814 0,3.06541 -3.64162,8.08991 -1.10631,1.52118 -2.35091,2.71969 -0.57621,0.53011 -0.94498,0.73754 -0.34572,0.23048 -0.69144,0.23048 -0.55316,0 -0.80669,-0.43791 -0.25353,-0.43792 -0.39182,-1.65947 z m 23.67984,8.96575 0.41487,0.34572 q -1.42899,1.88995 -2.78883,2.74273 -1.35985,0.82974 -2.92712,0.82974 -1.86691,0 -2.99627,-1.2446 -1.12936,-1.24461 -1.12936,-3.29589 0,-2.07434 1.08326,-4.19478 1.10632,-2.14348 2.74274,-3.52637 1.65947,-1.40594 3.27284,-1.40594 0.94498,0 1.54423,0.55316 0.6223,0.55315 0.6223,1.42899 0,1.77471 -1.93604,3.54942 -1.93605,1.77471 -5.27804,3.01931 -0.0231,0.18439 -0.0231,0.41487 0,1.59032 0.87583,2.60444 0.87583,0.99108 2.25873,0.99108 1.08326,0 2.09738,-0.6684 1.01412,-0.69145 2.16653,-2.14348 z m -7.37542,-1.75167 q 2.4892,-1.10631 3.826,-2.46615 0.89888,-0.92193 1.45204,-1.98215 0.55315,-1.06021 0.55315,-1.913 0,-1.08326 -0.99107,-1.08326 -1.49813,0 -3.04236,2.37396 -1.52118,2.35092 -1.79776,5.0706 z m 12.20176,-1.22155 q 1.98215,-2.39701 2.65054,-4.47135 -1.8669,-1.03717 -1.8669,-2.97322 0,-0.92192 0.43792,-1.49813 0.43791,-0.5762 1.10631,-0.5762 0.69144,0 1.12936,0.64534 0.43792,0.62231 0.43792,1.63643 0,0.71449 -0.25353,1.59032 0.6223,0.16134 1.12936,0.16134 1.42899,0 2.35091,-0.82974 h 1.10632 l -0.16134,0.32268 q -1.65947,3.04236 -2.74274,5.99253 -1.06021,2.92712 -1.06021,4.37916 0,0.5301 0.27658,0.89888 0.27657,0.34572 0.66839,0.34572 0.94498,0 3.04236,-2.00519 l 0.36878,0.41486 q -0.64535,0.7145 -2.0052,1.77471 -1.22155,0.96803 -2.28177,0.96803 -0.89888,0 -1.42899,-0.59925 -0.50706,-0.59926 -0.50706,-1.63643 0,-1.72861 1.3368,-4.37915 0.48401,-0.99108 1.2446,-2.25873 0.76059,-1.26765 1.913,-3.01931 l 0.23048,-0.32267 q -0.76059,0.69144 -1.47508,0.99107 -0.69145,0.27658 -1.59033,0.27658 -0.41486,0 -0.87583,-0.11524 -0.73754,2.25872 -2.76578,4.65573 z m 3.1576,-5.85424 q 0.0922,-0.57621 0.0922,-0.96803 0,-0.80668 -0.27658,-1.26765 -0.25353,-0.46096 -0.6684,-0.46096 -0.23048,0 -0.41487,0.23048 -0.16133,0.20744 -0.16133,0.53011 0,1.08326 1.42898,1.93605 z m 8.60624,10.92484 1.2907,-1.52118 q 1.01412,2.39701 3.22675,2.39701 1.15241,0 1.9591,-0.73754 0.82973,-0.76059 0.82973,-1.75166 0,-0.7145 -0.39182,-1.22156 -0.39182,-0.50706 -1.8669,-1.70556 -1.35984,-1.10632 -1.84386,-1.72862 -0.46096,-0.64535 -0.46096,-1.47508 0,-1.08327 0.6223,-2.00519 0.64535,-0.92193 1.70557,-1.47509 1.06021,-0.5762 2.23567,-0.5762 1.03717,0 1.72862,0.53011 0.71449,0.50706 0.71449,1.31374 0,1.06022 -0.89888,1.45204 -0.13829,-1.08327 -0.82973,-1.68252 -0.6684,-0.6223 -1.72862,-0.6223 -0.94497,0 -1.65947,0.6223 -0.69144,0.59925 -0.69144,1.38289 0,0.96803 1.1985,1.913 l 1.3368,1.08327 q 1.95909,1.54423 1.95909,3.1576 0,1.19851 -0.69144,2.25872 -0.6684,1.03717 -1.84386,1.65947 -1.15241,0.6223 -2.44311,0.6223 -2.05129,0 -3.45723,-1.88995 z m 24.8322,-27.70393 -5.8312,23.50916 -0.64535,0.29963 3.41114,-22.4259 z m -6.77617,25.69874 q 0.80668,0 1.33679,0.53011 0.53011,0.53011 0.53011,1.33679 0,0.80669 -0.53011,1.3368 -0.53011,0.53011 -1.33679,0.53011 -0.78364,0 -1.3368,-0.53011 -0.55316,-0.53011 -0.55316,-1.3368 0,-0.80668 0.55316,-1.33679 0.55316,-0.53011 1.3368,-0.53011 z"
       id="text29"
       inkscape:label="text29"
       aria-label="The community for cups and mugs lovers!"
       inkscape:export-filename="firstBodyImage.svg"
       inkscape:export-xdpi="96"
       inkscape:export-ydpi="96" /></g></svg>
