<?xml version="1.0" encoding="UTF-8" standalone="no"?>
<!-- Created with Inkscape (http://www.inkscape.org/) -->

<svg
   width="41.000011mm"
   height="8.3292599mm"
   viewBox="0 0 41.000011 8.3292599"
   version="1.1"
   id="svg1"
   sodipodi:docname="logo.svg"
   xmlns:inkscape="http://www.inkscape.org/namespaces/inkscape"
   xmlns:sodipodi="http://sodipodi.sourceforge.net/DTD/sodipodi-0.dtd"
   xmlns="http://www.w3.org/2000/svg"
   xmlns:svg="http://www.w3.org/2000/svg">
  <sodipodi:namedview
     id="namedview1"
     pagecolor="#ffffff"
     bordercolor="#000000"
     borderopacity="0.25"
     inkscape:showpageshadow="2"
     inkscape:pageopacity="0.0"
     inkscape:pagecheckerboard="0"
     inkscape:deskcolor="#d1d1d1"
     inkscape:document-units="mm" />
  <defs
     id="defs1" />
  <g
     inkscape:label="Capa 1"
     inkscape:groupmode="layer"
     id="layer1"
     transform="translate(-50.651856,-106.99194)">
    <g
       id="text2"
       style="font-size:12.6641px;line-height:0;font-family:SignPainter;-inkscape-font-specification:SignPainter;letter-spacing:1.07933px;word-spacing:0px;white-space:pre;fill:#969696;fill-opacity:0.891599;stroke:#000000;stroke-opacity:0"
       inkscape:label="text2"
       transform="matrix(0.61284429,0,0,0.61284429,-49.456223,-24.796788)"
       aria-label="Cups &amp; Mugs!">
      <path
         d="m 168.28325,220.88865 c -0.73452,1.40571 -1.63367,2.21622 -2.3302,2.21622 -0.4559,0 -0.93714,-0.48124 -0.93714,-1.57035 0,-0.75985 0.24062,-1.7983 0.79784,-2.69745 1.05112,-1.69699 2.84942,-2.79877 3.15336,-2.4695 0.15197,0.16463 0,0.56988 -0.1773,1.01312 -0.076,0.18997 -0.16463,0.39259 -0.21529,0.58255 -0.0507,0.16464 -0.076,0.3166 -0.076,0.46857 0,0.36726 0.1773,0.64587 0.43058,0.81051 0.25328,0.15197 0.43058,0.0253 0.4939,-0.18997 0.0887,-0.27861 0.26594,-0.70918 0.48123,-1.13976 0.12664,-0.25329 0.1773,-0.50657 0.1773,-0.73452 0,-0.4939 -0.32927,-0.9878 -0.75985,-1.36772 -0.21529,-0.1773 -0.50656,-0.26595 -0.82316,-0.26595 -0.3166,0 -0.6712,0.0887 -1.00047,0.21529 -1.43104,0.64587 -3.69791,2.93807 -3.64726,5.49622 0.0253,1.03845 0.54456,1.83629 1.13977,2.1529 0.3166,0.17729 0.69653,0.26594 1.11444,0.26594 0.54456,0 1.11444,-0.15197 1.63367,-0.51923 0.45591,-0.34193 1.13977,-1.07645 1.13977,-1.81096 0,-0.12664 -0.0253,-0.27861 -0.0887,-0.41792 -0.12664,-0.29127 -0.41791,-0.21529 -0.50656,-0.038 z m 7.65199,1.53236 c 0.18997,-0.36726 0.13931,-0.73452 0.0887,-0.8485 -0.10131,-0.24062 -0.3166,-0.20263 -0.44324,0.0127 -0.45591,0.79784 -1.10178,1.67167 -1.51969,1.67167 -0.16464,0 -0.24062,-0.12665 -0.24062,-0.3546 0,-0.4939 0.4939,-1.35506 0.86116,-1.95027 0.44324,-0.73452 0.70919,-1.29174 0.70919,-1.72232 0,-0.27861 -0.0633,-0.48123 -0.18996,-0.65853 -0.15197,-0.21529 -0.3546,-0.16463 -0.5319,0.076 -0.4559,0.58255 -0.78517,1.44371 -1.53235,2.65946 -0.64587,1.01313 -1.31707,1.87429 -1.64633,1.87429 -0.27861,0 -0.24062,-0.46857 -0.0127,-0.97513 0.44325,-0.97514 1.36772,-2.44418 1.36772,-2.9634 0,-0.18997 -0.0507,-0.40525 -0.18996,-0.58255 -0.15197,-0.18996 -0.37992,-0.21529 -0.54455,0 -0.78518,1.10177 -1.43105,2.36818 -1.70966,3.16602 -0.11397,0.30394 -0.16463,0.59522 -0.16463,0.87383 0,0.54455 0.25328,1.02579 0.89915,1.02579 0.64587,0 1.21575,-0.39259 1.64633,-0.87383 0.0507,0.56989 0.43058,0.93715 1.17777,0.93715 0.78517,0 1.60834,-0.64587 1.97559,-1.36772 z m 2.62435,-1.8363 c 0.54455,-0.92448 1.24108,-1.50703 1.46903,-1.40571 0.0633,0.0253 0.0887,0.17729 0.0887,0.40525 0,0.41791 -0.15197,1.06378 -0.45591,1.65899 -0.51922,1.05112 -1.08911,1.74765 -1.4817,1.74765 -0.32926,0 -0.41791,-0.91182 -0.0253,-1.72232 z m 2.63413,-0.62054 c 0,-0.64587 -0.36726,-1.32973 -1.12711,-1.32973 -0.34193,0 -0.70918,0.16463 -1.02579,0.37992 0,-0.16463 -0.0253,-0.32926 -0.12664,-0.46857 -0.10131,-0.1393 -0.26594,-0.18996 -0.4939,0.0887 -0.78517,1.05112 -2.87475,4.98965 -3.24201,6.19274 -0.11397,0.3546 -0.15197,0.62055 -0.15197,0.82317 0,0.26595 0.0633,0.44324 0.25329,0.68386 0.12664,0.15197 0.27861,0.10131 0.37992,-0.12664 0.53189,-1.24108 1.07645,-2.33019 1.63367,-3.36865 0.29127,0.68386 0.91181,1.02579 1.91228,1.02579 1.05112,0 2.1149,-0.35459 2.68479,-1.38038 0.21528,-0.37993 0.20262,-0.73452 0.17729,-0.86116 -0.0507,-0.25329 -0.3166,-0.31661 -0.46857,-0.0253 -0.36726,0.73452 -1.08911,1.57035 -2.02626,1.76031 0.40526,-0.32927 0.82317,-0.89915 1.12711,-1.59568 0.29127,-0.60787 0.4939,-1.25374 0.4939,-1.7983 z m 2.94095,3.20402 c -0.27861,0 -0.54456,-0.44325 -0.69653,-1.03846 0.37993,-0.54456 0.73452,-1.08911 1.03846,-1.57035 0.0253,0.34193 0.038,0.74718 0.038,1.15244 0,0.82316 -0.11397,1.45637 -0.37992,1.45637 z m -1.73498,-1.21576 c 0,0.29128 0.076,0.59522 0.21529,0.83583 0.43058,0.79784 1.19042,1.00047 1.95027,0.97514 0.94981,-0.038 1.83629,-0.51923 2.31753,-1.40572 0.22795,-0.39258 0.18996,-0.74718 0.12664,-0.87382 -0.0887,-0.20262 -0.27861,-0.29127 -0.39259,0 -0.22795,0.62054 -0.58254,1.03846 -1.10177,1.39305 0.1393,-0.27861 0.20262,-0.6332 0.21529,-0.9498 0.0253,-0.68387 -0.13931,-1.50703 -0.13931,-2.40618 0,-0.16464 0.0127,-0.37993 0.0253,-0.5319 0.39259,-0.64586 0.3166,-0.92448 -0.0253,-0.92448 -0.18996,0 -0.41791,0.0887 -0.62054,0.26595 -0.29127,0.24062 -0.44324,0.53189 -0.4939,0.9878 -0.32927,0.54456 -0.77251,1.20309 -1.19042,1.7983 -0.038,-0.30394 -0.22796,-0.36726 -0.48124,-0.15197 -0.27861,0.24062 -0.40525,0.60788 -0.40525,0.9878 z"
         id="path1" />
      <path
         style="font-size:9.21024px;font-family:'Sinhala MN';-inkscape-font-specification:'Sinhala MN';letter-spacing:-0.27199px"
         d="m 192.37634,220.60162 q -0.22486,0.13042 -0.41824,0.28782 -0.18888,0.15741 -0.32829,0.33729 -0.13941,0.17539 -0.22036,0.37327 -0.0765,0.19788 -0.0765,0.41374 0,0.24285 0.0765,0.45422 0.081,0.21137 0.22486,0.36877 0.14391,0.1529 0.35078,0.24285 0.21136,0.0899 0.4722,0.0899 0.35528,0 0.67458,-0.1574 0.3238,-0.1574 0.61611,-0.38676 -0.20237,-0.22036 -0.39125,-0.46771 -0.18439,-0.24734 -0.35528,-0.50368 -0.17089,-0.26084 -0.32829,-0.52617 -0.15291,-0.26984 -0.29682,-0.52618 z m 0.6476,-0.66108 q 0.23385,-0.12143 0.43622,-0.25184 0.20238,-0.13042 0.35078,-0.27883 0.15291,-0.1529 0.23836,-0.33279 0.0854,-0.18439 0.0854,-0.40475 0,-0.21586 -0.0585,-0.38226 -0.054,-0.17089 -0.15291,-0.28782 -0.0944,-0.12142 -0.22485,-0.18438 -0.12593,-0.063 -0.27433,-0.063 -0.1664,0 -0.30581,0.0855 -0.13941,0.0855 -0.24285,0.22486 -0.0989,0.13492 -0.1574,0.30581 -0.0585,0.1664 -0.0585,0.33279 0,0.26983 0.0944,0.59363 0.0989,0.3238 0.26983,0.6431 z m 2.61286,0.40475 q -0.054,0.3193 -0.13491,0.57114 -0.0764,0.25184 -0.18888,0.4767 -0.10794,0.22036 -0.25634,0.43173 -0.14391,0.21137 -0.3283,0.44522 0.34628,0.35078 0.65209,0.55765 0.31031,0.20238 0.57115,0.20238 0.33729,0 0.57564,-0.13042 0.23835,-0.13492 0.38226,-0.47221 l 0.17089,0.063 q -0.0585,0.29232 -0.19338,0.51718 -0.13042,0.22486 -0.3238,0.38226 -0.19338,0.15291 -0.44072,0.22936 -0.24735,0.081 -0.53517,0.081 -0.36877,0 -0.76002,-0.20687 -0.38676,-0.21137 -0.76003,-0.56215 -0.44072,0.34178 -0.96239,0.55765 -0.51718,0.21137 -1.1198,0.21137 -0.42274,0 -0.71955,-0.0944 -0.29682,-0.0944 -0.4857,-0.26534 -0.18888,-0.17089 -0.27883,-0.40924 -0.0854,-0.23835 -0.0854,-0.52617 0,-0.40925 0.1529,-0.72405 0.1574,-0.3193 0.40925,-0.57114 0.25634,-0.25185 0.58013,-0.44522 0.3238,-0.19788 0.66559,-0.36428 -0.18888,-0.39575 -0.30131,-0.72854 -0.10794,-0.33279 -0.10794,-0.56215 0,-0.29681 0.0944,-0.57564 0.0989,-0.27883 0.29232,-0.49469 0.19788,-0.21587 0.49019,-0.34628 0.29232,-0.13042 0.67908,-0.13042 0.28782,0 0.53966,0.0854 0.25634,0.081 0.44522,0.24285 0.18889,0.1574 0.29682,0.39126 0.11243,0.22935 0.11243,0.52167 0,0.29232 -0.13941,0.51268 -0.13942,0.22036 -0.36428,0.39575 -0.22486,0.17539 -0.51268,0.3193 -0.28332,0.14391 -0.57564,0.28333 0.23386,0.44522 0.56215,0.88594 0.33279,0.43623 0.71506,0.85897 0.44522,-0.50369 0.66558,-0.93092 0.22486,-0.42724 0.29681,-0.74654 z"
         id="path2" />
      <path
         d="m 201.49872,222.58564 c 0,0.53189 0.21529,0.87382 0.55722,1.13977 0.18996,0.1393 0.30394,0.1393 0.44325,-0.11398 0.74718,-1.35506 1.9756,-3.06471 3.09004,-4.49575 -0.62054,1.26641 -1.24108,2.59614 -1.39305,3.19135 v -0.0127 c -0.076,0.27861 -0.10132,0.51923 -0.10132,0.72186 0,0.36726 0.13931,0.58255 0.29128,0.72185 0.20262,0.1773 0.3166,0.1773 0.40525,-0.076 0.62054,-1.77298 1.87429,-4.28047 2.74811,-5.91414 0.16463,-0.34193 0.30394,-0.69652 0.30394,-1.03845 0,-0.30394 -0.11398,-0.60788 -0.36726,-0.87383 -0.24062,-0.22795 -0.40525,-0.21529 -0.56989,0.0507 -1.40571,2.22888 -2.76077,3.46996 -4.0905,5.48355 0.45591,-1.69698 0.70919,-2.46949 1.10178,-3.60926 0.11397,-0.36726 0.17729,-0.68386 0.17729,-0.91182 0,-0.40525 -0.17729,-0.73452 -0.51922,-1.02579 -0.24062,-0.18996 -0.44325,-0.11398 -0.59522,0.0887 -1.32973,1.78564 -3.31799,5.10363 -3.83722,6.37004 -0.11398,0.27861 -0.1773,0.55722 -0.1773,0.79784 0,0.27861 0.0887,0.4939 0.22796,0.6332 0.16463,0.16464 0.35459,0.12664 0.43058,-0.0506 0.68386,-1.57035 1.81096,-3.39398 2.79876,-4.91367 -0.43058,1.39305 -0.79784,2.82409 -0.88648,3.39398 -0.0253,0.16463 -0.038,0.30393 -0.038,0.44324 z m 11.52721,-0.16463 c 0.18996,-0.36726 0.13931,-0.73452 0.0887,-0.8485 -0.10131,-0.24062 -0.3166,-0.20263 -0.44324,0.0127 -0.45591,0.79784 -1.10178,1.67167 -1.5197,1.67167 -0.16463,0 -0.24061,-0.12665 -0.24061,-0.3546 0,-0.4939 0.4939,-1.35506 0.86115,-1.95027 0.44325,-0.73452 0.70919,-1.29174 0.70919,-1.72232 0,-0.27861 -0.0633,-0.48123 -0.18996,-0.65853 -0.15197,-0.21529 -0.35459,-0.16463 -0.53189,0.076 -0.45591,0.58255 -0.78517,1.44371 -1.53236,2.65946 -0.64586,1.01313 -1.31706,1.87429 -1.64633,1.87429 -0.27861,0 -0.24062,-0.46857 -0.0127,-0.97513 0.44324,-0.97514 1.36772,-2.44418 1.36772,-2.9634 0,-0.18997 -0.0507,-0.40525 -0.18996,-0.58255 -0.15197,-0.18996 -0.37992,-0.21529 -0.54456,0 -0.78517,1.10177 -1.43104,2.36818 -1.70965,3.16602 -0.11398,0.30394 -0.16463,0.59522 -0.16463,0.87383 0,0.54455 0.25328,1.02579 0.89915,1.02579 0.64587,0 1.21575,-0.39259 1.64633,-0.87383 0.0507,0.56989 0.43058,0.93715 1.17776,0.93715 0.78517,0 1.60834,-0.64587 1.9756,-1.36772 z m 6.24627,-0.77251 c 0,-0.27862 -0.22795,-0.27862 -0.39258,-0.0633 -0.4939,0.68387 -1.12711,1.21576 -1.91228,1.69699 0.41791,-0.96247 0.92448,-1.88695 1.32973,-2.68479 0.3166,-0.6332 0.45591,-0.97513 0.45591,-1.31706 0,-0.26595 -0.0887,-0.50657 -0.20263,-0.64587 -0.16463,-0.18996 -0.39259,-0.20263 -0.54456,0.0887 -0.076,0.1393 -0.15196,0.26594 -0.20262,0.35459 -0.11398,-0.30394 -0.39259,-0.53189 -0.8105,-0.53189 -1.24109,0 -3.38132,2.08958 -3.38132,3.90054 0,0.75985 0.41792,1.27908 1.13977,1.27908 0.34193,0 0.6712,-0.12664 0.94981,-0.3166 l -0.16464,0.41791 c -1.54502,0.53189 -2.77343,1.83629 -2.77343,2.97606 0,0.39259 0.18996,0.72186 0.36726,0.9878 0.26594,0.3546 0.58254,0.40525 0.88648,0.29128 1.02579,-0.48124 1.95027,-2.40618 2.62147,-4.03985 1.03846,-0.37992 1.91228,-0.88649 2.39352,-1.63367 0.18996,-0.29127 0.24061,-0.55722 0.24061,-0.75984 z m -4.36911,1.54502 c -0.11398,0 -0.16463,-0.16464 -0.16463,-0.40526 0,-1.46903 1.95027,-3.4573 2.38085,-3.4573 0.0887,0 0.12664,0.076 0.12664,0.22796 0,0.32927 -0.22796,0.94981 -0.72186,1.81096 -0.62054,1.06379 -1.21575,1.8363 -1.621,1.82364 z m 0.26595,1.46903 c -0.24062,0.63321 -0.51923,1.19043 -0.77251,1.63367 -0.39259,0.68386 -0.70919,1.06378 -0.82317,0.97514 -0.12664,-0.11398 0.038,-0.70919 0.40525,-1.32974 0.26595,-0.44324 0.65853,-0.89915 1.19043,-1.27907 z m 6.14494,-1.49436 c -0.27861,0 -0.54455,-0.44325 -0.69652,-1.03846 0.37992,-0.54456 0.73452,-1.08911 1.03845,-1.57035 0.0253,0.34193 0.038,0.74718 0.038,1.15244 0,0.82316 -0.11398,1.45637 -0.37993,1.45637 z m -1.73498,-1.21576 c 0,0.29128 0.076,0.59522 0.21529,0.83583 0.43058,0.79784 1.19043,1.00047 1.95027,0.97514 0.94981,-0.038 1.8363,-0.51923 2.31753,-1.40572 0.22796,-0.39258 0.18997,-0.74718 0.12664,-0.87382 -0.0886,-0.20262 -0.27861,-0.29127 -0.39258,0 -0.22796,0.62054 -0.58255,1.03846 -1.10178,1.39305 0.13931,-0.27861 0.20263,-0.6332 0.21529,-0.9498 0.0253,-0.68387 -0.1393,-1.50703 -0.1393,-2.40618 0,-0.16464 0.0127,-0.37993 0.0253,-0.5319 0.39259,-0.64586 0.31661,-0.92448 -0.0253,-0.92448 -0.18997,0 -0.41792,0.0887 -0.62055,0.26595 -0.29127,0.24062 -0.44324,0.53189 -0.4939,0.9878 -0.32926,0.54456 -0.77251,1.20309 -1.19042,1.7983 -0.038,-0.30394 -0.22795,-0.36726 -0.48124,-0.15197 -0.27861,0.24062 -0.40525,0.60788 -0.40525,0.9878 z m 6.84147,-0.97513 c -0.12664,0.32926 -0.1773,0.60787 -0.1773,0.78517 0,0.30394 0.10132,0.50657 0.24062,0.64587 0.21529,0.21529 0.3166,0.16463 0.43058,-0.0633 0.63321,-1.38039 1.68433,-3.34332 2.36819,-4.57174 0.34193,-0.62054 0.46857,-1.11444 0.46857,-1.46903 0,-0.18997 -0.0633,-0.3546 -0.12664,-0.4939 -0.13931,-0.30394 -0.34193,-0.27861 -0.51923,-0.0127 -0.94981,1.38039 -2.19089,3.83722 -2.68479,5.17962 z m -1.03845,2.06425 c 0,0.12664 0.0633,0.30393 0.15196,0.4559 0.22796,0.3546 0.70919,0.43058 0.91182,0.18997 0.1393,-0.20263 0.24062,-0.55723 0.10131,-0.88649 -0.1393,-0.27861 -0.39258,-0.44325 -0.62054,-0.44325 -0.30394,0 -0.54455,0.3546 -0.54455,0.68387 z"
         id="path3" />
    </g>
  </g>
</svg>
