<?xml version="1.0" encoding="UTF-8" standalone="no"?>
<!-- Created with Inkscape (http://www.inkscape.org/) -->

<svg
   width="182.15392mm"
   height="35.089027mm"
   viewBox="0 0 182.15392 35.089027"
   version="1.1"
   id="svg5"
   sodipodi:docname="logo.svg"
   inkscape:version="1.3 (0e150ed, 2023-07-21)"
   xmlns:inkscape="http://www.inkscape.org/namespaces/inkscape"
   xmlns:sodipodi="http://sodipodi.sourceforge.net/DTD/sodipodi-0.dtd"
   xmlns="http://www.w3.org/2000/svg"
   xmlns:svg="http://www.w3.org/2000/svg">
  <sodipodi:namedview
     id="namedview7"
     pagecolor="#ffffff"
     bordercolor="#000000"
     borderopacity="0.25"
     inkscape:showpageshadow="2"
     inkscape:pageopacity="0.0"
     inkscape:pagecheckerboard="0"
     inkscape:deskcolor="#d1d1d1"
     inkscape:document-units="mm"
     showgrid="false"
     inkscape:zoom="0.66219625"
     inkscape:cx="314.86134"
     inkscape:cy="128.36074"
     inkscape:window-width="1512"
     inkscape:window-height="1057"
     inkscape:window-x="218"
     inkscape:window-y="32"
     inkscape:window-maximized="0"
     inkscape:current-layer="layer1" />
  <defs
     id="defs2">
    <rect
       x="194.70253"
       y="258.27887"
       width="466.88873"
       height="331.789"
       id="rect236" />
  </defs>
  <g
     inkscape:label="Capa 1"
     inkscape:groupmode="layer"
     id="layer1"
     transform="translate(-14.945096,-126.66307)">
    <path
       style="font-size:29.3333px;line-height:0;font-family:Gabriola;-inkscape-font-specification:Gabriola;baseline-shift:baseline;white-space:pre;fill:#969696;stroke:#000000;stroke-width:0.377953;stroke-opacity:0"
       d="m 214.03904,265.16077 q -0.78776,0.34375 -1.43229,0.64453 -0.63021,0.30078 -1.66146,0.63021 -0.87369,0.27213 -1.90494,0.45833 -1.01693,0.20052 -2.2487,0.20052 -2.32031,0 -4.22525,-0.64453 -1.89063,-0.65885 -3.29427,-2.04817 -1.375,-1.36068 -2.14843,-3.45182 -0.77344,-2.10547 -0.77344,-4.88411 0,-2.63542 0.74479,-4.71224 0.74479,-2.07682 2.14843,-3.50911 1.36068,-1.38932 3.27995,-2.11979 1.93359,-0.73046 4.28255,-0.73046 1.71874,0 3.42317,0.41536 1.71875,0.41536 3.80989,1.46094 v 3.36588 h -0.21484 q -1.76172,-1.47526 -3.49479,-2.14844 -1.73307,-0.67317 -3.70963,-0.67317 -1.61849,0 -2.92187,0.52994 -1.28906,0.51563 -2.30599,1.61849 -0.98828,1.07422 -1.54687,2.72135 -0.54427,1.63281 -0.54427,3.78125 0,2.24869 0.60156,3.86718 0.61588,1.61849 1.57552,2.63541 1.0026,1.0599 2.33463,1.57552 1.34635,0.50131 2.83593,0.50131 2.04818,0 3.83854,-0.70183 1.79036,-0.70182 3.35156,-2.10546 h 0.20052 z m 17.05857,1.54687 h -2.6927 v -1.77604 q -1.36068,1.07422 -2.60677,1.64714 -1.24609,0.57291 -2.75,0.57291 -2.52083,0 -3.92447,-1.53255 -1.40364,-1.54687 -1.40364,-4.52603 v -10.38411 h 2.6927 v 9.10937 q 0,1.21744 0.11458,2.09114 0.11459,0.85938 0.48698,1.47526 0.38672,0.63021 1.00261,0.91667 0.61588,0.28645 1.79036,0.28645 1.04557,0 2.27734,-0.54427 1.24609,-0.54427 2.32031,-1.38932 v -11.9453 h 2.6927 z m 19.37889,-8.1927 q 0,1.94792 -0.55859,3.56641 -0.5586,1.60416 -1.57552,2.72135 -0.94531,1.05989 -2.23437,1.64713 -1.27474,0.57292 -2.70703,0.57292 -1.24609,0 -2.26302,-0.27214 -1.0026,-0.27213 -2.04818,-0.84505 v 6.70312 h -2.6927 v -21.89972 h 2.6927 v 1.67578 q 1.07422,-0.90234 2.40625,-1.5039 1.34635,-0.61589 2.86458,-0.61589 2.89323,0 4.49739,2.19141 1.61849,2.17708 1.61849,6.05858 z m -2.77864,0.0716 q 0,-2.89323 -0.98828,-4.32552 -0.98828,-1.43229 -3.03646,-1.43229 -1.16015,0 -2.33463,0.5013 -1.17448,0.50131 -2.2487,1.31771 v 9.0664 q 1.14584,0.51562 1.96224,0.70182 0.83073,0.1862 1.8763,0.1862 2.2487,0 3.50911,-1.51823 1.26042,-1.51823 1.26042,-4.49739 z m 18.40492,3.50911 q 0,2.1914 -1.81901,3.59505 -1.80468,1.40364 -4.9414,1.40364 -1.77604,0 -3.26562,-0.41536 -1.47526,-0.42969 -2.47786,-0.93099 v -3.02213 h 0.14323 q 1.27473,0.95963 2.83593,1.53255 1.5612,0.55859 2.99349,0.55859 1.77604,0 2.77864,-0.57292 1.0026,-0.57291 1.0026,-1.80468 0,-0.94531 -0.54427,-1.43229 -0.54427,-0.48698 -2.09114,-0.83073 -0.57292,-0.12891 -1.50391,-0.30078 -0.91666,-0.17188 -1.67577,-0.3724 -2.10547,-0.55859 -2.99349,-1.63281 -0.8737,-1.08854 -0.8737,-2.66406 0,-0.98828 0.40104,-1.86197 0.41537,-0.8737 1.2461,-1.5612 0.80208,-0.67318 2.03385,-1.05989 1.24609,-0.40104 2.77864,-0.40104 1.43229,0 2.89323,0.35807 1.47525,0.34375 2.44921,0.84505 v 2.8789 h -0.14323 q -1.03125,-0.75911 -2.5065,-1.27474 -1.47526,-0.52994 -2.89323,-0.52994 -1.47526,0 -2.49218,0.57291 -1.01693,0.5586 -1.01693,1.67578 0,0.98828 0.61588,1.48958 0.60157,0.5013 1.94792,0.81641 0.74479,0.17187 1.66145,0.34375 0.93099,0.17187 1.54688,0.3151 1.8763,0.42969 2.89322,1.47526 1.01693,1.0599 1.01693,2.80729 z m 22.85935,-12.4466 q 0,-1.36068 -0.81641,-2.13411 -0.80208,-0.78776 -2.06249,-0.78776 -1.31771,0 -2.14844,0.88802 -0.83073,0.87369 -0.83073,2.14843 0,1.07422 0.5586,1.90495 0.57291,0.83073 2.44921,1.96224 1.40365,-0.50131 2.11979,-1.46094 0.73047,-0.97396 0.73047,-2.52083 z m 2.77864,12.54686 -6.84634,-6.67447 q -0.44401,0.21484 -0.88802,0.57291 -0.44401,0.34375 -0.88802,0.94532 -0.40104,0.55859 -0.65886,1.34635 -0.25781,0.78776 -0.25781,1.77604 0,2.09114 1.21745,3.3802 1.23177,1.27474 3.48046,1.27474 1.33203,0 2.63542,-0.64453 1.3177,-0.65885 2.20572,-1.97656 z m 4.3112,-8.5078 v 1.375 q 0,1.37499 -0.35808,3.09374 -0.35807,1.71875 -1.21744,3.27995 l 5.41405,5.27082 h -3.52343 l -3.27994,-3.20833 q -1.64714,2.03386 -3.36589,2.85026 -1.71874,0.80208 -3.53775,0.80208 -2.97917,0 -4.95573,-1.73307 -1.96223,-1.74739 -1.96223,-4.569 0,-1.31771 0.37239,-2.27734 0.3724,-0.95964 0.8737,-1.66146 0.5013,-0.67318 1.24609,-1.26042 0.74479,-0.60156 1.50391,-1.04557 -1.57552,-1.03125 -2.27735,-2.07682 -0.68749,-1.04557 -0.68749,-2.63541 0,-0.95964 0.37239,-1.81901 0.38672,-0.8737 1.14583,-1.58984 0.71615,-0.6875 1.86198,-1.11719 1.16015,-0.42969 2.54948,-0.42969 2.47786,0 4.01041,1.26042 1.53255,1.24609 1.53255,3.16536 0,0.63021 -0.17188,1.43229 -0.17187,0.78776 -0.58724,1.41797 -0.45833,0.70182 -1.30338,1.34635 -0.84505,0.64453 -2.1914,1.10286 l 5.31379,5.18489 q 0.20052,-0.57291 0.30078,-1.26041 0.10026,-0.6875 0.11459,-1.43229 0.0286,-0.80208 0.0143,-1.79036 0,-0.98828 0,-1.67578 z m 35.04813,13.01951 h -2.83593 v -18.37628 l -5.92968,12.50389 h -1.69011 l -5.88671,-12.50389 v 18.37628 h -2.64974 v -21.3268 h 3.86719 l 5.68619,11.87369 5.49999,-11.87369 h 3.9388 z m 18.77732,0 h -2.69271 v -1.77604 q -1.36067,1.07422 -2.60677,1.64714 -1.24609,0.57291 -2.74999,0.57291 -2.52083,0 -3.92448,-1.53255 -1.40364,-1.54687 -1.40364,-4.52603 v -10.38411 h 2.6927 v 9.10937 q 0,1.21744 0.11459,2.09114 0.11458,0.85938 0.48698,1.47526 0.38671,0.63021 1.0026,0.91667 0.61588,0.28645 1.79036,0.28645 1.04557,0 2.27734,-0.54427 1.2461,-0.54427 2.32031,-1.38932 v -11.9453 h 2.69271 z m 18.27602,-1.81901 q 0,4.06771 -1.84765,5.97265 -1.84765,1.90495 -5.68619,1.90495 -1.27474,0 -2.49219,-0.1862 -1.20312,-0.17187 -2.3776,-0.5013 v -2.75 h 0.14323 q 0.65886,0.25782 2.09115,0.63021 1.43229,0.38672 2.86458,0.38672 1.37499,0 2.27734,-0.32943 0.90234,-0.32942 1.40364,-0.91666 0.5013,-0.5586 0.71615,-1.34636 0.21484,-0.78775 0.21484,-1.76171 v -1.46094 q -1.21745,0.97396 -2.33463,1.46094 -1.10287,0.47265 -2.82161,0.47265 -2.86458,0 -4.55469,-2.06249 -1.67578,-2.07682 -1.67578,-5.84375 0,-2.06249 0.57292,-3.55208 0.58724,-1.5039 1.58984,-2.59244 0.93099,-1.01693 2.26302,-1.57552 1.33203,-0.57292 2.64974,-0.57292 1.38932,0 2.32031,0.28646 0.94531,0.27214 1.99088,0.84505 l 0.17187,-0.6875 h 2.52083 z m -2.6927,-2.57812 v -8.72264 q -1.07422,-0.48698 -2.00521,-0.6875 -0.91666,-0.21485 -1.83333,-0.21485 -2.22005,0 -3.49479,1.48959 -1.27473,1.48958 -1.27473,4.32551 0,2.69271 0.94531,4.08203 0.94531,1.38932 3.13671,1.38932 1.17448,0 2.34896,-0.44401 1.1888,-0.45833 2.17708,-1.21745 z m 19.42185,-0.21484 q 0,2.1914 -1.81901,3.59505 -1.80469,1.40364 -4.9414,1.40364 -1.77604,0 -3.26562,-0.41536 -1.47526,-0.42969 -2.47786,-0.93099 v -3.02213 h 0.14322 q 1.27474,0.95963 2.83594,1.53255 1.5612,0.55859 2.99349,0.55859 1.77603,0 2.77864,-0.57292 1.0026,-0.57291 1.0026,-1.80468 0,-0.94531 -0.54427,-1.43229 -0.54427,-0.48698 -2.09114,-0.83073 -0.57292,-0.12891 -1.50391,-0.30078 -0.91666,-0.17188 -1.67578,-0.3724 -2.10546,-0.55859 -2.99348,-1.63281 -0.8737,-1.08854 -0.8737,-2.66406 0,-0.98828 0.40104,-1.86197 0.41537,-0.8737 1.24609,-1.5612 0.80209,-0.67318 2.03386,-1.05989 1.24609,-0.40104 2.77864,-0.40104 1.43229,0 2.89322,0.35807 1.47526,0.34375 2.44922,0.84505 v 2.8789 h -0.14323 q -1.03125,-0.75911 -2.50651,-1.27474 -1.47526,-0.52994 -2.89322,-0.52994 -1.47526,0 -2.49219,0.57291 -1.01692,0.5586 -1.01692,1.67578 0,0.98828 0.61588,1.48958 0.60156,0.5013 1.94792,0.81641 0.74479,0.17187 1.66145,0.34375 0.93099,0.17187 1.54688,0.3151 1.8763,0.42969 2.89322,1.47526 1.01693,1.0599 1.01693,2.80729 z m 8.57943,-16.71483 -0.3724,15.45441 h -2.43489 l -0.40104,-15.45441 z m -0.14323,21.3268 h -2.92187 v -3.02213 h 2.92187 z"
       id="text234"
       transform="matrix(0.87578454,0,0,0.87578454,-151.8331,-82.238875)"
       aria-label="Cups &amp; Mugs!" />
  </g>
</svg>
