<?xml version="1.0" encoding="UTF-8" standalone="no"?>
<!-- Created with Inkscape (http://www.inkscape.org/) -->

<svg
   width="57.072666mm"
   height="15.127456mm"
   viewBox="0 0 57.072665 15.127456"
   version="1.1"
   id="svg1"
   sodipodi:docname="mySpace.svg"
   xmlns:inkscape="http://www.inkscape.org/namespaces/inkscape"
   xmlns:sodipodi="http://sodipodi.sourceforge.net/DTD/sodipodi-0.dtd"
   xmlns="http://www.w3.org/2000/svg"
   xmlns:svg="http://www.w3.org/2000/svg">
  <sodipodi:namedview
     id="namedview1"
     pagecolor="#ffffff"
     bordercolor="#000000"
     borderopacity="0.25"
     inkscape:showpageshadow="2"
     inkscape:pageopacity="0.0"
     inkscape:pagecheckerboard="0"
     inkscape:deskcolor="#d1d1d1"
     inkscape:document-units="mm" />
  <defs
     id="defs1" />
  <g
     inkscape:label="Capa 1"
     inkscape:groupmode="layer"
     id="layer1"
     transform="translate(-50.010164,-104.67567)">
    <path
       d="m 167.60287,224.86164 c 0,1.008 0.408,1.656 1.056,2.16 0.36,0.264 0.576,0.264 0.84,-0.216 1.416,-2.568 3.744,-5.808 5.856,-8.52 -1.176,2.4 -2.352,4.92 -2.64,6.048 v -0.024 c -0.144,0.528 -0.192,0.984 -0.192,1.368 0,0.696 0.264,1.104 0.552,1.368 0.384,0.336 0.6,0.336 0.768,-0.144 1.176,-3.36 3.55201,-8.112 5.208,-11.208 0.312,-0.648 0.576,-1.32 0.576,-1.968 0,-0.576 -0.216,-1.152 -0.69599,-1.656 -0.45601,-0.432 -0.76801,-0.408 -1.08001,0.096 -2.664,4.224 -5.232,6.576 -7.752,10.392 0.864,-3.216 1.34401,-4.68 2.088,-6.84 0.216,-0.696 0.336,-1.296 0.336,-1.728 0,-0.768 -0.336,-1.392 -0.984,-1.944 -0.456,-0.36 -0.84,-0.216 -1.128,0.168 -2.52,3.384 -6.288,9.672 -7.27199,12.072 -0.21601,0.528 -0.33601,1.056 -0.33601,1.512 0,0.528 0.168,0.936 0.432,1.2 0.312,0.312 0.67201,0.24 0.816,-0.096 1.296,-2.976 3.432,-6.432 5.304,-9.312 -0.816,2.64 -1.512,5.352 -1.68,6.432 -0.048,0.312 -0.072,0.576 -0.072,0.84 z m 21.77398,-2.136 c -0.096,-0.312 -0.456,-0.264 -0.768,0.168 -0.768,1.08 -2.016,2.304 -3.48,3.192 0.984,-2.28 2.232,-4.608 2.928,-5.952 0.312,-0.6 0.432,-1.128 0.432,-1.608 0,-0.504 -0.096,-0.864 -0.456,-1.224 -0.264,-0.264 -0.576,-0.216 -0.912,0.216 -0.576,0.864 -1.224,2.328 -2.832,5.04 -1.176,1.992 -2.256,3.408 -2.88,3.408 -0.624,0 -0.408,-0.96 -0.072,-1.824 0.456,-1.128 0.96,-2.112 1.776,-3.408 0.552,-0.888 0.84,-1.584 0.84,-2.184 0,-0.384 -0.216,-0.816 -0.456,-1.152 -0.264,-0.384 -0.624,-0.36 -0.936,0.048 -1.488,2.04 -2.664,4.464 -3.216,5.976 -0.216,0.6 -0.312,1.176 -0.312,1.68 0,1.008 0.528,1.92 1.728,1.92 0.72,0 1.344,-0.216 1.968,-0.672 l -0.36,0.84 c -2.328,0.936 -4.272,2.4 -5.016,4.464 -0.144,0.432 -0.216,0.84 -0.216,1.128 0,0.768 0.36,1.488 0.72,1.992 0.576,0.768 1.08,0.768 1.632,0.552 2.088,-0.792 3.72,-4.632 5.04,-7.8 1.968,-0.816 3.552,-1.704 4.512,-3.168 0.408,-0.624 0.456,-1.248 0.336,-1.632 z m -7.632,6.024 c -0.576,1.296 -1.152,2.472 -1.656,3.36 -0.672,1.176 -1.176,1.872 -1.344,1.728 -0.24,-0.216 -0.072,-1.2 0.528,-2.328 0.504,-0.936 1.32,-1.968 2.472,-2.76 z m 16.40394,-4.704 c 1.896,2.184 4.224,3.168 5.976,3.168 1.44,0 2.616,-0.504 3.24,-1.224 0.624,-0.744 0.936,-1.368 0.936,-1.92 0,-0.456 -0.264,-0.888 -0.72,-1.224 -0.936,-0.672 -4.224,-2.04 -4.152,-3.624 0.12,-2.76 5.376,-6.288 6.264,-5.64 0.336,0.24 -0.312,1.296 -0.912,2.184 -0.792,1.056 -1.104,1.968 -1.104,2.496 0,0.552 0.24,0.96 0.576,1.296 0.456,0.48 0.72,0.288 0.936,-0.096 0.336,-0.576 1.032,-1.824 1.608,-2.592 0.36,-0.528 0.96,-1.488 0.72,-2.472 -0.168,-0.648 -0.6,-1.44 -1.272,-2.064 -0.408,-0.336 -0.888,-0.504 -1.464,-0.504 -0.552,0 -1.056,0.072 -1.848,0.408 -2.16,0.912 -5.904,3.768 -5.904,7.032 0,2.448 3.336,3.744 5.064,5.088 0.264,0.216 0.384,0.648 0.024,1.008 -0.264,0.264 -0.744,0.384 -1.272,0.384 -1.392,0 -2.976,-1.2 -3.912,-1.968 -0.504,-0.408 -1.176,-0.6 -1.872,-0.6 -0.288,0 -0.552,0.024 -0.744,0.072 -0.336,0.12 -0.504,0.384 -0.168,0.792 z m 17.74196,-2.976 c 1.032,-1.752 2.352,-2.856 2.784,-2.664 0.12,0.048 0.168,0.336 0.168,0.768 0,0.792 -0.288,2.016 -0.864,3.144 -0.984,1.992 -2.064,3.312 -2.808,3.312 -0.624,0 -0.792,-1.728 -0.048,-3.264 z m 4.992,-1.176 c 0,-1.224 -0.696,-2.52 -2.136,-2.52 -0.648,0 -1.344,0.312 -1.944,0.72 0,-0.312 -0.048,-0.624 -0.24,-0.888 -0.192,-0.264 -0.504,-0.36 -0.936,0.168 -1.488,1.992 -5.448,9.456 -6.144,11.736 -0.216,0.672 -0.288,1.176 -0.288,1.56 0,0.504 0.12,0.84 0.48,1.296 0.24,0.288 0.528,0.192 0.72,-0.24 1.008,-2.352 2.04,-4.416 3.096,-6.384 0.552,1.296 1.728,1.944 3.624,1.944 1.992,0 4.008,-0.672 5.088,-2.616 0.408,-0.72 0.384,-1.392 0.336,-1.632 -0.096,-0.48 -0.6,-0.6 -0.888,-0.048 -0.696,1.392 -2.064,2.976 -3.84,3.336 0.768,-0.624 1.56,-1.704 2.136,-3.024 0.552,-1.152 0.936,-2.376 0.936,-3.408 z m 4.30197,1.128 c -0.864,1.2 -1.296,2.544 -1.296,3.576 0,1.416 0.768,2.448 2.184,2.448 0.96,0 2.04,-0.744 2.736,-1.416 0.192,0.888 0.888,1.512 2.088,1.512 1.464,0 3,-1.272 3.624,-2.592 0.336,-0.696 0.192,-1.344 0.096,-1.56 -0.24,-0.504 -0.456,-0.48 -0.72,0 -0.792,1.56 -1.992,3.192 -2.856,3.192 -0.24,0 -0.336,-0.216 -0.336,-0.576 0,-1.608 2.016,-4.224 2.64,-5.544 0.624,-1.248 0.408,-2.304 0,-2.784 -0.288,-0.336 -0.696,-0.312 -0.984,0.168 l -0.456,0.744 c -0.216,-0.624 -0.744,-1.056 -1.608,-1.056 -1.224,0 -3.192,1.128 -5.112,3.888 z m 1.2,4.968 c -0.24,0 -0.336,-0.288 -0.336,-0.72 0,-0.768 0.408,-2.04 1.128,-3.168 1.224,-1.968 2.88,-3.48 3.36,-3.48 0.24,0 0.288,0.168 0.288,0.456 0,0.624 -0.432,1.8 -1.368,3.432 -1.176,2.016 -2.28,3.48 -3.072,3.48 z m 15.10199,-8.784 c -1.392,0 -3.288,1.296 -4.512,3.768 -0.504,0.96 -0.744,1.92 -0.744,2.784 0,1.92 1.224,3.336 3.432,3.312 1.872,-0.024 3.816,-1.2 4.728,-2.64 0.432,-0.672 0.432,-1.296 0.312,-1.608 -0.144,-0.408 -0.504,-0.312 -0.72,0.048 -0.96,1.44 -2.616,3.288 -4.416,3.264 -0.648,-0.024 -1.08,-0.672 -1.08,-1.728 0,-0.72 0.24,-1.704 0.72,-2.688 0.96,-1.944 2.52,-3.504 2.808,-3.264 0.096,0.096 -0.072,0.528 -0.312,1.008 -0.432,0.984 -0.552,1.464 -0.552,1.776 0,0.648 0.408,1.104 0.84,1.368 0.48,0.24 0.696,0.192 0.864,-0.264 0.096,-0.264 0.24,-0.624 0.432,-0.984 0.456,-0.936 0.84,-1.824 0.48,-2.616 -0.384,-0.72 -1.392,-1.536 -2.28,-1.536 z m 10.90197,1.32 c 0.264,0.216 -0.24,1.344 -0.936,2.28 -0.48,0.648 -1.248,1.368 -1.824,1.368 -0.168,0 -0.336,-0.048 -0.528,-0.168 1.152,-2.304 2.928,-3.768 3.288,-3.48 z m 1.8,0.96 c 0,-0.312 -0.096,-0.672 -0.24,-0.888 -0.336,-0.48 -0.816,-0.864 -1.488,-1.248 -0.24,-0.144 -0.504,-0.192 -0.84,-0.192 -1.392,0 -3.336,1.272 -4.584,3.816 -0.504,0.96 -0.744,1.896 -0.744,2.76 0,1.92 1.224,3.384 3.456,3.36 1.872,-0.024 3.792,-1.152 4.8,-2.616 0.432,-0.648 0.408,-1.344 0.336,-1.56 -0.192,-0.48 -0.504,-0.432 -0.768,-0.048 -0.984,1.488 -2.592,3.264 -4.416,3.264 -0.72,0 -1.152,-0.744 -1.152,-1.8 0,-0.432 0.072,-0.936 0.216,-1.416 0.552,0.36 1.128,0.528 1.704,0.528 2.112,0 3.72,-2.52 3.72,-3.96 z"
       id="text2"
       style="font-size:24px;line-height:0;font-family:SignPainter;-inkscape-font-specification:SignPainter;letter-spacing:2.55px;word-spacing:0px;white-space:pre;fill:#969696;fill-opacity:0.891599;stroke:#000000;stroke-opacity:0"
       inkscape:label="text2"
       transform="matrix(0.61284429,0,0,0.61284429,-49.456223,-24.796788)"
       aria-label="My Space" />
  </g>
</svg>
