<?xml version="1.0" encoding="UTF-8" standalone="no"?>
<!-- Created with Inkscape (http://www.inkscape.org/) -->

<svg
   width="58.415836mm"
   height="8.4183578mm"
   viewBox="0 0 58.415836 8.4183578"
   version="1.1"
   id="svg1"
   xmlns:inkscape="http://www.inkscape.org/namespaces/inkscape"
   xmlns:sodipodi="http://sodipodi.sourceforge.net/DTD/sodipodi-0.dtd"
   xmlns="http://www.w3.org/2000/svg"
   xmlns:svg="http://www.w3.org/2000/svg">
  <sodipodi:namedview
     id="namedview1"
     pagecolor="#ffffff"
     bordercolor="#000000"
     borderopacity="0.25"
     inkscape:showpageshadow="2"
     inkscape:pageopacity="0.0"
     inkscape:pagecheckerboard="0"
     inkscape:deskcolor="#d1d1d1"
     inkscape:document-units="mm" />
  <defs
     id="defs1" />
  <g
     inkscape:label="Capa 1"
     inkscape:groupmode="layer"
     id="layer1"
     transform="translate(-65.405832,-109.79419)">
    <g
       id="text1"
       style="font-size:25.97px;letter-spacing:7.82px;word-spacing:0px;white-space:pre;fill:#aeaaa5"
       inkscape:label="text1"
       transform="matrix(0.3260168,0,0,0.3260168,-112.28649,51.235497)"
       aria-label="Select Categories">
      <path
         d="m 545.23854,193.175 c 2.05163,2.36327 4.57072,3.42804 6.46653,3.42804 1.5582,0 2.83073,-0.54537 3.50595,-1.32447 0.67522,-0.80507 1.01283,-1.48029 1.01283,-2.0776 0,-0.49343 -0.28567,-0.96089 -0.7791,-1.32447 -1.01283,-0.72716 -4.57072,-2.20745 -4.49281,-3.92147 0.12985,-2.98655 5.81728,-6.80414 6.77817,-6.10295 0.36358,0.2597 -0.33761,1.40238 -0.98686,2.36327 -0.85701,1.14268 -1.19462,2.12954 -1.19462,2.70088 0,0.59731 0.2597,1.0388 0.62328,1.40238 0.49343,0.5194 0.7791,0.31164 1.01283,-0.10388 0.36358,-0.62328 1.11671,-1.97372 1.73999,-2.80476 0.38955,-0.57134 1.0388,-1.61014 0.7791,-2.67491 -0.18179,-0.70119 -0.64925,-1.5582 -1.37641,-2.23342 -0.44149,-0.36358 -0.96089,-0.54537 -1.58417,-0.54537 -0.59731,0 -1.14268,0.0779 -1.99969,0.44149 -2.3373,0.98686 -6.38862,4.07729 -6.38862,7.60921 0,2.64894 3.60983,4.05132 5.47967,5.50564 0.28567,0.23373 0.41552,0.70119 0.026,1.09074 -0.28567,0.28567 -0.80507,0.41552 -1.37641,0.41552 -1.50626,0 -3.22028,-1.2985 -4.23311,-2.12954 -0.54537,-0.44149 -1.27253,-0.64925 -2.02566,-0.64925 -0.31164,0 -0.59731,0.026 -0.80507,0.0779 -0.36358,0.12985 -0.54537,0.41552 -0.18179,0.85701 z m 20.38316,-5.9731 c 0.28567,0.23373 -0.2597,1.45432 -1.01283,2.46715 -0.5194,0.70119 -1.35044,1.48029 -1.97372,1.48029 -0.18179,0 -0.36358,-0.0519 -0.57134,-0.18179 1.24656,-2.49312 3.16834,-4.07729 3.55789,-3.76565 z m 1.94775,1.0388 c 0,-0.33761 -0.10388,-0.72716 -0.2597,-0.96089 -0.36358,-0.5194 -0.88298,-0.93492 -1.61014,-1.35044 -0.2597,-0.15582 -0.54537,-0.20776 -0.90895,-0.20776 -1.50626,0 -3.60983,1.37641 -4.96027,4.12923 -0.54537,1.0388 -0.80507,2.05163 -0.80507,2.98655 0,2.0776 1.32447,3.66177 3.73968,3.6358 2.02566,-0.026 4.10326,-1.24656 5.194,-2.83073 0.46746,-0.70119 0.44149,-1.45432 0.36358,-1.68805 -0.20776,-0.5194 -0.54537,-0.46746 -0.83104,-0.0519 -1.06477,1.61014 -2.80476,3.53192 -4.77848,3.53192 -0.7791,0 -1.24656,-0.80507 -1.24656,-1.94775 0,-0.46746 0.0779,-1.01283 0.23373,-1.53223 0.59731,0.38955 1.22059,0.57134 1.84387,0.57134 2.28536,0 4.02535,-2.72685 4.02535,-4.28505 z m 10.61848,-6.10295 c 0,-0.67522 -0.28567,-1.40238 -0.85701,-1.89581 -0.49343,-0.46746 -0.96089,-0.31164 -1.45432,0.18179 -2.54506,2.67491 -5.47967,7.47936 -6.4925,11.79038 -0.12985,0.5194 -0.18179,1.0388 -0.18179,1.48029 0,1.79193 0.98686,2.70088 2.57103,2.70088 2.18148,0 4.10326,-2.12954 4.49281,-2.90864 0.33761,-0.70119 0.36358,-1.2985 0.2597,-1.68805 -0.18179,-0.67522 -0.75313,-0.67522 -1.09074,-0.026 -0.98686,1.86984 -2.49312,3.60983 -3.68774,3.60983 -0.33761,0 -0.49343,-0.44149 -0.49343,-1.06477 0,-0.90895 0.33761,-2.0776 0.85701,-3.40207 2.28536,-1.53223 5.11609,-4.59669 5.92116,-7.68712 0.12985,-0.44149 0.15582,-0.72716 0.15582,-1.09074 z m -1.45432,0.64925 c 0.15582,0.10388 -0.18179,1.24656 -1.06477,2.72685 -0.59731,1.01283 -1.48029,2.20745 -2.597,3.29819 0.18179,-0.44149 1.32447,-2.38924 1.99969,-3.53192 0.88298,-1.53223 1.5582,-2.54506 1.66208,-2.49312 z m 6.90477,4.4149 c 0.28567,0.23373 -0.2597,1.45432 -1.01283,2.46715 -0.5194,0.70119 -1.35044,1.48029 -1.97372,1.48029 -0.18179,0 -0.36358,-0.0519 -0.57134,-0.18179 1.24656,-2.49312 3.16834,-4.07729 3.55789,-3.76565 z m 1.94775,1.0388 c 0,-0.33761 -0.10388,-0.72716 -0.2597,-0.96089 -0.36358,-0.5194 -0.88298,-0.93492 -1.61014,-1.35044 -0.2597,-0.15582 -0.54537,-0.20776 -0.90895,-0.20776 -1.50626,0 -3.60983,1.37641 -4.96027,4.12923 -0.54537,1.0388 -0.80507,2.05163 -0.80507,2.98655 0,2.0776 1.32447,3.66177 3.73968,3.6358 2.02566,-0.026 4.10326,-1.24656 5.194,-2.83073 0.46746,-0.70119 0.44149,-1.45432 0.36358,-1.68805 -0.20776,-0.5194 -0.54537,-0.46746 -0.83104,-0.0519 -1.06477,1.61014 -2.80476,3.53192 -4.77848,3.53192 -0.7791,0 -1.24656,-0.80507 -1.24656,-1.94775 0,-0.46746 0.0779,-1.01283 0.23373,-1.53223 0.59731,0.38955 1.22059,0.57134 1.84387,0.57134 2.28536,0 4.02535,-2.72685 4.02535,-4.28505 z m 7.26835,-2.46715 c -1.50626,0 -3.55789,1.40238 -4.88236,4.07729 -0.54537,1.0388 -0.80507,2.0776 -0.80507,3.01252 0,2.0776 1.32447,3.60983 3.71371,3.58386 2.02566,-0.026 4.12923,-1.2985 5.11609,-2.8567 0.46746,-0.72716 0.46746,-1.40238 0.33761,-1.73999 -0.15582,-0.44149 -0.54537,-0.33761 -0.7791,0.0519 -1.0388,1.5582 -2.83073,3.55789 -4.77848,3.53192 -0.70119,-0.026 -1.16865,-0.72716 -1.16865,-1.86984 0,-0.7791 0.2597,-1.84387 0.7791,-2.90864 1.0388,-2.10357 2.72685,-3.79162 3.03849,-3.53192 0.10388,0.10388 -0.0779,0.57134 -0.33761,1.09074 -0.46746,1.06477 -0.59731,1.58417 -0.59731,1.92178 0,0.70119 0.44149,1.19462 0.90895,1.48029 0.5194,0.2597 0.75313,0.20776 0.93492,-0.28567 0.10388,-0.28567 0.2597,-0.67522 0.46746,-1.06477 0.49343,-1.01283 0.90895,-1.97372 0.5194,-2.83073 -0.41552,-0.7791 -1.50626,-1.66208 -2.46715,-1.66208 z m 4.20387,7.76503 c 0,1.79193 1.19462,2.90864 2.57103,2.90864 2.18148,0 3.92147,-2.23342 4.28505,-3.01252 0.28567,-0.59731 0.38955,-0.98686 0.2597,-1.53223 -0.18179,-0.70119 -0.7791,-0.64925 -1.06477,-0.026 -0.90895,1.94775 -2.25939,3.58386 -3.27222,3.58386 -0.44149,0 -0.70119,-0.54537 -0.70119,-1.32447 0,-0.57134 0.15582,-1.24656 0.46746,-1.94775 0.90895,-1.97372 2.38924,-4.54475 3.3761,-6.2328 0.57134,-0.0779 1.24656,-0.12985 1.71402,-0.0779 0.62328,0.0779 0.80507,-0.23373 0.54537,-0.70119 -0.18179,-0.31164 -0.62328,-0.72716 -1.42835,-0.83104 0.31164,-0.72716 0.41552,-1.32447 0.41552,-1.79193 0,-0.31164 -0.10388,-0.75313 -0.28567,-1.06477 -0.28567,-0.49343 -0.59731,-0.5194 -0.98686,0.0519 -0.59731,0.85701 -1.14268,1.71402 -1.94775,3.1164 -0.57134,0.0519 -1.27253,0.0779 -1.86984,0.0519 -0.59731,-0.026 -0.85701,0.23373 -0.49343,0.7791 0.20776,0.31164 0.67522,0.59731 1.48029,0.70119 -1.0388,1.86984 -2.02566,3.92147 -2.54506,5.194 -0.36358,0.85701 -0.5194,1.58417 -0.5194,2.15551 z"
         id="path12" />
      <path
         d="m 622.00899,190.578 c -1.50626,2.88267 -3.35013,4.54475 -4.77848,4.54475 -0.93492,0 -1.92178,-0.98686 -1.92178,-3.22028 0,-1.5582 0.49343,-3.68774 1.63611,-5.53161 2.15551,-3.47998 5.84325,-5.73937 6.46653,-5.06415 0.31164,0.33761 0,1.16865 -0.36358,2.0776 -0.15582,0.38955 -0.33761,0.80507 -0.44149,1.19462 -0.10388,0.33761 -0.15582,0.64925 -0.15582,0.96089 0,0.75313 0.36358,1.32447 0.88298,1.66208 0.5194,0.31164 0.88298,0.0519 1.01283,-0.38955 0.18179,-0.57134 0.54537,-1.45432 0.98686,-2.3373 0.2597,-0.5194 0.36358,-1.0388 0.36358,-1.50626 0,-1.01283 -0.67522,-2.02566 -1.5582,-2.80476 -0.44149,-0.36358 -1.0388,-0.54537 -1.68805,-0.54537 -0.64925,0 -1.37641,0.18179 -2.05163,0.44149 -2.93461,1.32447 -7.58324,6.02504 -7.47936,11.27098 0.0519,2.12954 1.11671,3.76565 2.3373,4.4149 0.64925,0.36358 1.42835,0.54537 2.28536,0.54537 1.11671,0 2.28536,-0.31164 3.35013,-1.06477 0.93492,-0.70119 2.3373,-2.20745 2.3373,-3.71371 0,-0.2597 -0.0519,-0.57134 -0.18179,-0.85701 -0.2597,-0.59731 -0.85701,-0.44149 -1.0388,-0.0779 z m 6.19869,-0.67522 c -0.93492,1.2985 -1.40238,2.75282 -1.40238,3.86953 0,1.53223 0.83104,2.64894 2.36327,2.64894 1.0388,0 2.20745,-0.80507 2.96058,-1.53223 0.20776,0.96089 0.96089,1.63611 2.25939,1.63611 1.58417,0 3.24625,-1.37641 3.92147,-2.80476 0.36358,-0.75313 0.20776,-1.45432 0.10388,-1.68805 -0.2597,-0.54537 -0.49343,-0.5194 -0.7791,0 -0.85701,1.68805 -2.15551,3.45401 -3.09043,3.45401 -0.2597,0 -0.36358,-0.23373 -0.36358,-0.62328 0,-1.73999 2.18148,-4.57072 2.8567,-5.99907 0.67522,-1.35044 0.44149,-2.49312 0,-3.01252 -0.31164,-0.36358 -0.75313,-0.33761 -1.06477,0.18179 l -0.49343,0.80507 c -0.23373,-0.67522 -0.80507,-1.14268 -1.73999,-1.14268 -1.32447,0 -3.45401,1.22059 -5.53161,4.20714 z m 1.2985,5.37579 c -0.2597,0 -0.36358,-0.31164 -0.36358,-0.7791 0,-0.83104 0.44149,-2.20745 1.22059,-3.42804 1.32447,-2.12954 3.1164,-3.76565 3.6358,-3.76565 0.2597,0 0.31164,0.18179 0.31164,0.49343 0,0.67522 -0.46746,1.94775 -1.48029,3.71371 -1.27253,2.18148 -2.46715,3.76565 -3.32416,3.76565 z m 10.69152,-1.73999 c 0,1.79193 1.19462,2.90864 2.57103,2.90864 2.18148,0 3.92147,-2.23342 4.28505,-3.01252 0.28567,-0.59731 0.38955,-0.98686 0.2597,-1.53223 -0.18179,-0.70119 -0.7791,-0.64925 -1.06477,-0.026 -0.90895,1.94775 -2.25939,3.58386 -3.27222,3.58386 -0.44149,0 -0.70119,-0.54537 -0.70119,-1.32447 0,-0.57134 0.15582,-1.24656 0.46746,-1.94775 0.90895,-1.97372 2.38924,-4.54475 3.3761,-6.2328 0.57134,-0.0779 1.24656,-0.12985 1.71402,-0.0779 0.62328,0.0779 0.80507,-0.23373 0.54537,-0.70119 -0.18179,-0.31164 -0.62328,-0.72716 -1.42835,-0.83104 0.31164,-0.72716 0.41552,-1.32447 0.41552,-1.79193 0,-0.31164 -0.10388,-0.75313 -0.28567,-1.06477 -0.28567,-0.49343 -0.59731,-0.5194 -0.98686,0.0519 -0.59731,0.85701 -1.14268,1.71402 -1.94775,3.1164 -0.57134,0.0519 -1.27253,0.0779 -1.86984,0.0519 -0.59731,-0.026 -0.85701,0.23373 -0.49343,0.7791 0.20776,0.31164 0.67522,0.59731 1.48029,0.70119 -1.0388,1.86984 -2.02566,3.92147 -2.54506,5.194 -0.36358,0.85701 -0.5194,1.58417 -0.5194,2.15551 z"
         id="path13" />
      <path
         d="m 655.3041,187.2019 c 0.28567,0.23373 -0.2597,1.45432 -1.01283,2.46715 -0.5194,0.70119 -1.35044,1.48029 -1.97372,1.48029 -0.18179,0 -0.36358,-0.0519 -0.57134,-0.18179 1.24656,-2.49312 3.16834,-4.07729 3.55789,-3.76565 z m 1.94775,1.0388 c 0,-0.33761 -0.10388,-0.72716 -0.2597,-0.96089 -0.36358,-0.5194 -0.88298,-0.93492 -1.61014,-1.35044 -0.2597,-0.15582 -0.54537,-0.20776 -0.90895,-0.20776 -1.50626,0 -3.60983,1.37641 -4.96027,4.12923 -0.54537,1.0388 -0.80507,2.05163 -0.80507,2.98655 0,2.0776 1.32447,3.66177 3.73968,3.6358 2.02566,-0.026 4.10326,-1.24656 5.194,-2.83073 0.46746,-0.70119 0.44149,-1.45432 0.36358,-1.68805 -0.20776,-0.5194 -0.54537,-0.46746 -0.83104,-0.0519 -1.06477,1.61014 -2.80476,3.53192 -4.77848,3.53192 -0.7791,0 -1.24656,-0.80507 -1.24656,-1.94775 0,-0.46746 0.0779,-1.01283 0.23373,-1.53223 0.59731,0.38955 1.22059,0.57134 1.84387,0.57134 2.28536,0 4.02535,-2.72685 4.02535,-4.28505 z"
         id="path14" />
      <path
         d="m 672.35665,192.1362 c 0,-0.57134 -0.46746,-0.57134 -0.80507,-0.12985 -1.01283,1.40238 -2.31133,2.49312 -3.92147,3.47998 0.85701,-1.97372 1.89581,-3.86953 2.72685,-5.50564 0.64925,-1.2985 0.93492,-1.99969 0.93492,-2.70088 0,-0.54537 -0.18179,-1.0388 -0.41552,-1.32447 -0.33761,-0.38955 -0.80507,-0.41552 -1.11671,0.18179 -0.15582,0.28567 -0.31164,0.54537 -0.41552,0.72716 -0.23373,-0.62328 -0.80507,-1.09074 -1.66208,-1.09074 -2.54506,0 -6.93399,4.28505 -6.93399,7.99876 0,1.5582 0.85701,2.62297 2.3373,2.62297 0.70119,0 1.37641,-0.2597 1.94775,-0.64925 l -0.33761,0.85701 c -3.16834,1.09074 -5.68743,3.76565 -5.68743,6.10295 0,0.80507 0.38955,1.48029 0.75313,2.02566 0.54537,0.72716 1.19462,0.83104 1.8179,0.59731 2.10357,-0.98686 3.99938,-4.9343 5.37579,-8.28443 2.12954,-0.7791 3.92147,-1.8179 4.90833,-3.35013 0.38955,-0.59731 0.49343,-1.14268 0.49343,-1.5582 z m -8.95965,3.16834 c -0.23373,0 -0.33761,-0.33761 -0.33761,-0.83104 0,-3.01252 3.99938,-7.08981 4.88236,-7.08981 0.18179,0 0.2597,0.15582 0.2597,0.46746 0,0.67522 -0.46746,1.94775 -1.48029,3.71371 -1.27253,2.18148 -2.49312,3.76565 -3.32416,3.73968 z m 0.54537,3.01252 c -0.49343,1.2985 -1.06477,2.44118 -1.58417,3.35013 -0.80507,1.40238 -1.45432,2.18148 -1.68805,1.99969 -0.2597,-0.23373 0.0779,-1.45432 0.83104,-2.72685 0.54537,-0.90895 1.35044,-1.84387 2.44118,-2.62297 z"
         id="path15" />
      <path
         d="m 691.73024,192.81142 c 0,-0.33761 -0.026,-0.5194 -0.15582,-0.75313 -0.28567,-0.5194 -0.64925,-0.46746 -0.88298,0.0519 -0.7791,1.76596 -2.25939,3.3761 -3.16834,3.3761 -0.38955,0 -0.59731,-0.41552 -0.59731,-1.06477 0,-0.38955 0.0779,-0.7791 0.20776,-1.16865 0.46746,-1.35044 1.71402,-3.09043 2.80476,-4.36296 0.31164,-0.33761 0.44149,-0.72716 0.44149,-1.0388 0,-0.67522 -0.28567,-1.27253 -0.72716,-1.76596 -0.36358,-0.36358 -0.70119,-0.28567 -1.14268,0.026 -0.7791,0.5194 -1.53223,0.93492 -2.23342,1.11671 0.28567,-0.7791 0.49343,-1.61014 0.49343,-2.18148 0,-0.54537 -0.20776,-0.90895 -0.7791,-0.90895 -0.85701,0.026 -2.597,1.92178 -2.597,3.29819 0,0.46746 0.18179,0.83104 0.64925,1.09074 -0.44149,0.70119 -0.88298,1.09074 -1.35044,1.27253 0,-1.37641 -0.31164,-2.05163 -0.83104,-2.597 -0.15582,-0.15582 -0.28567,-0.2597 -0.41552,-0.41552 -0.57134,-0.75313 -1.0388,-1.01283 -1.94775,-0.96089 -1.61014,0.12985 -3.32416,1.58417 -4.31102,3.3761 -0.64925,1.19462 -1.06477,2.49312 -1.06477,3.6358 0,0.83104 0.23373,1.58417 0.70119,2.25939 0.72716,0.96089 1.66208,1.2985 2.51909,1.2985 2.10357,0 4.54475,-3.06446 5.14206,-5.55758 1.37641,-0.15582 2.38924,-0.93492 3.09043,-2.02566 0.59731,-0.026 1.27253,-0.15582 2.05163,-0.49343 -1.48029,1.79193 -2.83073,4.18117 -2.83073,5.50564 0,1.53223 0.90895,2.70088 2.57103,2.70088 1.50626,0 3.42804,-1.14268 4.12923,-2.72685 0.15582,-0.31164 0.23373,-0.67522 0.23373,-0.98686 z m -11.01128,-3.27222 c -0.28567,-0.33761 -0.41552,-1.01283 -0.41552,-1.48029 0,-0.41552 0.23373,-0.62328 0.38955,-0.62328 0.18179,0 0.38955,0.15582 0.38955,0.54537 0,0.33761 -0.10388,0.96089 -0.36358,1.5582 z m -4.57072,4.44087 c 0,-0.93492 0.44149,-2.41521 1.09074,-3.6358 0.46746,-0.7791 0.98686,-1.45432 1.50626,-1.97372 0.18179,0.75313 0.64925,1.50626 1.53223,2.02566 -0.15582,0.64925 -0.46746,1.35044 -0.83104,1.97372 -0.96089,1.63611 -2.20745,2.70088 -2.83073,2.70088 -0.31164,0 -0.46746,-0.44149 -0.46746,-1.09074 z"
         id="path16" />
      <path
         d="m 698.20002,184.6049 c 0,0.80507 0.70119,1.58417 1.53223,1.58417 0.64925,0 1.0388,-0.59731 1.0388,-1.2985 0,-0.75313 -0.70119,-1.68805 -1.42835,-1.68805 -0.59731,0 -1.14268,0.67522 -1.14268,1.40238 z m 1.92178,9.11547 c 0.33761,-0.67522 0.36358,-1.32447 0.12985,-1.76596 -0.23373,-0.46746 -0.57134,-0.5194 -0.7791,-0.0519 -0.80507,1.76596 -2.15551,3.50595 -3.19431,3.50595 -0.28567,0 -0.38955,-0.23373 -0.38955,-0.64925 0,-0.41552 0.12985,-0.96089 0.36358,-1.5582 0.44149,-1.0388 1.63611,-2.98655 2.12954,-4.10326 0.67522,-1.2985 0.46746,-2.41521 -0.026,-2.93461 -0.33761,-0.38955 -0.64925,-0.33761 -1.0388,0.18179 -0.96089,1.35044 -2.62297,4.36296 -3.27222,6.18086 -0.20776,0.67522 -0.31164,1.22059 -0.31164,1.71402 0,1.2985 0.70119,2.20745 2.28536,2.20745 1.53223,0 3.32416,-1.09074 4.10326,-2.72685 z"
         id="path17" />
      <path
         d="m 709.83292,187.2019 c 0.28567,0.23373 -0.2597,1.45432 -1.01283,2.46715 -0.5194,0.70119 -1.35044,1.48029 -1.97372,1.48029 -0.18179,0 -0.36358,-0.0519 -0.57134,-0.18179 1.24656,-2.49312 3.16834,-4.07729 3.55789,-3.76565 z m 1.94775,1.0388 c 0,-0.33761 -0.10388,-0.72716 -0.2597,-0.96089 -0.36358,-0.5194 -0.88298,-0.93492 -1.61014,-1.35044 -0.2597,-0.15582 -0.54537,-0.20776 -0.90895,-0.20776 -1.50626,0 -3.60983,1.37641 -4.96027,4.12923 -0.54537,1.0388 -0.80507,2.05163 -0.80507,2.98655 0,2.0776 1.32447,3.66177 3.73968,3.6358 2.02566,-0.026 4.10326,-1.24656 5.194,-2.83073 0.46746,-0.70119 0.44149,-1.45432 0.36358,-1.68805 -0.20776,-0.5194 -0.54537,-0.46746 -0.83104,-0.0519 -1.06477,1.61014 -2.80476,3.53192 -4.77848,3.53192 -0.7791,0 -1.24656,-0.80507 -1.24656,-1.94775 0,-0.46746 0.0779,-1.01283 0.23373,-1.53223 0.59731,0.38955 1.22059,0.57134 1.84387,0.57134 2.28536,0 4.02535,-2.72685 4.02535,-4.28505 z"
         id="path18" />
      <path
         style="-inkscape-font-specification:SignPainter"
         d="m 718.22608,195.2526 c -0.57134,0 -1.11671,-0.90895 -1.42835,-2.12954 0.7791,-1.11671 1.50626,-2.23342 2.12954,-3.22028 0.0519,0.70119 0.0779,1.53223 0.0779,2.36327 0,1.68805 -0.23373,2.98655 -0.7791,2.98655 z m -3.55789,-2.49312 c 0,0.59731 0.15582,1.22059 0.44149,1.71402 0.88298,1.63611 2.44118,2.05163 3.99938,1.99969 1.94775,-0.0779 3.76565,-1.06477 4.75251,-2.88267 0.46746,-0.80507 0.38955,-1.53223 0.2597,-1.79193 -0.18179,-0.41552 -0.57134,-0.59731 -0.80507,0 -0.46746,1.27253 -1.19462,2.12954 -2.25939,2.8567 0.28567,-0.57134 0.41552,-1.2985 0.44149,-1.94775 0.0519,-1.40238 -0.28567,-3.09043 -0.28567,-4.9343 0,-0.33761 0.026,-0.7791 0.0519,-1.09074 0.80507,-1.32447 0.64925,-1.89581 -0.0519,-1.89581 -0.38955,0 -0.85701,0.18179 -1.27253,0.54537 -0.59731,0.49343 -0.90895,1.09074 -1.01283,2.02566 -0.67522,1.11671 -1.58417,2.46715 -2.44118,3.68774 -0.0779,-0.62328 -0.46746,-0.75313 -0.98686,-0.31164 -0.57134,0.49343 -0.83104,1.24656 -0.83104,2.02566 z"
         id="path19" />
    </g>
  </g>
</svg>
