<?xml version="1.0" encoding="UTF-8" standalone="no"?><svg xmlns="http://www.w3.org/2000/svg" xmlns:xlink="http://www.w3.org/1999/xlink" contentStyleType="text/css" height="814px" preserveAspectRatio="none" style="width:647px;height:814px;background:#FFFFFF;" version="1.1" viewBox="0 0 647 814" width="647px" zoomAndPan="magnify"><defs/><g><rect fill="none" height="27.6094" id="_title" style="stroke:none;stroke-width:1.0;" width="196" x="218.75" y="5"/><text fill="#000000" font-family="sans-serif" font-size="14" font-weight="bold" lengthAdjust="spacing" textLength="186" x="223.75" y="24.5332">UseCaseContextRegistred</text><g id="REGISTRED"><rect fill="#F1F1F1" height="50" rx="12.5" ry="12.5" style="stroke:#181818;stroke-width:0.5;" width="100" x="363" y="125.6094"/><line style="stroke:#181818;stroke-width:0.5;" x1="363" x2="463" y1="153.2188" y2="153.2188"/><text fill="#000000" font-family="sans-serif" font-size="14" lengthAdjust="spacing" textLength="80" x="373" y="145.1426">REGISTRED</text></g><ellipse cx="413" cy="54.6094" fill="#222222" rx="10" ry="10" style="stroke:none;stroke-width:1.0;"/><g id="OPENED_CUP"><rect fill="#F1F1F1" height="50" rx="12.5" ry="12.5" style="stroke:#181818;stroke-width:0.5;" width="113" x="189.5" y="417.6094"/><line style="stroke:#181818;stroke-width:0.5;" x1="189.5" x2="302.5" y1="445.2188" y2="445.2188"/><text fill="#000000" font-family="sans-serif" font-size="14" lengthAdjust="spacing" textLength="93" x="199.5" y="437.1426">OPENED_CUP</text></g><g id="OPENED_CUP_LIST"><rect fill="#F1F1F1" height="50" rx="12.5" ry="12.5" style="stroke:#181818;stroke-width:0.5;" width="150" x="338" y="271.6094"/><line style="stroke:#181818;stroke-width:0.5;" x1="338" x2="488" y1="299.2188" y2="299.2188"/><text fill="#000000" font-family="sans-serif" font-size="14" lengthAdjust="spacing" textLength="130" x="348" y="291.1426">OPENED_CUP_LIST</text></g><g id="CREATED_CUP"><rect fill="#F1F1F1" height="50" rx="12.5" ry="12.5" style="stroke:#181818;stroke-width:0.5;" width="122" x="352" y="417.6094"/><line style="stroke:#181818;stroke-width:0.5;" x1="352" x2="474" y1="445.2188" y2="445.2188"/><text fill="#000000" font-family="sans-serif" font-size="14" lengthAdjust="spacing" textLength="102" x="362" y="437.1426">CREATED_CUP</text></g><g id="MODIFIED_CUP"><rect fill="#F1F1F1" height="50" rx="12.5" ry="12.5" style="stroke:#181818;stroke-width:0.5;" width="122" x="7" y="579.6094"/><line style="stroke:#181818;stroke-width:0.5;" x1="7" x2="129" y1="607.2188" y2="607.2188"/><text fill="#000000" font-family="sans-serif" font-size="14" lengthAdjust="spacing" textLength="102" x="17" y="599.1426">MODIFIED_CUP</text></g><g id="OPENED_COMMENTS"><rect fill="#F1F1F1" height="50" rx="12.5" ry="12.5" style="stroke:#181818;stroke-width:0.5;" width="164" x="164" y="579.6094"/><line style="stroke:#181818;stroke-width:0.5;" x1="164" x2="328" y1="607.2188" y2="607.2188"/><text fill="#000000" font-family="sans-serif" font-size="14" lengthAdjust="spacing" textLength="144" x="174" y="599.1426">OPENED_COMMENTS</text></g><g id="OPENED_TRANSACTION"><rect fill="#F1F1F1" height="50" rx="12.5" ry="12.5" style="stroke:#181818;stroke-width:0.5;" width="182" x="363" y="579.6094"/><line style="stroke:#181818;stroke-width:0.5;" x1="363" x2="545" y1="607.2188" y2="607.2188"/><text fill="#000000" font-family="sans-serif" font-size="14" lengthAdjust="spacing" textLength="162" x="373" y="599.1426">OPENED_TRANSACTION</text></g><g id="MODIFIED_COMMENTS"><rect fill="#F1F1F1" height="50" rx="12.5" ry="12.5" style="stroke:#181818;stroke-width:0.5;" width="173" x="159.5" y="758.6094"/><line style="stroke:#181818;stroke-width:0.5;" x1="159.5" x2="332.5" y1="786.2188" y2="786.2188"/><text fill="#000000" font-family="sans-serif" font-size="14" lengthAdjust="spacing" textLength="153" x="169.5" y="778.1426">MODIFIED_COMMENTS</text></g><g id="LOGGED_OUT"><rect fill="#F1F1F1" height="50" rx="12.5" ry="12.5" style="stroke:#181818;stroke-width:0.5;" width="117" x="523.5" y="271.6094"/><line style="stroke:#181818;stroke-width:0.5;" x1="523.5" x2="640.5" y1="299.2188" y2="299.2188"/><text fill="#000000" font-family="sans-serif" font-size="14" lengthAdjust="spacing" textLength="97" x="533.5" y="291.1426">LOGGED_OUT</text></g><ellipse cx="582" cy="442.6094" fill="none" rx="10" ry="10" style="stroke:#222222;stroke-width:1.0;"/><ellipse cx="582.5" cy="443.1094" fill="#222222" rx="6" ry="6" style="stroke:none;stroke-width:1.0;"/><!--MD5=[c55730823db07d419ff05d147b4e3be1]
link *start to REGISTRED--><g id="link_*start_REGISTRED"><path d="M413,64.6194 C413,77.3094 413,101.0194 413,120.1794 " fill="none" id="*start-to-REGISTRED" style="stroke:#181818;stroke-width:1.0;"/><polygon fill="#181818" points="413,125.4494,417,116.4494,413,120.4494,409,116.4494,413,125.4494" style="stroke:#181818;stroke-width:1.0;"/></g><!--MD5=[6b6a6dbe57b26daed302292969daf5dd]
link REGISTRED to OPENED_CUP--><g id="link_REGISTRED_OPENED_CUP"><path d="M362.92,172.5994 C323.8,191.9794 272.14,224.8794 248,271.6094 C224.89,316.3494 231.69,376.9594 238.8,412.4194 " fill="none" id="REGISTRED-to-OPENED_CUP" style="stroke:#181818;stroke-width:1.0;"/><polygon fill="#181818" points="239.85,417.4594,241.9427,407.8354,238.8365,412.5632,234.1087,409.457,239.85,417.4594" style="stroke:#181818;stroke-width:1.0;"/><path d="M253,283.6094 L253,309.6094 L315,309.6094 L315,293.6094 L305,283.6094 L253,283.6094 " fill="#FEFFDD" style="stroke:#181818;stroke-width:0.5;"/><path d="M305,283.6094 L305,293.6094 L315,293.6094 L305,283.6094 " fill="#FEFFDD" style="stroke:#181818;stroke-width:0.5;"/><text fill="#000000" font-family="sans-serif" font-size="13" lengthAdjust="spacing" textLength="41" x="259" y="302.1045">getCup</text></g><!--MD5=[107338147d75e844f8419c7acec20691]
link REGISTRED to OPENED_CUP_LIST--><g id="link_REGISTRED_OPENED_CUP_LIST"><path d="M413,175.7094 C413,200.6294 413,239.5594 413,266.2594 " fill="none" id="REGISTRED-to-OPENED_CUP_LIST" style="stroke:#181818;stroke-width:1.0;"/><polygon fill="#181818" points="413,271.4294,417,262.4294,413,266.4294,409,262.4294,413,271.4294" style="stroke:#181818;stroke-width:1.0;"/><path d="M418,210.6094 L418,236.6094 L501,236.6094 L501,220.6094 L491,210.6094 L418,210.6094 " fill="#FEFFDD" style="stroke:#181818;stroke-width:0.5;"/><path d="M491,210.6094 L491,220.6094 L501,220.6094 L491,210.6094 " fill="#FEFFDD" style="stroke:#181818;stroke-width:0.5;"/><text fill="#000000" font-family="sans-serif" font-size="13" lengthAdjust="spacing" textLength="62" x="424" y="229.1045">getCupList</text></g><!--MD5=[74ccb4b4196484d0c4bff76e4ecabccf]
link OPENED_CUP_LIST to CREATED_CUP--><g id="link_OPENED_CUP_LIST_CREATED_CUP"><path d="M413,321.7094 C413,346.6294 413,385.5594 413,412.2594 " fill="none" id="OPENED_CUP_LIST-to-CREATED_CUP" style="stroke:#181818;stroke-width:1.0;"/><polygon fill="#181818" points="413,417.4294,417,408.4294,413,412.4294,409,408.4294,413,417.4294" style="stroke:#181818;stroke-width:1.0;"/><path d="M418,356.6094 L418,382.6094 L483,382.6094 L483,366.6094 L473,356.6094 L418,356.6094 " fill="#FEFFDD" style="stroke:#181818;stroke-width:0.5;"/><path d="M473,356.6094 L473,366.6094 L483,366.6094 L473,356.6094 " fill="#FEFFDD" style="stroke:#181818;stroke-width:0.5;"/><text fill="#000000" font-family="sans-serif" font-size="13" lengthAdjust="spacing" textLength="44" x="424" y="375.1045">addCup</text></g><!--MD5=[c6a2fc2f9e3617fa3d75642aba595fa4]
link OPENED_CUP_LIST to OPENED_CUP--><g id="link_OPENED_CUP_LIST_OPENED_CUP"><path d="M373.57,321.8694 C360.25,330.6694 345.58,341.0594 333,351.6094 C310.4,370.5694 287.31,394.7194 270.6,413.2394 " fill="none" id="OPENED_CUP_LIST-to-OPENED_CUP" style="stroke:#181818;stroke-width:1.0;"/><polygon fill="#181818" points="266.92,417.3394,275.9053,413.3064,270.2569,413.6158,269.9476,407.9674,266.92,417.3394" style="stroke:#181818;stroke-width:1.0;"/><path d="M338,356.6094 L338,382.6094 L400,382.6094 L400,366.6094 L390,356.6094 L338,356.6094 " fill="#FEFFDD" style="stroke:#181818;stroke-width:0.5;"/><path d="M390,356.6094 L390,366.6094 L400,366.6094 L390,356.6094 " fill="#FEFFDD" style="stroke:#181818;stroke-width:0.5;"/><text fill="#000000" font-family="sans-serif" font-size="13" lengthAdjust="spacing" textLength="41" x="344" y="375.1045">getCup</text></g><!--MD5=[9bb7767be3df66492ce7ad37cea1099d]
link OPENED_CUP to MODIFIED_CUP--><g id="link_OPENED_CUP_MODIFIED_CUP"><path d="M190.17,467.7294 C174.61,475.9194 158.34,485.9794 145,497.6094 C119.6,519.7394 97.81,551.7494 83.96,574.7994 " fill="none" id="OPENED_CUP-to-MODIFIED_CUP" style="stroke:#181818;stroke-width:1.0;"/><polygon fill="#181818" points="81.3,579.2794,89.3382,573.5884,83.8557,574.9819,82.4622,569.4993,81.3,579.2794" style="stroke:#181818;stroke-width:1.0;"/><path d="M150,502.6094 L150,544.6094 L233,544.6094 L233,512.6094 L223,502.6094 L150,502.6094 " fill="#FEFFDD" style="stroke:#181818;stroke-width:0.5;"/><path d="M223,502.6094 L223,512.6094 L233,512.6094 L223,502.6094 " fill="#FEFFDD" style="stroke:#181818;stroke-width:0.5;"/><text fill="#000000" font-family="sans-serif" font-size="13" lengthAdjust="spacing" textLength="62" x="156" y="521.1045">updateCup</text><text fill="#000000" font-family="sans-serif" font-size="13" lengthAdjust="spacing" textLength="58" x="156" y="537.4561">deleteCup</text></g><!--MD5=[9f4a52bb31e0363b8389a457f572c997]
link OPENED_CUP to OPENED_COMMENTS--><g id="link_OPENED_CUP_OPENED_COMMENTS"><path d="M246,467.9094 C246,496.4994 246,543.9394 246,574.4794 " fill="none" id="OPENED_CUP-to-OPENED_COMMENTS" style="stroke:#181818;stroke-width:1.0;"/><polygon fill="#181818" points="246,579.6094,250.0257,570.6208,246.0143,574.6094,242.0257,570.598,246,579.6094" style="stroke:#181818;stroke-width:1.0;"/><path d="M251,510.6094 L251,536.6094 L346,536.6094 L346,520.6094 L336,510.6094 L251,510.6094 " fill="#FEFFDD" style="stroke:#181818;stroke-width:0.5;"/><path d="M336,510.6094 L336,520.6094 L346,520.6094 L336,510.6094 " fill="#FEFFDD" style="stroke:#181818;stroke-width:0.5;"/><text fill="#000000" font-family="sans-serif" font-size="13" lengthAdjust="spacing" textLength="74" x="257" y="529.1045">getComment</text></g><!--MD5=[ffc664547506c101f65735929600eed1]
link OPENED_CUP to OPENED_TRANSACTION--><g id="link_OPENED_CUP_OPENED_TRANSACTION"><path d="M302.51,465.3294 C321.39,473.9294 341.95,484.8294 359,497.6094 C388.42,519.6494 415.72,551.8594 433.44,574.9894 " fill="none" id="OPENED_CUP-to-OPENED_TRANSACTION" style="stroke:#181818;stroke-width:1.0;"/><polygon fill="#181818" points="436.63,579.1894,434.3698,569.6034,433.6049,575.2083,428,574.4435,436.63,579.1894" style="stroke:#181818;stroke-width:1.0;"/><path d="M417,510.6094 L417,536.6094 L523,536.6094 L523,520.6094 L513,510.6094 L417,510.6094 " fill="#FEFFDD" style="stroke:#181818;stroke-width:0.5;"/><path d="M513,510.6094 L513,520.6094 L523,520.6094 L513,510.6094 " fill="#FEFFDD" style="stroke:#181818;stroke-width:0.5;"/><text fill="#000000" font-family="sans-serif" font-size="13" lengthAdjust="spacing" textLength="85" x="423" y="529.1045">getTransaction</text></g><!--MD5=[1e0bea6b1ff2681aefa2cf05dfb149e6]
link OPENED_COMMENTS to MODIFIED_COMMENTS--><g id="link_OPENED_COMMENTS_MODIFIED_COMMENTS"><path d="M246,629.8494 C246,661.9294 246,718.4694 246,753.0294 " fill="none" id="OPENED_COMMENTS-to-MODIFIED_COMMENTS" style="stroke:#181818;stroke-width:1.0;"/><polygon fill="#181818" points="246,758.3794,250,749.3794,246,753.3794,242,749.3794,246,758.3794" style="stroke:#181818;stroke-width:1.0;"/><path d="M251,664.6094 L251,723.6094 L373,723.6094 L373,674.6094 L363,664.6094 L251,664.6094 " fill="#FEFFDD" style="stroke:#181818;stroke-width:0.5;"/><path d="M363,664.6094 L363,674.6094 L373,674.6094 L363,664.6094 " fill="#FEFFDD" style="stroke:#181818;stroke-width:0.5;"/><text fill="#000000" font-family="sans-serif" font-size="13" lengthAdjust="spacing" textLength="77" x="257" y="683.1045">addComment</text><text fill="#000000" font-family="sans-serif" font-size="13" lengthAdjust="spacing" textLength="95" x="257" y="699.4561">updateComment</text><text fill="#000000" font-family="sans-serif" font-size="13" lengthAdjust="spacing" textLength="101" x="257" y="715.8076">deleteComponent</text></g><!--MD5=[6b4e0b2082bebb9ae80258b41c83b1ab]
link REGISTRED to LOGGED_OUT--><g id="link_REGISTRED_LOGGED_OUT"><path d="M463.23,173.0594 C480.36,181.7294 498.96,192.7494 514,205.6094 C534.62,223.2394 552.83,248.1394 565.21,267.2794 " fill="none" id="REGISTRED-to-LOGGED_OUT" style="stroke:#181818;stroke-width:1.0;"/><polygon fill="#181818" points="567.92,271.5194,566.4564,261.7799,565.2328,267.3028,559.7099,266.0793,567.92,271.5194" style="stroke:#181818;stroke-width:1.0;"/><path d="M551,210.6094 L551,236.6094 L607,236.6094 L607,220.6094 L597,210.6094 L551,210.6094 " fill="#FEFFDD" style="stroke:#181818;stroke-width:0.5;"/><path d="M597,210.6094 L597,220.6094 L607,220.6094 L597,210.6094 " fill="#FEFFDD" style="stroke:#181818;stroke-width:0.5;"/><text fill="#000000" font-family="sans-serif" font-size="13" lengthAdjust="spacing" textLength="35" x="557" y="229.1045">logout</text></g><!--MD5=[6ecef19f19180ea3d578cca876edfc47]
link LOGGED_OUT to *end--><g id="link_LOGGED_OUT_*end"><path d="M582,321.7094 C582,351.9294 582,402.7594 582,427.3794 " fill="none" id="LOGGED_OUT-to-*end" style="stroke:#181818;stroke-width:1.0;"/><polygon fill="#181818" points="582,432.4994,586,423.4994,582,427.4994,578,423.4994,582,432.4994" style="stroke:#181818;stroke-width:1.0;"/></g><!--MD5=[ddbd818dc78df1120f6d49057f27b7af]
@startuml UseCaseContextRegistred
title UseCaseContextRegistred

state REGISTRED

[*] - -> REGISTRED

REGISTRED - -> OPENED_CUP
    note on link
        getCup
    end note

REGISTRED - -> OPENED_CUP_LIST
    note on link
        getCupList
    end note     

OPENED_CUP_LIST - -> CREATED_CUP
    note on link
        addCup
    end note 

OPENED_CUP_LIST - -> OPENED_CUP
    note on link
        getCup
    end note               

OPENED_CUP - -> MODIFIED_CUP
    note on link
        updateCup
        deleteCup
    end note   

OPENED_CUP - -> OPENED_COMMENTS
    note on link
        getComment
    end note

OPENED_CUP - -> OPENED_TRANSACTION
    note on link
        getTransaction
    end note

OPENED_COMMENTS - -> MODIFIED_COMMENTS
    note on link
        addComment
        updateComment
        deleteComponent
    end note                 

REGISTRED - -> LOGGED_OUT
    note on link
        logout
    end note

LOGGED_OUT - -> [*]


@enduml

PlantUML version 1.2022.7(Mon Aug 22 19:01:30 CEST 2022)
(GPL source distribution)
Java Runtime: OpenJDK Runtime Environment
JVM: OpenJDK 64-Bit Server VM
Default Encoding: Cp1252
Language: es
Country: ES
--></g></svg>