<?xml version="1.0" encoding="UTF-8" standalone="no"?><svg xmlns="http://www.w3.org/2000/svg" xmlns:xlink="http://www.w3.org/1999/xlink" contentStyleType="text/css" height="713px" preserveAspectRatio="none" style="width:477px;height:713px;background:#FFFFFF;" version="1.1" viewBox="0 0 477 713" width="477px" zoomAndPan="magnify"><defs/><g><!--MD5=[29cc8a38e2d198bc9cc23f76217d9df9]
cluster DomainModel--><g id="cluster_DomainModel"><path d="M8.5,6 L105.5,6 A3.75,3.75 0 0 1 108,8.5 L115,29.6094 L467.5,29.6094 A2.5,2.5 0 0 1 470,32.1094 L470,703.5 A2.5,2.5 0 0 1 467.5,706 L8.5,706 A2.5,2.5 0 0 1 6,703.5 L6,8.5 A2.5,2.5 0 0 1 8.5,6 " fill="none" style="stroke:#000000;stroke-width:1.5;"/><line style="stroke:#000000;stroke-width:1.5;" x1="6" x2="115" y1="29.6094" y2="29.6094"/><text fill="#000000" font-family="sans-serif" font-size="14" font-weight="bold" lengthAdjust="spacing" textLength="96" x="10" y="22.5332">DomainModel</text></g><!--MD5=[ac0fb1078e9f82ae3970d862275150d1]
class DomainModel.Community--><g id="elem_DomainModel.Community"><rect codeLine="2" fill="#F1F1F1" height="48" id="DomainModel.Community" rx="2.5" ry="2.5" style="stroke:#181818;stroke-width:0.5;" width="102" x="40" y="42"/><ellipse cx="55" cy="58" fill="#ADD1B2" rx="11" ry="11" style="stroke:#181818;stroke-width:1.0;"/><path d="M57.7656,53.875 Q57.9219,53.6563 58.1094,53.5469 Q58.2969,53.4375 58.5156,53.4375 Q58.8906,53.4375 59.125,53.7031 Q59.3594,53.9531 59.3594,54.5625 L59.3594,56.0156 Q59.3594,56.625 59.125,56.8906 Q58.8906,57.1563 58.5156,57.1563 Q58.1719,57.1563 57.9688,56.9531 Q57.7656,56.7656 57.6563,56.25 Q57.6094,55.8906 57.4219,55.7031 Q57.0938,55.3281 56.4844,55.1094 Q55.875,54.8906 55.25,54.8906 Q54.4844,54.8906 53.8438,55.2188 Q53.2188,55.5469 52.7188,56.2969 Q52.2344,57.0469 52.2344,58.0781 L52.2344,59.1719 Q52.2344,60.4063 53.125,61.2344 Q54.0156,62.0469 55.6094,62.0469 Q56.5469,62.0469 57.2031,61.7969 Q57.5938,61.6406 58.0156,61.2031 Q58.2813,60.9375 58.4219,60.8594 Q58.5781,60.7813 58.7813,60.7813 Q59.1094,60.7813 59.3594,61.0469 Q59.625,61.2969 59.625,61.6406 Q59.625,61.9844 59.2813,62.3906 Q58.7813,62.9688 57.9844,63.2969 Q56.9063,63.75 55.6094,63.75 Q54.0938,63.75 52.8906,63.125 Q51.9063,62.625 51.2188,61.5625 Q50.5313,60.4844 50.5313,59.2031 L50.5313,58.0469 Q50.5313,56.7188 51.1406,55.5781 Q51.7656,54.4219 52.8594,53.8125 Q53.9531,53.1875 55.1875,53.1875 Q55.9219,53.1875 56.5625,53.3594 Q57.2188,53.5156 57.7656,53.875 Z " fill="#000000"/><text fill="#000000" font-family="sans-serif" font-size="14" lengthAdjust="spacing" textLength="70" x="69" y="63.7285">Community</text><line style="stroke:#181818;stroke-width:0.5;" x1="41" x2="141" y1="74" y2="74"/><line style="stroke:#181818;stroke-width:0.5;" x1="41" x2="141" y1="82" y2="82"/></g><!--MD5=[778487f16f078d4b2deaa9059ca1bee4]
class DomainModel.User--><g id="elem_DomainModel.User"><rect codeLine="3" fill="#F1F1F1" height="48" id="DomainModel.User" rx="2.5" ry="2.5" style="stroke:#181818;stroke-width:0.5;" width="61" x="104.5" y="150"/><ellipse cx="119.5" cy="166" fill="#ADD1B2" rx="11" ry="11" style="stroke:#181818;stroke-width:1.0;"/><path d="M122.2656,161.875 Q122.4219,161.6563 122.6094,161.5469 Q122.7969,161.4375 123.0156,161.4375 Q123.3906,161.4375 123.625,161.7031 Q123.8594,161.9531 123.8594,162.5625 L123.8594,164.0156 Q123.8594,164.625 123.625,164.8906 Q123.3906,165.1563 123.0156,165.1563 Q122.6719,165.1563 122.4688,164.9531 Q122.2656,164.7656 122.1563,164.25 Q122.1094,163.8906 121.9219,163.7031 Q121.5938,163.3281 120.9844,163.1094 Q120.375,162.8906 119.75,162.8906 Q118.9844,162.8906 118.3438,163.2188 Q117.7188,163.5469 117.2188,164.2969 Q116.7344,165.0469 116.7344,166.0781 L116.7344,167.1719 Q116.7344,168.4063 117.625,169.2344 Q118.5156,170.0469 120.1094,170.0469 Q121.0469,170.0469 121.7031,169.7969 Q122.0938,169.6406 122.5156,169.2031 Q122.7813,168.9375 122.9219,168.8594 Q123.0781,168.7813 123.2813,168.7813 Q123.6094,168.7813 123.8594,169.0469 Q124.125,169.2969 124.125,169.6406 Q124.125,169.9844 123.7813,170.3906 Q123.2813,170.9688 122.4844,171.2969 Q121.4063,171.75 120.1094,171.75 Q118.5938,171.75 117.3906,171.125 Q116.4063,170.625 115.7188,169.5625 Q115.0313,168.4844 115.0313,167.2031 L115.0313,166.0469 Q115.0313,164.7188 115.6406,163.5781 Q116.2656,162.4219 117.3594,161.8125 Q118.4531,161.1875 119.6875,161.1875 Q120.4219,161.1875 121.0625,161.3594 Q121.7188,161.5156 122.2656,161.875 Z " fill="#000000"/><text fill="#000000" font-family="sans-serif" font-size="14" lengthAdjust="spacing" textLength="29" x="133.5" y="171.7285">User</text><line style="stroke:#181818;stroke-width:0.5;" x1="105.5" x2="164.5" y1="182" y2="182"/><line style="stroke:#181818;stroke-width:0.5;" x1="105.5" x2="164.5" y1="190" y2="190"/></g><!--MD5=[d7614b0957e89b3fc746334d5628ab35]
class DomainModel.Registred--><g id="elem_DomainModel.Registred"><rect codeLine="4" fill="#F1F1F1" height="48" id="DomainModel.Registred" rx="2.5" ry="2.5" style="stroke:#181818;stroke-width:0.5;" width="93" x="221.5" y="258"/><ellipse cx="236.5" cy="274" fill="#ADD1B2" rx="11" ry="11" style="stroke:#181818;stroke-width:1.0;"/><path d="M239.2656,269.875 Q239.4219,269.6563 239.6094,269.5469 Q239.7969,269.4375 240.0156,269.4375 Q240.3906,269.4375 240.625,269.7031 Q240.8594,269.9531 240.8594,270.5625 L240.8594,272.0156 Q240.8594,272.625 240.625,272.8906 Q240.3906,273.1563 240.0156,273.1563 Q239.6719,273.1563 239.4688,272.9531 Q239.2656,272.7656 239.1563,272.25 Q239.1094,271.8906 238.9219,271.7031 Q238.5938,271.3281 237.9844,271.1094 Q237.375,270.8906 236.75,270.8906 Q235.9844,270.8906 235.3438,271.2188 Q234.7188,271.5469 234.2188,272.2969 Q233.7344,273.0469 233.7344,274.0781 L233.7344,275.1719 Q233.7344,276.4063 234.625,277.2344 Q235.5156,278.0469 237.1094,278.0469 Q238.0469,278.0469 238.7031,277.7969 Q239.0938,277.6406 239.5156,277.2031 Q239.7813,276.9375 239.9219,276.8594 Q240.0781,276.7813 240.2813,276.7813 Q240.6094,276.7813 240.8594,277.0469 Q241.125,277.2969 241.125,277.6406 Q241.125,277.9844 240.7813,278.3906 Q240.2813,278.9688 239.4844,279.2969 Q238.4063,279.75 237.1094,279.75 Q235.5938,279.75 234.3906,279.125 Q233.4063,278.625 232.7188,277.5625 Q232.0313,276.4844 232.0313,275.2031 L232.0313,274.0469 Q232.0313,272.7188 232.6406,271.5781 Q233.2656,270.4219 234.3594,269.8125 Q235.4531,269.1875 236.6875,269.1875 Q237.4219,269.1875 238.0625,269.3594 Q238.7188,269.5156 239.2656,269.875 Z " fill="#000000"/><text fill="#000000" font-family="sans-serif" font-size="14" lengthAdjust="spacing" textLength="61" x="250.5" y="279.7285">Registred</text><line style="stroke:#181818;stroke-width:0.5;" x1="222.5" x2="313.5" y1="290" y2="290"/><line style="stroke:#181818;stroke-width:0.5;" x1="222.5" x2="313.5" y1="298" y2="298"/></g><!--MD5=[cb7c6b7e8db45c5356847b797c1e8261]
class DomainModel.Anonimous--><g id="elem_DomainModel.Anonimous"><rect codeLine="5" fill="#F1F1F1" height="48" id="DomainModel.Anonimous" rx="2.5" ry="2.5" style="stroke:#181818;stroke-width:0.5;" width="102" x="84" y="258"/><ellipse cx="99" cy="274" fill="#ADD1B2" rx="11" ry="11" style="stroke:#181818;stroke-width:1.0;"/><path d="M101.7656,269.875 Q101.9219,269.6563 102.1094,269.5469 Q102.2969,269.4375 102.5156,269.4375 Q102.8906,269.4375 103.125,269.7031 Q103.3594,269.9531 103.3594,270.5625 L103.3594,272.0156 Q103.3594,272.625 103.125,272.8906 Q102.8906,273.1563 102.5156,273.1563 Q102.1719,273.1563 101.9688,272.9531 Q101.7656,272.7656 101.6563,272.25 Q101.6094,271.8906 101.4219,271.7031 Q101.0938,271.3281 100.4844,271.1094 Q99.875,270.8906 99.25,270.8906 Q98.4844,270.8906 97.8438,271.2188 Q97.2188,271.5469 96.7188,272.2969 Q96.2344,273.0469 96.2344,274.0781 L96.2344,275.1719 Q96.2344,276.4063 97.125,277.2344 Q98.0156,278.0469 99.6094,278.0469 Q100.5469,278.0469 101.2031,277.7969 Q101.5938,277.6406 102.0156,277.2031 Q102.2813,276.9375 102.4219,276.8594 Q102.5781,276.7813 102.7813,276.7813 Q103.1094,276.7813 103.3594,277.0469 Q103.625,277.2969 103.625,277.6406 Q103.625,277.9844 103.2813,278.3906 Q102.7813,278.9688 101.9844,279.2969 Q100.9063,279.75 99.6094,279.75 Q98.0938,279.75 96.8906,279.125 Q95.9063,278.625 95.2188,277.5625 Q94.5313,276.4844 94.5313,275.2031 L94.5313,274.0469 Q94.5313,272.7188 95.1406,271.5781 Q95.7656,270.4219 96.8594,269.8125 Q97.9531,269.1875 99.1875,269.1875 Q99.9219,269.1875 100.5625,269.3594 Q101.2188,269.5156 101.7656,269.875 Z " fill="#000000"/><text fill="#000000" font-family="sans-serif" font-size="14" lengthAdjust="spacing" textLength="70" x="113" y="279.7285">Anonimous</text><line style="stroke:#181818;stroke-width:0.5;" x1="85" x2="185" y1="290" y2="290"/><line style="stroke:#181818;stroke-width:0.5;" x1="85" x2="185" y1="298" y2="298"/></g><!--MD5=[c2862702891b8352ca9f313b85e1d93c]
class DomainModel.CupGallery--><g id="elem_DomainModel.CupGallery"><rect codeLine="6" fill="#F1F1F1" height="48" id="DomainModel.CupGallery" rx="2.5" ry="2.5" style="stroke:#181818;stroke-width:0.5;" width="103" x="22.5" y="366"/><ellipse cx="37.5" cy="382" fill="#ADD1B2" rx="11" ry="11" style="stroke:#181818;stroke-width:1.0;"/><path d="M40.2656,377.875 Q40.4219,377.6563 40.6094,377.5469 Q40.7969,377.4375 41.0156,377.4375 Q41.3906,377.4375 41.625,377.7031 Q41.8594,377.9531 41.8594,378.5625 L41.8594,380.0156 Q41.8594,380.625 41.625,380.8906 Q41.3906,381.1563 41.0156,381.1563 Q40.6719,381.1563 40.4688,380.9531 Q40.2656,380.7656 40.1563,380.25 Q40.1094,379.8906 39.9219,379.7031 Q39.5938,379.3281 38.9844,379.1094 Q38.375,378.8906 37.75,378.8906 Q36.9844,378.8906 36.3438,379.2188 Q35.7188,379.5469 35.2188,380.2969 Q34.7344,381.0469 34.7344,382.0781 L34.7344,383.1719 Q34.7344,384.4063 35.625,385.2344 Q36.5156,386.0469 38.1094,386.0469 Q39.0469,386.0469 39.7031,385.7969 Q40.0938,385.6406 40.5156,385.2031 Q40.7813,384.9375 40.9219,384.8594 Q41.0781,384.7813 41.2813,384.7813 Q41.6094,384.7813 41.8594,385.0469 Q42.125,385.2969 42.125,385.6406 Q42.125,385.9844 41.7813,386.3906 Q41.2813,386.9688 40.4844,387.2969 Q39.4063,387.75 38.1094,387.75 Q36.5938,387.75 35.3906,387.125 Q34.4063,386.625 33.7188,385.5625 Q33.0313,384.4844 33.0313,383.2031 L33.0313,382.0469 Q33.0313,380.7188 33.6406,379.5781 Q34.2656,378.4219 35.3594,377.8125 Q36.4531,377.1875 37.6875,377.1875 Q38.4219,377.1875 39.0625,377.3594 Q39.7188,377.5156 40.2656,377.875 Z " fill="#000000"/><text fill="#000000" font-family="sans-serif" font-size="14" lengthAdjust="spacing" textLength="71" x="51.5" y="387.7285">CupGallery</text><line style="stroke:#181818;stroke-width:0.5;" x1="23.5" x2="124.5" y1="398" y2="398"/><line style="stroke:#181818;stroke-width:0.5;" x1="23.5" x2="124.5" y1="406" y2="406"/></g><!--MD5=[fabefea3397ba01a23439924b4297c88]
class DomainModel.Cup--><g id="elem_DomainModel.Cup"><rect codeLine="7" fill="#F1F1F1" height="48" id="DomainModel.Cup" rx="2.5" ry="2.5" style="stroke:#181818;stroke-width:0.5;" width="58" x="212" y="504"/><ellipse cx="227" cy="520" fill="#ADD1B2" rx="11" ry="11" style="stroke:#181818;stroke-width:1.0;"/><path d="M229.7656,515.875 Q229.9219,515.6563 230.1094,515.5469 Q230.2969,515.4375 230.5156,515.4375 Q230.8906,515.4375 231.125,515.7031 Q231.3594,515.9531 231.3594,516.5625 L231.3594,518.0156 Q231.3594,518.625 231.125,518.8906 Q230.8906,519.1563 230.5156,519.1563 Q230.1719,519.1563 229.9688,518.9531 Q229.7656,518.7656 229.6563,518.25 Q229.6094,517.8906 229.4219,517.7031 Q229.0938,517.3281 228.4844,517.1094 Q227.875,516.8906 227.25,516.8906 Q226.4844,516.8906 225.8438,517.2188 Q225.2188,517.5469 224.7188,518.2969 Q224.2344,519.0469 224.2344,520.0781 L224.2344,521.1719 Q224.2344,522.4063 225.125,523.2344 Q226.0156,524.0469 227.6094,524.0469 Q228.5469,524.0469 229.2031,523.7969 Q229.5938,523.6406 230.0156,523.2031 Q230.2813,522.9375 230.4219,522.8594 Q230.5781,522.7813 230.7813,522.7813 Q231.1094,522.7813 231.3594,523.0469 Q231.625,523.2969 231.625,523.6406 Q231.625,523.9844 231.2813,524.3906 Q230.7813,524.9688 229.9844,525.2969 Q228.9063,525.75 227.6094,525.75 Q226.0938,525.75 224.8906,525.125 Q223.9063,524.625 223.2188,523.5625 Q222.5313,522.4844 222.5313,521.2031 L222.5313,520.0469 Q222.5313,518.7188 223.1406,517.5781 Q223.7656,516.4219 224.8594,515.8125 Q225.9531,515.1875 227.1875,515.1875 Q227.9219,515.1875 228.5625,515.3594 Q229.2188,515.5156 229.7656,515.875 Z " fill="#000000"/><text fill="#000000" font-family="sans-serif" font-size="14" lengthAdjust="spacing" textLength="26" x="241" y="525.7285">Cup</text><line style="stroke:#181818;stroke-width:0.5;" x1="213" x2="269" y1="536" y2="536"/><line style="stroke:#181818;stroke-width:0.5;" x1="213" x2="269" y1="544" y2="544"/></g><g id="elem_DomainModel.GMN9"><path d="M305,474 L305,524 L270.4,528 L305,532 L305,582.1094 A0,0 0 0 0 305,582.1094 L389,582.1094 A0,0 0 0 0 389,582.1094 L389,484 L379,474 L305,474 A0,0 0 0 0 305,474 " fill="#FEFFDD" style="stroke:#181818;stroke-width:0.5;"/><path d="M379,474 L379,484 L389,484 L379,474 " fill="#FEFFDD" style="stroke:#181818;stroke-width:0.5;"/><text fill="#000000" font-family="sans-serif" font-size="13" lengthAdjust="spacing" textLength="32" x="311" y="492.4951">name</text><text fill="#000000" font-family="sans-serif" font-size="13" lengthAdjust="spacing" textLength="28" x="311" y="508.8467">price</text><text fill="#000000" font-family="sans-serif" font-size="13" lengthAdjust="spacing" textLength="63" x="311" y="525.1982">description</text><text fill="#000000" font-family="sans-serif" font-size="13" lengthAdjust="spacing" textLength="41" x="311" y="541.5498">salable</text><text fill="#000000" font-family="sans-serif" font-size="13" lengthAdjust="spacing" textLength="34" x="311" y="557.9014">owner</text><text fill="#000000" font-family="sans-serif" font-size="13" lengthAdjust="spacing" textLength="12" x="311" y="574.2529">...</text></g><!--MD5=[aa036252e2dccfc19629d19d8b0e0dc1]
class DomainModel.Comment--><g id="elem_DomainModel.Comment"><rect codeLine="9" fill="#F1F1F1" height="48" id="DomainModel.Comment" rx="2.5" ry="2.5" style="stroke:#181818;stroke-width:0.5;" width="92" x="292" y="642"/><ellipse cx="307" cy="658" fill="#ADD1B2" rx="11" ry="11" style="stroke:#181818;stroke-width:1.0;"/><path d="M309.7656,653.875 Q309.9219,653.6563 310.1094,653.5469 Q310.2969,653.4375 310.5156,653.4375 Q310.8906,653.4375 311.125,653.7031 Q311.3594,653.9531 311.3594,654.5625 L311.3594,656.0156 Q311.3594,656.625 311.125,656.8906 Q310.8906,657.1563 310.5156,657.1563 Q310.1719,657.1563 309.9688,656.9531 Q309.7656,656.7656 309.6563,656.25 Q309.6094,655.8906 309.4219,655.7031 Q309.0938,655.3281 308.4844,655.1094 Q307.875,654.8906 307.25,654.8906 Q306.4844,654.8906 305.8438,655.2188 Q305.2188,655.5469 304.7188,656.2969 Q304.2344,657.0469 304.2344,658.0781 L304.2344,659.1719 Q304.2344,660.4063 305.125,661.2344 Q306.0156,662.0469 307.6094,662.0469 Q308.5469,662.0469 309.2031,661.7969 Q309.5938,661.6406 310.0156,661.2031 Q310.2813,660.9375 310.4219,660.8594 Q310.5781,660.7813 310.7813,660.7813 Q311.1094,660.7813 311.3594,661.0469 Q311.625,661.2969 311.625,661.6406 Q311.625,661.9844 311.2813,662.3906 Q310.7813,662.9688 309.9844,663.2969 Q308.9063,663.75 307.6094,663.75 Q306.0938,663.75 304.8906,663.125 Q303.9063,662.625 303.2188,661.5625 Q302.5313,660.4844 302.5313,659.2031 L302.5313,658.0469 Q302.5313,656.7188 303.1406,655.5781 Q303.7656,654.4219 304.8594,653.8125 Q305.9531,653.1875 307.1875,653.1875 Q307.9219,653.1875 308.5625,653.3594 Q309.2188,653.5156 309.7656,653.875 Z " fill="#000000"/><text fill="#000000" font-family="sans-serif" font-size="14" lengthAdjust="spacing" textLength="60" x="321" y="663.7285">Comment</text><line style="stroke:#181818;stroke-width:0.5;" x1="293" x2="383" y1="674" y2="674"/><line style="stroke:#181818;stroke-width:0.5;" x1="293" x2="383" y1="682" y2="682"/></g><!--MD5=[3609aba1cb7f5dd9ef0e1c430eb6aab4]
class DomainModel.Transaction--><g id="elem_DomainModel.Transaction"><rect codeLine="10" fill="#F1F1F1" height="48" id="DomainModel.Transaction" rx="2.5" ry="2.5" style="stroke:#181818;stroke-width:0.5;" width="107" x="160.5" y="366"/><ellipse cx="175.5" cy="382" fill="#ADD1B2" rx="11" ry="11" style="stroke:#181818;stroke-width:1.0;"/><path d="M178.2656,377.875 Q178.4219,377.6563 178.6094,377.5469 Q178.7969,377.4375 179.0156,377.4375 Q179.3906,377.4375 179.625,377.7031 Q179.8594,377.9531 179.8594,378.5625 L179.8594,380.0156 Q179.8594,380.625 179.625,380.8906 Q179.3906,381.1563 179.0156,381.1563 Q178.6719,381.1563 178.4688,380.9531 Q178.2656,380.7656 178.1563,380.25 Q178.1094,379.8906 177.9219,379.7031 Q177.5938,379.3281 176.9844,379.1094 Q176.375,378.8906 175.75,378.8906 Q174.9844,378.8906 174.3438,379.2188 Q173.7188,379.5469 173.2188,380.2969 Q172.7344,381.0469 172.7344,382.0781 L172.7344,383.1719 Q172.7344,384.4063 173.625,385.2344 Q174.5156,386.0469 176.1094,386.0469 Q177.0469,386.0469 177.7031,385.7969 Q178.0938,385.6406 178.5156,385.2031 Q178.7813,384.9375 178.9219,384.8594 Q179.0781,384.7813 179.2813,384.7813 Q179.6094,384.7813 179.8594,385.0469 Q180.125,385.2969 180.125,385.6406 Q180.125,385.9844 179.7813,386.3906 Q179.2813,386.9688 178.4844,387.2969 Q177.4063,387.75 176.1094,387.75 Q174.5938,387.75 173.3906,387.125 Q172.4063,386.625 171.7188,385.5625 Q171.0313,384.4844 171.0313,383.2031 L171.0313,382.0469 Q171.0313,380.7188 171.6406,379.5781 Q172.2656,378.4219 173.3594,377.8125 Q174.4531,377.1875 175.6875,377.1875 Q176.4219,377.1875 177.0625,377.3594 Q177.7188,377.5156 178.2656,377.875 Z " fill="#000000"/><text fill="#000000" font-family="sans-serif" font-size="14" lengthAdjust="spacing" textLength="75" x="189.5" y="387.7285">Transaction</text><line style="stroke:#181818;stroke-width:0.5;" x1="161.5" x2="266.5" y1="398" y2="398"/><line style="stroke:#181818;stroke-width:0.5;" x1="161.5" x2="266.5" y1="406" y2="406"/></g><!--MD5=[624845db4028a5342a12a46c8b843d09]
class DomainModel.Management--><g id="elem_DomainModel.Management"><rect codeLine="11" fill="#F1F1F1" height="48" id="DomainModel.Management" rx="2.5" ry="2.5" style="stroke:#181818;stroke-width:0.5;" width="114" x="303" y="366"/><ellipse cx="318" cy="382" fill="#ADD1B2" rx="11" ry="11" style="stroke:#181818;stroke-width:1.0;"/><path d="M320.7656,377.875 Q320.9219,377.6563 321.1094,377.5469 Q321.2969,377.4375 321.5156,377.4375 Q321.8906,377.4375 322.125,377.7031 Q322.3594,377.9531 322.3594,378.5625 L322.3594,380.0156 Q322.3594,380.625 322.125,380.8906 Q321.8906,381.1563 321.5156,381.1563 Q321.1719,381.1563 320.9688,380.9531 Q320.7656,380.7656 320.6563,380.25 Q320.6094,379.8906 320.4219,379.7031 Q320.0938,379.3281 319.4844,379.1094 Q318.875,378.8906 318.25,378.8906 Q317.4844,378.8906 316.8438,379.2188 Q316.2188,379.5469 315.7188,380.2969 Q315.2344,381.0469 315.2344,382.0781 L315.2344,383.1719 Q315.2344,384.4063 316.125,385.2344 Q317.0156,386.0469 318.6094,386.0469 Q319.5469,386.0469 320.2031,385.7969 Q320.5938,385.6406 321.0156,385.2031 Q321.2813,384.9375 321.4219,384.8594 Q321.5781,384.7813 321.7813,384.7813 Q322.1094,384.7813 322.3594,385.0469 Q322.625,385.2969 322.625,385.6406 Q322.625,385.9844 322.2813,386.3906 Q321.7813,386.9688 320.9844,387.2969 Q319.9063,387.75 318.6094,387.75 Q317.0938,387.75 315.8906,387.125 Q314.9063,386.625 314.2188,385.5625 Q313.5313,384.4844 313.5313,383.2031 L313.5313,382.0469 Q313.5313,380.7188 314.1406,379.5781 Q314.7656,378.4219 315.8594,377.8125 Q316.9531,377.1875 318.1875,377.1875 Q318.9219,377.1875 319.5625,377.3594 Q320.2188,377.5156 320.7656,377.875 Z " fill="#000000"/><text fill="#000000" font-family="sans-serif" font-size="14" lengthAdjust="spacing" textLength="82" x="332" y="387.7285">Management</text><line style="stroke:#181818;stroke-width:0.5;" x1="304" x2="416" y1="398" y2="398"/><line style="stroke:#181818;stroke-width:0.5;" x1="304" x2="416" y1="406" y2="406"/></g><!--MD5=[f8c17d07f2e1900032abcd4e773ceeeb]
link DomainModel.Community to DomainModel.User--><g id="link_DomainModel.Community_DomainModel.User"><path codeLine="12" d="M105.1541,101.0816 C105.1541,101.0816 115.59,126.23 120.28,137.54 " fill="none" id="DomainModel.Community-DomainModel.User" style="stroke:#181818;stroke-width:1.0;"/><polygon fill="#181818" points="125.32,149.68,125.5649,139.8342,123.4036,145.0619,118.1759,142.9005,125.32,149.68" style="stroke:#181818;stroke-width:1.0;"/><line style="stroke:#181818;stroke-width:1.0;" x1="123.4036" x2="120.335" y1="145.0619" y2="137.675"/><polygon fill="#181818" points="100.55,90,99.1582,97.0755,105.1541,101.0816,106.5459,94.0061,100.55,90" style="stroke:#181818;stroke-width:1.0;"/><text fill="#000000" font-family="sans-serif" font-size="13" lengthAdjust="spacing" textLength="20" x="100.523" y="139.34">1..*</text></g><!--MD5=[334bb58e4cce1fece7772a26283dae78]
link DomainModel.Community to DomainModel.CupGallery--><g id="link_DomainModel.Community_DomainModel.CupGallery"><path codeLine="13" d="M84.3754,101.8204 C84.3754,101.8204 63.96,233.73 67,306 C67.65,321.33 68.96,338.21 70.27,352.72 " fill="none" id="DomainModel.Community-DomainModel.CupGallery" style="stroke:#181818;stroke-width:1.0;"/><polygon fill="#181818" points="71.52,365.78,74.6506,356.442,71.047,360.8024,66.6865,357.1988,71.52,365.78" style="stroke:#181818;stroke-width:1.0;"/><line style="stroke:#181818;stroke-width:1.0;" x1="71.047" x2="70.285" y1="360.8024" y2="352.84"/><polygon fill="#181818" points="86.5,90.01,81.5009,95.207,84.3754,101.8204,89.3745,96.6234,86.5,90.01" style="stroke:#181818;stroke-width:1.0;"/></g><!--MD5=[47582c0aa5078cf3633c605f963e2bef]
link DomainModel.CupGallery to DomainModel.Cup--><g id="link_DomainModel.CupGallery_DomainModel.Cup"><path codeLine="14" d="M111.6409,421.6401 C111.6409,421.6401 175.35,473.54 202.31,495.49 " fill="none" id="DomainModel.CupGallery-DomainModel.Cup" style="stroke:#181818;stroke-width:1.0;"/><polygon fill="#181818" points="212.53,503.82,208.0702,495.0388,208.6504,500.6658,203.0234,501.2461,212.53,503.82" style="stroke:#181818;stroke-width:1.0;"/><line style="stroke:#181818;stroke-width:1.0;" x1="208.6504" x2="202.45" y1="500.6658" y2="495.61"/><polygon fill="none" points="102.33,414.07,104.4621,420.9587,111.6409,421.6401,109.5088,414.7514,102.33,414.07" style="stroke:#181818;stroke-width:1.0;"/><text fill="#000000" font-family="sans-serif" font-size="13" lengthAdjust="spacing" textLength="20" x="184.1147" y="494.3142">0..*</text></g><!--MD5=[31b6c800ed92b422d981d995d6beca2b]
link DomainModel.Cup to DomainModel.Comment--><g id="link_DomainModel.Cup_DomainModel.Comment"><path codeLine="15" d="M264.4224,561.8366 C264.4224,561.8366 298.99,610.31 313.88,631.19 " fill="none" id="DomainModel.Cup-DomainModel.Comment" style="stroke:#181818;stroke-width:1.0;"/><polygon fill="#181818" points="321.46,641.82,319.4949,632.1692,318.5585,637.748,312.9797,636.8116,321.46,641.82" style="stroke:#181818;stroke-width:1.0;"/><line style="stroke:#181818;stroke-width:1.0;" x1="318.5585" x2="313.915" y1="637.748" y2="631.23"/><polygon fill="#181818" points="257.45,552.07,257.6807,559.2774,264.4224,561.8366,264.1917,554.6292,257.45,552.07" style="stroke:#181818;stroke-width:1.0;"/><text fill="#000000" font-family="sans-serif" font-size="13" lengthAdjust="spacing" textLength="20" x="294.6591" y="631.114">0..*</text></g><!--MD5=[20ddc0302675cb2dc51686daa9786847]
link DomainModel.Anonimous to DomainModel.CupGallery--><g id="link_DomainModel.Anonimous_DomainModel.CupGallery"><path codeLine="16" d="M115.7694,316.3977 C115.7694,316.3977 100.73,342.56 93.91,354.4 " fill="none" id="DomainModel.Anonimous-DomainModel.CupGallery" style="stroke:#181818;stroke-width:1.0;"/><polygon fill="#181818" points="87.42,365.68,95.3757,359.8742,89.9137,361.3462,88.4416,355.8843,87.42,365.68" style="stroke:#181818;stroke-width:1.0;"/><line style="stroke:#181818;stroke-width:1.0;" x1="89.9137" x2="93.905" y1="361.3462" y2="354.41"/><polygon fill="none" points="121.76,306,115.2988,309.202,115.7694,316.3977,122.2306,313.1957,121.76,306" style="stroke:#181818;stroke-width:1.0;"/></g><!--MD5=[83acc7a11200cb0a7a9d30e7c6bfa4d8]
link DomainModel.Registred to DomainModel.CupGallery--><g id="link_DomainModel.Registred_DomainModel.CupGallery"><path codeLine="17" d="M215.3663,311.7481 C215.3663,311.7481 154.93,344.78 127.93,359.53 " fill="none" id="DomainModel.Registred-DomainModel.CupGallery" style="stroke:#181818;stroke-width:1.0;"/><polygon fill="#181818" points="116.35,365.86,126.1651,365.0456,120.7355,363.4584,122.3226,358.0288,116.35,365.86" style="stroke:#181818;stroke-width:1.0;"/><line style="stroke:#181818;stroke-width:1.0;" x1="120.7355" x2="127.755" y1="363.4584" y2="359.63"/><polygon fill="none" points="225.9,306,218.7171,305.3628,215.3663,311.7481,222.5492,312.3853,225.9,306" style="stroke:#181818;stroke-width:1.0;"/></g><!--MD5=[65963b93fe75f43cf51a5888efcdd350]
reverse link DomainModel.User to DomainModel.Registred--><g id="link_DomainModel.User_DomainModel.Registred"><path codeLine="18" d="M179.71,210.64 C199.18,226.15 221.44,243.89 238.74,257.68 " fill="none" id="DomainModel.User-backto-DomainModel.Registred" style="stroke:#181818;stroke-width:1.0;"/><polygon fill="none" points="175.14,215.94,163.86,198,183.86,204.99,175.14,215.94" style="stroke:#181818;stroke-width:1.0;"/></g><!--MD5=[322e0bc76ae845589fa9a2636cacc3c4]
reverse link DomainModel.User to DomainModel.Anonimous--><g id="link_DomainModel.User_DomainModel.Anonimous"><path codeLine="19" d="M135,218.02 C135,231.58 135,246.04 135,257.68 " fill="none" id="DomainModel.User-backto-DomainModel.Anonimous" style="stroke:#181818;stroke-width:1.0;"/><polygon fill="none" points="128,218,135,198,142,218,128,218" style="stroke:#181818;stroke-width:1.0;"/></g><!--MD5=[b9d61b876a389fa905fff51dd59f247e]
link DomainModel.Registred to DomainModel.Transaction--><g id="link_DomainModel.Registred_DomainModel.Transaction"><path codeLine="20" d="M256.28,306 C248.06,322.14 237.02,343.82 228.28,360.97 " fill="none" id="DomainModel.Registred-to-DomainModel.Transaction" style="stroke:#181818;stroke-width:1.0;stroke-dasharray:7.0,7.0;"/><polygon fill="#181818" points="225.88,365.68,233.5304,359.4774,228.1503,361.2251,226.4026,355.845,225.88,365.68" style="stroke:#181818;stroke-width:1.0;"/></g><!--MD5=[05579804e9ff7215e24e477cfa74c266]
link DomainModel.Registred to DomainModel.Comment--><g id="link_DomainModel.Registred_DomainModel.Comment"><path codeLine="21" d="M314.68,292.05 C354.35,302.47 408.91,323.89 435,366 C460.22,406.7 455.64,475.76 407,582 C397.36,603.05 380.96,623.11 366.57,638.23 " fill="none" id="DomainModel.Registred-to-DomainModel.Comment" style="stroke:#181818;stroke-width:1.0;stroke-dasharray:7.0,7.0;"/><polygon fill="#181818" points="362.95,641.97,372.0766,638.2679,366.4207,638.3708,366.3178,632.7149,362.95,641.97" style="stroke:#181818;stroke-width:1.0;"/><text fill="#000000" font-family="sans-serif" font-size="13" lengthAdjust="spacing" textLength="20" x="346.7809" y="631.3025">0..*</text></g><!--MD5=[29bdbb8f66ec348952c5ee90a0587c6f]
link DomainModel.Registred to DomainModel.Management--><g id="link_DomainModel.Registred_DomainModel.Management"><path codeLine="22" d="M287.96,306 C302.21,322.42 321.43,344.56 336.43,361.84 " fill="none" id="DomainModel.Registred-to-DomainModel.Management" style="stroke:#181818;stroke-width:1.0;stroke-dasharray:7.0,7.0;"/><polygon fill="#181818" points="339.76,365.68,336.8843,356.2603,336.4837,361.903,330.8411,361.5024,339.76,365.68" style="stroke:#181818;stroke-width:1.0;"/></g><!--MD5=[7180f433c72bb9449fcfaeea51a35e9f]
link DomainModel.Management to DomainModel.Cup--><g id="link_DomainModel.Management_DomainModel.Cup"><path codeLine="23" d="M339.81,414.07 C319.04,437.81 286.7,474.77 264.72,499.89 " fill="none" id="DomainModel.Management-to-DomainModel.Cup" style="stroke:#181818;stroke-width:1.0;stroke-dasharray:7.0,7.0;"/><polygon fill="#181818" points="261.29,503.82,270.2268,499.6808,264.5825,500.0571,264.2062,494.4128,261.29,503.82" style="stroke:#181818;stroke-width:1.0;"/></g><!--MD5=[4efe7a7893919e0c5aa1255af46405fd]
link DomainModel.Transaction to DomainModel.Cup--><g id="link_DomainModel.Transaction_DomainModel.Cup"><path codeLine="24" d="M218.58,414.07 C223.22,437.42 230.39,473.56 235.37,498.64 " fill="none" id="DomainModel.Transaction-to-DomainModel.Cup" style="stroke:#181818;stroke-width:1.0;stroke-dasharray:7.0,7.0;"/><polygon fill="#181818" points="236.4,503.82,238.5734,494.214,235.4277,498.9155,230.7262,495.7697,236.4,503.82" style="stroke:#181818;stroke-width:1.0;"/></g><!--MD5=[a77d283d42cd44f2e3be400b1e473ba8]
@startuml domainModel
namespace DomainModel{
class Community    
class User
class Registred
class Anonimous
class CupGallery
class Cup
note left: name\nprice\ndescription\nsalable\nowner\n...
class Comment
class Transaction
class Management
Community *- ->"1..*" User
Community *- -> CupGallery
CupGallery o- ->"0..*" Cup
Cup *- ->"0..*" Comment
Anonimous o- -> CupGallery
Registred o- -> CupGallery
User  <|- - Registred
User  <|- - Anonimous
Registred ..> Transaction
Registred ..>"0..*" Comment
Registred ..> Management
Management ..> Cup
Transaction ..>Cup 
}
@enduml

PlantUML version 1.2022.7(Mon Aug 22 19:01:30 CEST 2022)
(GPL source distribution)
Java Runtime: OpenJDK Runtime Environment
JVM: OpenJDK 64-Bit Server VM
Default Encoding: Cp1252
Language: es
Country: ES
--></g></svg>