<?xml version="1.0" encoding="UTF-8" standalone="no"?><svg xmlns="http://www.w3.org/2000/svg" xmlns:xlink="http://www.w3.org/1999/xlink" contentStyleType="text/css" height="424px" preserveAspectRatio="none" style="width:448px;height:424px;background:#FFFFFF;" version="1.1" viewBox="0 0 448 424" width="448px" zoomAndPan="magnify"><defs/><g><rect fill="none" height="27.6094" id="_title" style="stroke:none;stroke-width:1.0;" width="205" x="114.5" y="5"/><text fill="#000000" font-family="sans-serif" font-size="14" font-weight="bold" lengthAdjust="spacing" textLength="195" x="119.5" y="24.5332">UseCaseContextAnonimous</text><g id="UNREGISTRED"><rect fill="#F1F1F1" height="50" rx="12.5" ry="12.5" style="stroke:#181818;stroke-width:0.5;" width="118" x="140" y="125.6094"/><line style="stroke:#181818;stroke-width:0.5;" x1="140" x2="258" y1="153.2188" y2="153.2188"/><text fill="#000000" font-family="sans-serif" font-size="14" lengthAdjust="spacing" textLength="98" x="150" y="145.1426">UNREGISTRED</text></g><g id="REGISTRED"><rect fill="#F1F1F1" height="50" rx="12.5" ry="12.5" style="stroke:#181818;stroke-width:0.5;" width="100" x="7" y="287.6094"/><line style="stroke:#181818;stroke-width:0.5;" x1="7" x2="107" y1="315.2188" y2="315.2188"/><text fill="#000000" font-family="sans-serif" font-size="14" lengthAdjust="spacing" textLength="80" x="17" y="307.1426">REGISTRED</text></g><ellipse cx="199" cy="54.6094" fill="#222222" rx="10" ry="10" style="stroke:none;stroke-width:1.0;"/><g id="OPENED_CUP"><rect fill="#F1F1F1" height="50" rx="12.5" ry="12.5" style="stroke:#181818;stroke-width:0.5;" width="113" x="142.5" y="287.6094"/><line style="stroke:#181818;stroke-width:0.5;" x1="142.5" x2="255.5" y1="315.2188" y2="315.2188"/><text fill="#000000" font-family="sans-serif" font-size="14" lengthAdjust="spacing" textLength="93" x="152.5" y="307.1426">OPENED_CUP</text></g><g id="OPENED_CUP_LIST"><rect fill="#F1F1F1" height="50" rx="12.5" ry="12.5" style="stroke:#181818;stroke-width:0.5;" width="150" x="291" y="287.6094"/><line style="stroke:#181818;stroke-width:0.5;" x1="291" x2="441" y1="315.2188" y2="315.2188"/><text fill="#000000" font-family="sans-serif" font-size="14" lengthAdjust="spacing" textLength="130" x="301" y="307.1426">OPENED_CUP_LIST</text></g><ellipse cx="57" cy="408.6094" fill="none" rx="10" ry="10" style="stroke:#222222;stroke-width:1.0;"/><ellipse cx="57.5" cy="409.1094" fill="#222222" rx="6" ry="6" style="stroke:none;stroke-width:1.0;"/><!--MD5=[cd133d5ac0bf7568cc9b1bb0be4a08b8]
link *start to UNREGISTRED--><g id="link_*start_UNREGISTRED"><path d="M199,64.6194 C199,77.3094 199,101.0194 199,120.1794 " fill="none" id="*start-to-UNREGISTRED" style="stroke:#181818;stroke-width:1.0;"/><polygon fill="#181818" points="199,125.4494,203,116.4494,199,120.4494,195,116.4494,199,125.4494" style="stroke:#181818;stroke-width:1.0;"/></g><!--MD5=[d6232ab07d73dca814c3dcab2c51c847]
link UNREGISTRED to REGISTRED--><g id="link_UNREGISTRED_REGISTRED"><path d="M158.15,175.6794 C145.69,184.1794 132.51,194.4294 122,205.6094 C100.32,228.6594 82.16,260.0694 70.59,282.6994 " fill="none" id="UNREGISTRED-to-REGISTRED" style="stroke:#181818;stroke-width:1.0;"/><polygon fill="#181818" points="68.23,287.3894,75.8646,281.1674,70.4889,282.9287,68.7275,277.5531,68.23,287.3894" style="stroke:#181818;stroke-width:1.0;"/><path d="M127,210.6094 L127,252.6094 L186,252.6094 L186,220.6094 L176,210.6094 L127,210.6094 " fill="#FEFFDD" style="stroke:#181818;stroke-width:0.5;"/><path d="M176,210.6094 L176,220.6094 L186,220.6094 L176,210.6094 " fill="#FEFFDD" style="stroke:#181818;stroke-width:0.5;"/><text fill="#000000" font-family="sans-serif" font-size="13" lengthAdjust="spacing" textLength="38" x="133" y="229.1045">signup</text><text fill="#000000" font-family="sans-serif" font-size="13" lengthAdjust="spacing" textLength="27" x="133" y="245.4561">login</text></g><!--MD5=[ef8092b78a1a4ce1495d3106e874efb9]
link UNREGISTRED to OPENED_CUP--><g id="link_UNREGISTRED_OPENED_CUP"><path d="M199,175.9094 C199,204.4994 199,251.9394 199,282.4794 " fill="none" id="UNREGISTRED-to-OPENED_CUP" style="stroke:#181818;stroke-width:1.0;"/><polygon fill="#181818" points="199,287.6094,203.0257,278.6208,199.0143,282.6094,195.0257,278.598,199,287.6094" style="stroke:#181818;stroke-width:1.0;"/><path d="M204,218.6094 L204,244.6094 L266,244.6094 L266,228.6094 L256,218.6094 L204,218.6094 " fill="#FEFFDD" style="stroke:#181818;stroke-width:0.5;"/><path d="M256,218.6094 L256,228.6094 L266,228.6094 L256,218.6094 " fill="#FEFFDD" style="stroke:#181818;stroke-width:0.5;"/><text fill="#000000" font-family="sans-serif" font-size="13" lengthAdjust="spacing" textLength="41" x="210" y="237.1045">getCup</text></g><!--MD5=[ee96acccd601e42daa0f48d58c9aa56d]
link UNREGISTRED to OPENED_CUP_LIST--><g id="link_UNREGISTRED_OPENED_CUP_LIST"><path d="M239.75,175.8294 C252.88,184.4794 267.11,194.7794 279,205.6094 C305.02,229.2994 329.99,260.9694 346.46,283.5094 " fill="none" id="UNREGISTRED-to-OPENED_CUP_LIST" style="stroke:#181818;stroke-width:1.0;"/><polygon fill="#181818" points="349.43,287.5994,347.3674,277.9689,346.4874,283.5569,340.8994,282.677,349.43,287.5994" style="stroke:#181818;stroke-width:1.0;"/><path d="M330,218.6094 L330,244.6094 L413,244.6094 L413,228.6094 L403,218.6094 L330,218.6094 " fill="#FEFFDD" style="stroke:#181818;stroke-width:0.5;"/><path d="M403,218.6094 L403,228.6094 L413,228.6094 L403,218.6094 " fill="#FEFFDD" style="stroke:#181818;stroke-width:0.5;"/><text fill="#000000" font-family="sans-serif" font-size="13" lengthAdjust="spacing" textLength="62" x="336" y="237.1045">getCupList</text></g><!--MD5=[bdf157e251f4690fe5a8650dab2e6e5d]
link REGISTRED to *end--><g id="link_REGISTRED_*end"><path d="M57,337.8194 C57,355.4494 57,378.7394 57,393.4494 " fill="none" id="REGISTRED-to-*end" style="stroke:#181818;stroke-width:1.0;"/><polygon fill="#181818" points="57,398.4494,61,389.4494,57,393.4494,53,389.4494,57,398.4494" style="stroke:#181818;stroke-width:1.0;"/></g><!--MD5=[b0008dd3af78e8396a3fa65f6a9c3bd1]
@startuml UseCaseContextAnonimous
title UseCaseContextAnonimous

state UNREGISTRED
state REGISTRED


[*] - -> UNREGISTRED

UNREGISTRED - -> REGISTRED
note on link
    signup
    login
end note

UNREGISTRED - -> OPENED_CUP
    note on link
        getCup
    end note

UNREGISTRED - -> OPENED_CUP_LIST
    note on link
        getCupList
    end note    

REGISTRED - -> [*]

@enduml

PlantUML version 1.2022.7(Mon Aug 22 19:01:30 CEST 2022)
(GPL source distribution)
Java Runtime: OpenJDK Runtime Environment
JVM: OpenJDK 64-Bit Server VM
Default Encoding: Cp1252
Language: es
Country: ES
--></g></svg>