<?xml version="1.0" encoding="UTF-8" standalone="no"?><svg xmlns="http://www.w3.org/2000/svg" xmlns:xlink="http://www.w3.org/1999/xlink" contentStyleType="text/css" height="532px" preserveAspectRatio="none" style="width:567px;height:532px;background:#FFFFFF;" version="1.1" viewBox="0 0 567 532" width="567px" zoomAndPan="magnify"><defs/><g><!--MD5=[6e499e743a56cbca32a83e0253ac5c24]
cluster useCases--><g id="cluster_useCases"><path d="M8.5,6 L78.5,6 A3.75,3.75 0 0 1 81,8.5 L88,29.6094 L557.5,29.6094 A2.5,2.5 0 0 1 560,32.1094 L560,522.5 A2.5,2.5 0 0 1 557.5,525 L8.5,525 A2.5,2.5 0 0 1 6,522.5 L6,8.5 A2.5,2.5 0 0 1 8.5,6 " fill="none" style="stroke:#000000;stroke-width:1.5;"/><line style="stroke:#000000;stroke-width:1.5;" x1="6" x2="88" y1="29.6094" y2="29.6094"/><text fill="#000000" font-family="sans-serif" font-size="14" font-weight="bold" lengthAdjust="spacing" textLength="69" x="10" y="22.5332">useCases</text></g><!--MD5=[3595ff3ee417d2dc09f6f0180f6b3a10]
entity useCases.AnonimousUser--><g id="elem_useCases.AnonimousUser"><ellipse cx="71.5" cy="104.5" fill="#F1F1F1" rx="8" ry="8" style="stroke:#181818;stroke-width:0.5;"/><path d="M71.5,112.5 L71.5,139.5 M58.5,120.5 L84.5,120.5 M71.5,139.5 L58.5,154.5 M71.5,139.5 L84.5,154.5 " fill="none" style="stroke:#181818;stroke-width:0.5;"/><text fill="#000000" font-family="sans-serif" font-size="14" lengthAdjust="spacing" textLength="99" x="22" y="170.5332">AnonimousUser</text></g><!--MD5=[ea2353e1cde60f48ed35632b27b641d8]
entity useCases.RegistredUser--><g id="elem_useCases.RegistredUser"><ellipse cx="71.5" cy="330.5" fill="#F1F1F1" rx="8" ry="8" style="stroke:#181818;stroke-width:0.5;"/><path d="M71.5,338.5 L71.5,365.5 M58.5,346.5 L84.5,346.5 M71.5,365.5 L58.5,380.5 M71.5,365.5 L84.5,380.5 " fill="none" style="stroke:#181818;stroke-width:0.5;"/><text fill="#000000" font-family="sans-serif" font-size="14" lengthAdjust="spacing" textLength="90" x="26.5" y="396.5332">RegistredUser</text></g><g id="elem_useCases.CreateCup"><ellipse cx="249.9074" cy="361.0891" fill="#F1F1F1" rx="60.9074" ry="15.5891" style="stroke:#181818;stroke-width:0.5;"/><text fill="#000000" font-family="sans-serif" font-size="14" lengthAdjust="spacing" textLength="69" x="212.4074" y="365.6057">CreateCup</text></g><g id="elem_useCases.ReadCup"><ellipse cx="489.258" cy="326.0364" fill="#F1F1F1" rx="54.258" ry="15.5364" style="stroke:#181818;stroke-width:0.5;"/><text fill="#000000" font-family="sans-serif" font-size="14" lengthAdjust="spacing" textLength="60" x="456.258" y="330.553">ReadCup</text></g><g id="elem_useCases.ReadCupList"><ellipse cx="250.0887" cy="228.0177" fill="#F1F1F1" rx="68.0887" ry="16.0177" style="stroke:#181818;stroke-width:0.5;"/><text fill="#000000" font-family="sans-serif" font-size="14" lengthAdjust="spacing" textLength="82" x="206.0887" y="232.5343">ReadCupList</text></g><g id="elem_useCases.UpdateCup"><ellipse cx="249.8852" cy="295.0992" fill="#F1F1F1" rx="62.3852" ry="15.5992" style="stroke:#181818;stroke-width:0.5;"/><text fill="#000000" font-family="sans-serif" font-size="14" lengthAdjust="spacing" textLength="71" x="211.3852" y="299.6158">UpdateCup</text></g><g id="elem_useCases.DeleteCup"><ellipse cx="249.9297" cy="493.0784" fill="#F1F1F1" rx="59.4297" ry="15.5784" style="stroke:#181818;stroke-width:0.5;"/><text fill="#000000" font-family="sans-serif" font-size="14" lengthAdjust="spacing" textLength="67" x="213.4297" y="497.595">DeleteCup</text></g><g id="elem_useCases.Transaction"><ellipse cx="249.841" cy="427.1182" fill="#F1F1F1" rx="65.341" ry="15.6182" style="stroke:#181818;stroke-width:0.5;"/><text fill="#000000" font-family="sans-serif" font-size="14" lengthAdjust="spacing" textLength="75" x="209.341" y="431.6348">Transaction</text></g><g id="elem_useCases.Login"><ellipse cx="250.234" cy="160.9517" fill="#F1F1F1" rx="36.234" ry="15.4517" style="stroke:#181818;stroke-width:0.5;"/><text fill="#000000" font-family="sans-serif" font-size="14" lengthAdjust="spacing" textLength="35" x="232.734" y="164.6802">Login</text></g><g id="elem_useCases.Signup"><ellipse cx="250.0997" cy="94.9523" fill="#F1F1F1" rx="42.5997" ry="15.4523" style="stroke:#181818;stroke-width:0.5;"/><text fill="#000000" font-family="sans-serif" font-size="14" lengthAdjust="spacing" textLength="44" x="227.8355" y="98.7639">Signup</text></g><!--MD5=[5a6446177b3e5b415f3d4c4541a78031]
link useCases.AnonimousUser to useCases.Login--><g id="link_useCases.AnonimousUser_useCases.Login"><path codeLine="17" d="M121.2,142.17 C149.42,146.33 184.44,151.49 210.68,155.36 " fill="none" id="useCases.AnonimousUser-to-useCases.Login" style="stroke:#181818;stroke-width:1.0;"/><polygon fill="#181818" points="215.81,156.11,207.4895,150.8403,210.8634,155.3809,206.3229,158.7548,215.81,156.11" style="stroke:#181818;stroke-width:1.0;"/></g><!--MD5=[66991c58b189da1ba1d4c22b3beefb15]
link useCases.AnonimousUser to useCases.Signup--><g id="link_useCases.AnonimousUser_useCases.Signup"><path codeLine="18" d="M121.2,123.96 C148.65,117.74 182.54,110.06 208.53,104.17 " fill="none" id="useCases.AnonimousUser-to-useCases.Signup" style="stroke:#181818;stroke-width:1.0;"/><polygon fill="#181818" points="213.61,103.02,203.9447,101.1275,208.7359,104.1349,205.7285,108.9261,213.61,103.02" style="stroke:#181818;stroke-width:1.0;"/></g><!--MD5=[eb9266376c672d0e3168e3d5b9b40ab5]
link useCases.AnonimousUser to useCases.ReadCup--><g id="link_useCases.AnonimousUser_useCases.ReadCup"><path codeLine="19" d="M118.15,95.83 C136.71,82.35 159.15,68.92 182,62 C239.85,44.48 264.92,33.09 318,62 C416.44,115.61 466.69,253.2 482.7,305.45 " fill="none" id="useCases.AnonimousUser-to-useCases.ReadCup" style="stroke:#181818;stroke-width:1.0;"/><polygon fill="#181818" points="484.22,310.53,485.4518,300.7585,482.7767,305.7428,477.7923,303.0677,484.22,310.53" style="stroke:#181818;stroke-width:1.0;"/></g><!--MD5=[4e689e7c302179d8ef910320f72809a3]
link useCases.AnonimousUser to useCases.ReadCupList--><g id="link_useCases.AnonimousUser_useCases.ReadCupList"><path codeLine="20" d="M121.15,161.54 C140.09,171.79 162,183.54 182,194 C192.92,199.71 204.91,205.84 215.69,211.3 " fill="none" id="useCases.AnonimousUser-to-useCases.ReadCupList" style="stroke:#181818;stroke-width:1.0;"/><polygon fill="#181818" points="220.23,213.59,214.008,205.9554,215.7694,211.3311,210.3937,213.0925,220.23,213.59" style="stroke:#181818;stroke-width:1.0;"/></g><!--MD5=[502ccb1edc1c972c762d8daa4f9aeba4]
link useCases.RegistredUser to useCases.CreateCup--><g id="link_useCases.RegistredUser_useCases.CreateCup"><path codeLine="23" d="M116.58,361 C136.9,361 161.42,361 183.81,361 " fill="none" id="useCases.RegistredUser-to-useCases.CreateCup" style="stroke:#181818;stroke-width:1.0;"/><polygon fill="#181818" points="188.85,361,179.85,357,183.85,361,179.85,365,188.85,361" style="stroke:#181818;stroke-width:1.0;"/></g><!--MD5=[ab74c00343610245fbb3264561dce31b]
link useCases.CreateCup to useCases.ReadCup--><g id="link_useCases.CreateCup_useCases.ReadCup"><path codeLine="24" d="M306.36,355.07 C335.74,351.7 372.4,347.13 405,342 C416.25,340.23 428.31,338.07 439.66,335.92 " fill="none" id="useCases.CreateCup-to-useCases.ReadCup" style="stroke:#181818;stroke-width:1.0;stroke-dasharray:7.0,7.0;"/><polygon fill="#181818" points="444.83,334.94,435.2426,332.6857,439.9174,335.871,436.7321,340.5458,444.83,334.94" style="stroke:#181818;stroke-width:1.0;"/><text fill="#000000" font-family="sans-serif" font-size="13" lengthAdjust="spacing" textLength="55" x="349" y="338.4951">«include»</text></g><!--MD5=[f2e64435ab6936eba3e14e7cc1b00279]
link useCases.RegistredUser to useCases.UpdateCup--><g id="link_useCases.RegistredUser_useCases.UpdateCup"><path codeLine="25" d="M116.58,344.52 C145.25,333.8 182.29,319.94 209.91,309.62 " fill="none" id="useCases.RegistredUser-to-useCases.UpdateCup" style="stroke:#181818;stroke-width:1.0;"/><polygon fill="#181818" points="214.6,307.86,204.7701,307.2485,209.9137,309.6031,207.5591,314.7466,214.6,307.86" style="stroke:#181818;stroke-width:1.0;"/></g><!--MD5=[793a506a5017d0292fa2186935e00570]
link useCases.UpdateCup to useCases.ReadCup--><g id="link_useCases.UpdateCup_useCases.ReadCup"><path codeLine="26" d="M305.79,302.15 C344.46,307.2 396.04,313.93 434.53,318.96 " fill="none" id="useCases.UpdateCup-to-useCases.ReadCup" style="stroke:#181818;stroke-width:1.0;stroke-dasharray:7.0,7.0;"/><polygon fill="#181818" points="439.64,319.62,431.2292,314.4958,434.6815,318.977,430.2003,322.4293,439.64,319.62" style="stroke:#181818;stroke-width:1.0;"/><text fill="#000000" font-family="sans-serif" font-size="13" lengthAdjust="spacing" textLength="55" x="349" y="304.4951">«include»</text></g><!--MD5=[7f9f4e06a40d6dbeb00a42947f04255a]
link useCases.RegistredUser to useCases.DeleteCup--><g id="link_useCases.RegistredUser_useCases.DeleteCup"><path codeLine="27" d="M110.33,400.03 C130.48,419.51 156.34,442.58 182,460 C191.68,466.57 202.85,472.6 213.26,477.67 " fill="none" id="useCases.RegistredUser-to-useCases.DeleteCup" style="stroke:#181818;stroke-width:1.0;"/><polygon fill="#181818" points="217.99,479.92,211.5941,472.4305,213.4786,477.7642,208.1449,479.6487,217.99,479.92" style="stroke:#181818;stroke-width:1.0;"/></g><!--MD5=[486951481c9aabeb196ec2986932ae08]
link useCases.DeleteCup to useCases.ReadCup--><g id="link_useCases.DeleteCup_useCases.ReadCup"><path codeLine="28" d="M289.28,481.2 C322.07,469.9 369.48,450.62 405,424 C434.56,401.85 460.75,367.46 475.6,345.86 " fill="none" id="useCases.DeleteCup-to-useCases.ReadCup" style="stroke:#181818;stroke-width:1.0;stroke-dasharray:7.0,7.0;"/><polygon fill="#181818" points="478.6,341.46,470.2256,346.6436,475.7838,345.5914,476.8359,351.1496,478.6,341.46" style="stroke:#181818;stroke-width:1.0;"/><text fill="#000000" font-family="sans-serif" font-size="13" lengthAdjust="spacing" textLength="55" x="349" y="420.4951">«include»</text></g><!--MD5=[adce95a288b231ca28a18be6e2800f11]
link useCases.RegistredUser to useCases.ReadCupList--><g id="link_useCases.RegistredUser_useCases.ReadCupList"><path codeLine="29" d="M110.92,321.62 C131.01,302.27 156.66,279.42 182,262 C191.41,255.53 202.23,249.5 212.38,244.38 " fill="none" id="useCases.RegistredUser-to-useCases.ReadCupList" style="stroke:#181818;stroke-width:1.0;"/><polygon fill="#181818" points="217,242.09,207.1607,242.5246,212.525,244.3203,210.7293,249.6846,217,242.09" style="stroke:#181818;stroke-width:1.0;"/></g><!--MD5=[84663254271fbc3e0b20797bbbc07035]
link useCases.ReadCupList to useCases.ReadCup--><g id="link_useCases.ReadCupList_useCases.ReadCup"><path codeLine="30" d="M292.16,240.6 C323.55,250.65 367.6,265.7 405,282 C423.65,290.13 443.85,300.72 459.71,309.48 " fill="none" id="useCases.ReadCupList-to-useCases.ReadCup" style="stroke:#181818;stroke-width:1.0;stroke-dasharray:7.0,7.0;"/><polygon fill="#181818" points="464.49,312.13,458.5455,304.2774,460.1132,309.7127,454.6779,311.2804,464.49,312.13" style="stroke:#181818;stroke-width:1.0;"/><text fill="#000000" font-family="sans-serif" font-size="13" lengthAdjust="spacing" textLength="55" x="349" y="257.4951">«include»</text></g><!--MD5=[6eb53401f4065a60041e1f4797a7584c]
link useCases.RegistredUser to useCases.Transaction--><g id="link_useCases.RegistredUser_useCases.Transaction"><path codeLine="31" d="M116.58,377.48 C145.06,388.13 181.8,401.87 209.35,412.17 " fill="none" id="useCases.RegistredUser-to-useCases.Transaction" style="stroke:#181818;stroke-width:1.0;"/><polygon fill="#181818" points="214.04,413.93,207.0245,407.0175,209.3601,412.1697,204.208,414.5053,214.04,413.93" style="stroke:#181818;stroke-width:1.0;"/></g><!--MD5=[7877da3c22b8cd0dcf92f7f85dc3f5c5]
link useCases.Transaction to useCases.ReadCup--><g id="link_useCases.Transaction_useCases.ReadCup"><path codeLine="32" d="M294.12,415.48 C325.54,406.43 368.77,392.6 405,376 C425.36,366.67 447.02,353.6 463.18,343.16 " fill="none" id="useCases.Transaction-to-useCases.ReadCup" style="stroke:#181818;stroke-width:1.0;stroke-dasharray:7.0,7.0;"/><polygon fill="#181818" points="467.58,340.29,457.8537,341.8388,463.3871,343.0139,462.212,348.5474,467.58,340.29" style="stroke:#181818;stroke-width:1.0;"/><text fill="#000000" font-family="sans-serif" font-size="13" lengthAdjust="spacing" textLength="55" x="349" y="372.4951">«include»</text></g><!--MD5=[89230cd6f20b19903970d127b8ec3bbb]
@startuml useCases
allowmixing
namespace useCases{
left to right direction
actor AnonimousUser
actor RegistredUser

usecase CreateCup
usecase ReadCup
usecase ReadCupList
usecase UpdateCup
usecase DeleteCup
usecase Transaction
usecase Login
usecase Signup


AnonimousUser - -> Login
AnonimousUser - -> Signup
AnonimousUser - -> ReadCup
AnonimousUser - -> ReadCupList


RegistredUser - -> CreateCup
CreateCup ..> ReadCup  : "<<include>>"
RegistredUser - -> UpdateCup
UpdateCup ..> ReadCup  : "<<include>>"
RegistredUser - -> DeleteCup
DeleteCup ..> ReadCup  : "<<include>>"
RegistredUser - -> ReadCupList
ReadCupList ..> ReadCup  : "<<include>>"
RegistredUser - -> Transaction
Transaction ..> ReadCup  : "<<include>>"
}
@enduml

PlantUML version 1.2022.7(Mon Aug 22 19:01:30 CEST 2022)
(GPL source distribution)
Java Runtime: OpenJDK Runtime Environment
JVM: OpenJDK 64-Bit Server VM
Default Encoding: Cp1252
Language: es
Country: ES
--></g></svg>