<?xml version="1.0" encoding="UTF-8" standalone="no"?><svg xmlns="http://www.w3.org/2000/svg" xmlns:xlink="http://www.w3.org/1999/xlink" contentStyleType="text/css" height="803px" preserveAspectRatio="none" style="width:609px;height:803px;background:#FFFFFF;" version="1.1" viewBox="0 0 609 803" width="609px" zoomAndPan="magnify"><defs/><g><!--MD5=[6e499e743a56cbca32a83e0253ac5c24]
cluster useCases--><g id="cluster_useCases"><path d="M8.5,6 L78.5,6 A3.75,3.75 0 0 1 81,8.5 L88,29.6094 L599.5,29.6094 A2.5,2.5 0 0 1 602,32.1094 L602,793.5 A2.5,2.5 0 0 1 599.5,796 L8.5,796 A2.5,2.5 0 0 1 6,793.5 L6,8.5 A2.5,2.5 0 0 1 8.5,6 " fill="none" style="stroke:#000000;stroke-width:1.5;"/><line style="stroke:#000000;stroke-width:1.5;" x1="6" x2="88" y1="29.6094" y2="29.6094"/><text fill="#000000" font-family="sans-serif" font-size="14" font-weight="bold" lengthAdjust="spacing" textLength="69" x="10" y="22.5332">useCases</text></g><!--MD5=[3595ff3ee417d2dc09f6f0180f6b3a10]
entity useCases.AnonimousUser--><g id="elem_useCases.AnonimousUser"><ellipse cx="71.5" cy="104.5" fill="#F1F1F1" rx="8" ry="8" style="stroke:#181818;stroke-width:0.5;"/><path d="M71.5,112.5 L71.5,139.5 M58.5,120.5 L84.5,120.5 M71.5,139.5 L58.5,154.5 M71.5,139.5 L84.5,154.5 " fill="none" style="stroke:#181818;stroke-width:0.5;"/><text fill="#000000" font-family="sans-serif" font-size="14" lengthAdjust="spacing" textLength="99" x="22" y="170.5332">AnonimousUser</text></g><!--MD5=[ea2353e1cde60f48ed35632b27b641d8]
entity useCases.RegistredUser--><g id="elem_useCases.RegistredUser"><ellipse cx="71.5" cy="434.5" fill="#F1F1F1" rx="8" ry="8" style="stroke:#181818;stroke-width:0.5;"/><path d="M71.5,442.5 L71.5,469.5 M58.5,450.5 L84.5,450.5 M71.5,469.5 L58.5,484.5 M71.5,469.5 L84.5,484.5 " fill="none" style="stroke:#181818;stroke-width:0.5;"/><text fill="#000000" font-family="sans-serif" font-size="14" lengthAdjust="spacing" textLength="90" x="26.5" y="500.5332">RegistredUser</text></g><g id="elem_useCases.addCup"><ellipse cx="257.9051" cy="292.97" fill="#F1F1F1" rx="46.9051" ry="15.47" style="stroke:#181818;stroke-width:0.5;"/><text fill="#000000" font-family="sans-serif" font-size="14" lengthAdjust="spacing" textLength="50" x="231.2227" y="297.1764">addCup</text></g><g id="elem_useCases.getCup"><ellipse cx="518.5247" cy="325.9555" fill="#F1F1F1" rx="44.0247" ry="15.4555" style="stroke:#181818;stroke-width:0.5;"/><text fill="#000000" font-family="sans-serif" font-size="14" lengthAdjust="spacing" textLength="46" x="494.8075" y="329.9018">getCup</text></g><g id="elem_useCases.getCupList"><ellipse cx="258.1685" cy="227.0838" fill="#F1F1F1" rx="60.1685" ry="15.5838" style="stroke:#181818;stroke-width:0.5;"/><text fill="#000000" font-family="sans-serif" font-size="14" lengthAdjust="spacing" textLength="68" x="221.1685" y="231.6004">getCupList</text></g><g id="elem_useCases.updateCup"><ellipse cx="258.1463" cy="425.0942" fill="#F1F1F1" rx="61.6463" ry="15.5942" style="stroke:#181818;stroke-width:0.5;"/><text fill="#000000" font-family="sans-serif" font-size="14" lengthAdjust="spacing" textLength="70" x="220.1463" y="429.6108">updateCup</text></g><g id="elem_useCases.deleteCup"><ellipse cx="257.952" cy="491.0671" fill="#F1F1F1" rx="57.952" ry="15.5671" style="stroke:#181818;stroke-width:0.5;"/><text fill="#000000" font-family="sans-serif" font-size="14" lengthAdjust="spacing" textLength="65" x="222.452" y="495.5837">deleteCup</text></g><g id="elem_useCases.transaction"><ellipse cx="258.1463" cy="359.0942" fill="#F1F1F1" rx="61.6463" ry="15.5942" style="stroke:#181818;stroke-width:0.5;"/><text fill="#000000" font-family="sans-serif" font-size="14" lengthAdjust="spacing" textLength="70" x="220.1463" y="363.6108">transaction</text></g><g id="elem_useCases.login"><ellipse cx="258.1985" cy="160.9517" fill="#F1F1F1" rx="32.6985" ry="15.4517" style="stroke:#181818;stroke-width:0.5;"/><text fill="#000000" font-family="sans-serif" font-size="14" lengthAdjust="spacing" textLength="30" x="243.1985" y="164.6802">login</text></g><g id="elem_useCases.signup"><ellipse cx="258.1838" cy="94.9517" fill="#F1F1F1" rx="41.1838" ry="15.4517" style="stroke:#181818;stroke-width:0.5;"/><text fill="#000000" font-family="sans-serif" font-size="14" lengthAdjust="spacing" textLength="42" x="237.1838" y="98.6802">signup</text></g><g id="elem_useCases.logout"><ellipse cx="258.0624" cy="763.9517" fill="#F1F1F1" rx="39.0624" ry="15.4517" style="stroke:#181818;stroke-width:0.5;"/><text fill="#000000" font-family="sans-serif" font-size="14" lengthAdjust="spacing" textLength="39" x="238.5624" y="767.6802">logout</text></g><g id="elem_useCases.getComment"><ellipse cx="518.4169" cy="626.8834" fill="#F1F1F1" rx="67.4169" ry="15.8834" style="stroke:#181818;stroke-width:0.5;"/><text fill="#000000" font-family="sans-serif" font-size="14" lengthAdjust="spacing" textLength="80" x="475.4169" y="631.4">getComment</text></g><g id="elem_useCases.addComment"><ellipse cx="257.7688" cy="627.1538" fill="#F1F1F1" rx="68.7688" ry="16.1538" style="stroke:#181818;stroke-width:0.5;"/><text fill="#000000" font-family="sans-serif" font-size="14" lengthAdjust="spacing" textLength="84" x="212.7688" y="631.6704">addComment</text></g><g id="elem_useCases.deleteComment"><ellipse cx="258.1111" cy="559.2222" fill="#F1F1F1" rx="74.1111" ry="17.2222" style="stroke:#181818;stroke-width:0.5;"/><text fill="#000000" font-family="sans-serif" font-size="14" lengthAdjust="spacing" textLength="99" x="205.6111" y="563.7388">deleteComment</text></g><g id="elem_useCases.updateComment"><ellipse cx="257.9763" cy="696.0953" fill="#F1F1F1" rx="75.9763" ry="17.5953" style="stroke:#181818;stroke-width:0.5;"/><text fill="#000000" font-family="sans-serif" font-size="14" lengthAdjust="spacing" textLength="104" x="203.0467" y="700.5957">updateComment</text></g><!--MD5=[d83d440bab3175c74a5a6427506888a9]
link useCases.AnonimousUser to useCases.signup--><g id="link_useCases.AnonimousUser_useCases.signup"><path codeLine="21" d="M121.46,124.39 C151.31,117.91 188.98,109.75 217.02,103.67 " fill="none" id="useCases.AnonimousUser-to-useCases.signup" style="stroke:#181818;stroke-width:1.0;"/><polygon fill="#181818" points="222.14,102.56,212.4976,100.5538,217.2531,103.6174,214.1895,108.3729,222.14,102.56" style="stroke:#181818;stroke-width:1.0;"/></g><!--MD5=[2e4231c5fd20181d8268193e66805c3b]
link useCases.AnonimousUser to useCases.getCup--><g id="link_useCases.AnonimousUser_useCases.getCup"><path codeLine="22" d="M118.15,95.83 C136.71,82.35 159.15,68.92 182,62 C246.66,42.42 274.13,30.7 334,62 C435.83,115.23 492.55,253.57 510.86,305.71 " fill="none" id="useCases.AnonimousUser-to-useCases.getCup" style="stroke:#181818;stroke-width:1.0;"/><polygon fill="#181818" points="512.51,310.48,513.3612,300.668,510.8818,305.7525,505.7973,303.2731,512.51,310.48" style="stroke:#181818;stroke-width:1.0;"/></g><!--MD5=[72de91feb51cfba7a868aa25af1b2856]
link useCases.AnonimousUser to useCases.getCupList--><g id="link_useCases.AnonimousUser_useCases.getCupList"><path codeLine="23" d="M121.13,162.28 C139.96,172.56 161.82,184.14 182,194 C194.53,200.12 208.45,206.39 220.87,211.8 " fill="none" id="useCases.AnonimousUser-to-useCases.getCupList" style="stroke:#181818;stroke-width:1.0;"/><polygon fill="#181818" points="225.73,213.9,219.0605,206.6531,221.1417,211.9132,215.8816,213.9943,225.73,213.9" style="stroke:#181818;stroke-width:1.0;"/></g><!--MD5=[94a6d4e4086a19a966b9a7f273de7a2c]
link useCases.AnonimousUser to useCases.login--><g id="link_useCases.AnonimousUser_useCases.login"><path codeLine="24" d="M121.46,141.9 C152.91,146.33 193.06,151.99 221.47,155.99 " fill="none" id="useCases.AnonimousUser-to-useCases.login" style="stroke:#181818;stroke-width:1.0;"/><polygon fill="#181818" points="226.63,156.72,218.2777,151.5009,221.6791,156.0209,217.1591,159.4223,226.63,156.72" style="stroke:#181818;stroke-width:1.0;"/></g><!--MD5=[e4277a9e6191355cc40a7068e76b0e56]
link useCases.transaction to useCases.getCup--><g id="link_useCases.transaction_useCases.getCup"><path codeLine="26" d="M317.48,363.03 C348.45,364.07 387,363.6 421,358 C442.81,354.41 466.37,346.67 484.76,339.71 " fill="none" id="useCases.transaction-to-useCases.getCup" style="stroke:#181818;stroke-width:1.0;stroke-dasharray:7.0,7.0;"/><polygon fill="#181818" points="489.8,337.77,479.9637,337.2735,485.1344,339.5678,482.8401,344.7385,489.8,337.77" style="stroke:#181818;stroke-width:1.0;"/><text fill="#000000" font-family="sans-serif" font-size="13" lengthAdjust="spacing" textLength="55" x="365" y="354.4951">«include»</text></g><!--MD5=[09bb0123fc70ddfffb5fb2d156def934]
link useCases.RegistredUser to useCases.login--><g id="link_useCases.RegistredUser_useCases.login"><path codeLine="28" d="M78.72,425.82 C89.79,368.1 118.05,259.93 182,194 C193.3,182.35 209.43,174.53 223.83,169.44 " fill="none" id="useCases.RegistredUser-to-useCases.login" style="stroke:#181818;stroke-width:1.0;"/><polygon fill="#181818" points="228.64,167.81,218.8352,166.8791,223.8995,169.3997,221.3788,174.4639,228.64,167.81" style="stroke:#181818;stroke-width:1.0;"/></g><!--MD5=[55175e243b33853cc0afe4d9dbfd7e44]
link useCases.RegistredUser to useCases.logout--><g id="link_useCases.RegistredUser_useCases.logout"><path codeLine="29" d="M79.12,504.4 C90.58,561.3 119.2,666.68 182,731 C192.27,741.52 206.46,748.92 219.74,754.01 " fill="none" id="useCases.RegistredUser-to-useCases.logout" style="stroke:#181818;stroke-width:1.0;"/><polygon fill="#181818" points="224.58,755.78,217.4955,748.9382,219.8827,754.0667,214.7542,756.4539,224.58,755.78" style="stroke:#181818;stroke-width:1.0;"/></g><!--MD5=[e3c9272f72a51f61bd885d16fa56c0ad]
link useCases.RegistredUser to useCases.addCup--><g id="link_useCases.RegistredUser_useCases.addCup"><path codeLine="31" d="M95.73,425.9 C115.49,395.38 146.3,353.65 182,326 C192.92,317.54 206.35,310.75 218.81,305.58 " fill="none" id="useCases.RegistredUser-to-useCases.addCup" style="stroke:#181818;stroke-width:1.0;"/><polygon fill="#181818" points="223.71,303.61,213.8672,303.2647,219.0726,305.4792,216.858,310.6846,223.71,303.61" style="stroke:#181818;stroke-width:1.0;"/></g><!--MD5=[7686e095d88c1c7b87889248aa7e4c05]
link useCases.addCup to useCases.getCup--><g id="link_useCases.addCup_useCases.getCup"><path codeLine="32" d="M301.98,298.49 C348.93,304.48 423.85,314.04 471.84,320.17 " fill="none" id="useCases.addCup-to-useCases.getCup" style="stroke:#181818;stroke-width:1.0;stroke-dasharray:7.0,7.0;"/><polygon fill="#181818" points="476.98,320.83,468.5547,315.7296,472.0197,320.201,467.5483,323.6661,476.98,320.83" style="stroke:#181818;stroke-width:1.0;"/><text fill="#000000" font-family="sans-serif" font-size="13" lengthAdjust="spacing" textLength="55" x="365" y="303.4951">«include»</text></g><!--MD5=[931ca98f510c136b0a1a7e9b1baca6f2]
link useCases.RegistredUser to useCases.updateCup--><g id="link_useCases.RegistredUser_useCases.updateCup"><path codeLine="33" d="M116.69,455.42 C143.49,449.61 177.79,442.17 205.77,436.11 " fill="none" id="useCases.RegistredUser-to-useCases.updateCup" style="stroke:#181818;stroke-width:1.0;"/><polygon fill="#181818" points="210.92,434.99,201.2776,432.9838,206.0331,436.0474,202.9695,440.8029,210.92,434.99" style="stroke:#181818;stroke-width:1.0;"/></g><!--MD5=[ac0fb3369315dfaf3d71949f6a94b8fd]
link useCases.updateCup to useCases.getCup--><g id="link_useCases.updateCup_useCases.getCup"><path codeLine="34" d="M313.8,418.36 C345.93,413.2 386.8,404.43 421,390 C449.07,378.16 477.72,357.91 496.43,343.36 " fill="none" id="useCases.updateCup-to-useCases.getCup" style="stroke:#181818;stroke-width:1.0;stroke-dasharray:7.0,7.0;"/><polygon fill="#181818" points="500.5,340.16,490.9472,342.5568,496.5625,343.2415,495.8777,348.8568,500.5,340.16" style="stroke:#181818;stroke-width:1.0;"/><text fill="#000000" font-family="sans-serif" font-size="13" lengthAdjust="spacing" textLength="55" x="365" y="386.4951">«include»</text></g><!--MD5=[cbc654a85ee735de1d8265bd4b881419]
link useCases.RegistredUser to useCases.deleteCup--><g id="link_useCases.RegistredUser_useCases.deleteCup"><path codeLine="35" d="M116.69,471.23 C142.08,474.81 174.21,479.33 201.32,483.15 " fill="none" id="useCases.RegistredUser-to-useCases.deleteCup" style="stroke:#181818;stroke-width:1.0;"/><polygon fill="#181818" points="206.32,483.86,197.9698,478.6375,201.3694,483.1589,196.848,486.5585,206.32,483.86" style="stroke:#181818;stroke-width:1.0;"/></g><!--MD5=[b9fc59bbeba543714c887016472c9673]
link useCases.deleteCup to useCases.getCup--><g id="link_useCases.deleteCup_useCases.getCup"><path codeLine="36" d="M304.79,481.81 C338.9,473.46 385.5,458.74 421,435 C457.19,410.79 488.38,369.8 504.9,345.58 " fill="none" id="useCases.deleteCup-to-useCases.getCup" style="stroke:#181818;stroke-width:1.0;stroke-dasharray:7.0,7.0;"/><polygon fill="#181818" points="507.81,341.26,499.4563,346.4768,505.0102,345.4026,506.0844,350.9565,507.81,341.26" style="stroke:#181818;stroke-width:1.0;"/><text fill="#000000" font-family="sans-serif" font-size="13" lengthAdjust="spacing" textLength="55" x="365" y="431.4951">«include»</text></g><!--MD5=[db223a0454a8c6654dfa4e2df4ea4cc0]
link useCases.RegistredUser to useCases.getCupList--><g id="link_useCases.RegistredUser_useCases.getCupList"><path codeLine="37" d="M84.65,425.72 C100.47,380.4 132.13,306.21 182,260 C190.86,251.79 202.08,245.4 213.14,240.52 " fill="none" id="useCases.RegistredUser-to-useCases.getCupList" style="stroke:#181818;stroke-width:1.0;"/><polygon fill="#181818" points="217.86,238.52,208.0124,238.3628,213.2591,240.4775,211.1444,245.7242,217.86,238.52" style="stroke:#181818;stroke-width:1.0;"/></g><!--MD5=[c9b89d5b37f34d62025569b2555e4a45]
link useCases.getCupList to useCases.getCup--><g id="link_useCases.getCupList_useCases.getCup"><path codeLine="38" d="M298.07,238.64 C331.17,248.83 379.69,264.54 421,281 C443.8,290.08 468.9,301.84 487.79,311.07 " fill="none" id="useCases.getCupList-to-useCases.getCup" style="stroke:#181818;stroke-width:1.0;stroke-dasharray:7.0,7.0;"/><polygon fill="#181818" points="492.45,313.35,486.1309,305.7956,487.9608,311.1483,482.6082,312.9783,492.45,313.35" style="stroke:#181818;stroke-width:1.0;"/><text fill="#000000" font-family="sans-serif" font-size="13" lengthAdjust="spacing" textLength="55" x="365" y="258.4951">«include»</text></g><!--MD5=[eafd4a3eee1536e8c570951d2827a5f8]
link useCases.RegistredUser to useCases.addComment--><g id="link_useCases.RegistredUser_useCases.addComment"><path codeLine="40" d="M98.98,504.29 C119.16,531.92 149.03,568.23 182,593 C191.7,600.29 203.21,606.48 214.27,611.5 " fill="none" id="useCases.RegistredUser-to-useCases.addComment" style="stroke:#181818;stroke-width:1.0;"/><polygon fill="#181818" points="218.97,613.59,212.366,606.2833,214.3998,611.562,209.1211,613.5957,218.97,613.59" style="stroke:#181818;stroke-width:1.0;"/></g><!--MD5=[9ae538aafd1533da1c6f349459aa00ee]
link useCases.addComment to useCases.getComment--><g id="link_useCases.addComment_useCases.getComment"><path codeLine="41" d="M327.26,627 C363.61,627 408.32,627 445.26,627 " fill="none" id="useCases.addComment-to-useCases.getComment" style="stroke:#181818;stroke-width:1.0;stroke-dasharray:7.0,7.0;"/><polygon fill="#181818" points="450.65,627,441.65,623,445.65,627,441.65,631,450.65,627" style="stroke:#181818;stroke-width:1.0;"/><text fill="#000000" font-family="sans-serif" font-size="13" lengthAdjust="spacing" textLength="55" x="365" y="623.4951">«include»</text></g><!--MD5=[55a2cabf3adb88382de42479e8d7465c]
link useCases.RegistredUser to useCases.deleteComment--><g id="link_useCases.RegistredUser_useCases.deleteComment"><path codeLine="42" d="M116.68,489.55 C136.51,500.38 160.29,513.1 182,524 C193.9,529.98 207.02,536.22 218.91,541.74 " fill="none" id="useCases.RegistredUser-to-useCases.deleteComment" style="stroke:#181818;stroke-width:1.0;"/><polygon fill="#181818" points="223.57,543.9,217.079,536.4928,219.0315,541.802,213.7222,543.7544,223.57,543.9" style="stroke:#181818;stroke-width:1.0;"/></g><!--MD5=[810190c23d1fdd8b8df829c15a9478ff]
link useCases.deleteComment to useCases.getComment--><g id="link_useCases.deleteComment_useCases.getComment"><path codeLine="43" d="M307.32,571.71 C353,583.73 421.25,601.68 467.48,613.84 " fill="none" id="useCases.deleteComment-to-useCases.getComment" style="stroke:#181818;stroke-width:1.0;stroke-dasharray:7.0,7.0;"/><polygon fill="#181818" points="472.45,615.15,464.7607,608.9957,467.6139,613.8803,462.7293,616.7335,472.45,615.15" style="stroke:#181818;stroke-width:1.0;"/><text fill="#000000" font-family="sans-serif" font-size="13" lengthAdjust="spacing" textLength="55" x="365" y="583.4951">«include»</text></g><!--MD5=[7dbf5793e7654ebec46c02891e8716e9]
link useCases.RegistredUser to useCases.updateComment--><g id="link_useCases.RegistredUser_useCases.updateComment"><path codeLine="44" d="M86.15,504.01 C102.9,547.01 134.99,615.91 182,660 C190.22,667.71 200.4,674.07 210.58,679.18 " fill="none" id="useCases.RegistredUser-to-useCases.updateComment" style="stroke:#181818;stroke-width:1.0;"/><polygon fill="#181818" points="215.25,681.44,208.8827,673.9262,210.7469,679.2671,205.406,681.1312,215.25,681.44" style="stroke:#181818;stroke-width:1.0;"/></g><!--MD5=[e9268be1005336c079805d0246b0836d]
link useCases.updateComment to useCases.getComment--><g id="link_useCases.updateComment_useCases.getComment"><path codeLine="45" d="M308.64,682.87 C340.71,674.38 383.33,663.07 421,653 C436.36,648.89 453.09,644.39 468.24,640.31 " fill="none" id="useCases.updateComment-to-useCases.getComment" style="stroke:#181818;stroke-width:1.0;stroke-dasharray:7.0,7.0;"/><polygon fill="#181818" points="473.31,638.94,463.5796,637.4173,468.4819,640.2399,465.6594,645.1422,473.31,638.94" style="stroke:#181818;stroke-width:1.0;"/><text fill="#000000" font-family="sans-serif" font-size="13" lengthAdjust="spacing" textLength="55" x="365" y="649.4951">«include»</text></g><!--MD5=[c0e3a1cbab3657b3903471659674ab81]
link useCases.RegistredUser to useCases.transaction--><g id="link_useCases.RegistredUser_useCases.transaction"><path codeLine="47" d="M116.69,433 C136.22,419.53 159.76,404.19 182,392 C193.78,385.54 207.08,379.36 219.18,374.12 " fill="none" id="useCases.RegistredUser-to-useCases.transaction" style="stroke:#181818;stroke-width:1.0;"/><polygon fill="#181818" points="223.92,372.09,214.0724,371.9328,219.3191,374.0475,217.2044,379.2942,223.92,372.09" style="stroke:#181818;stroke-width:1.0;"/></g><!--MD5=[d0498ca54da41f3514a4b02fdce3e0ae]
@startuml useCases
allowmixing
namespace useCases{
left to right direction
actor AnonimousUser
actor RegistredUser

usecase addCup
usecase getCup
usecase getCupList
usecase updateCup
usecase deleteCup
usecase transaction
usecase login
usecase signup
usecase logout
usecase getComment
usecase addComment
usecase deleteComment
usecase updateComment

AnonimousUser - -> signup
AnonimousUser - -> getCup
AnonimousUser - -> getCupList
AnonimousUser - -> login

transaction ..> getCup  : "<<include>>"

RegistredUser - -> login
RegistredUser - -> logout

RegistredUser - -> addCup
addCup ..> getCup  : "<<include>>"
RegistredUser - -> updateCup
updateCup ..> getCup  : "<<include>>"
RegistredUser - -> deleteCup
deleteCup ..> getCup  : "<<include>>"
RegistredUser - -> getCupList
getCupList ..> getCup  : "<<include>>"

RegistredUser - -> addComment
addComment ..> getComment  : "<<include>>"
RegistredUser - -> deleteComment
deleteComment ..> getComment  : "<<include>>"
RegistredUser - -> updateComment
updateComment ..> getComment  : "<<include>>"

RegistredUser - -> transaction
}
@enduml

PlantUML version 1.2022.7(Mon Aug 22 19:01:30 CEST 2022)
(GPL source distribution)
Java Runtime: OpenJDK Runtime Environment
JVM: OpenJDK 64-Bit Server VM
Default Encoding: Cp1252
Language: es
Country: ES
--></g></svg>