<?xml version="1.0" encoding="UTF-8" standalone="no"?><svg xmlns="http://www.w3.org/2000/svg" xmlns:xlink="http://www.w3.org/1999/xlink" contentStyleType="text/css" height="808px" preserveAspectRatio="none" style="width:620px;height:808px;background:#FFFFFF;" version="1.1" viewBox="0 0 620 808" width="620px" zoomAndPan="magnify"><defs/><g><!--MD5=[6e499e743a56cbca32a83e0253ac5c24]
cluster useCases--><g id="cluster_useCases"><path d="M8.5,6 L78.5,6 A3.75,3.75 0 0 1 81,8.5 L88,29.6094 L610.5,29.6094 A2.5,2.5 0 0 1 613,32.1094 L613,798.5 A2.5,2.5 0 0 1 610.5,801 L8.5,801 A2.5,2.5 0 0 1 6,798.5 L6,8.5 A2.5,2.5 0 0 1 8.5,6 " fill="none" style="stroke:#000000;stroke-width:1.5;"/><line style="stroke:#000000;stroke-width:1.5;" x1="6" x2="88" y1="29.6094" y2="29.6094"/><text fill="#000000" font-family="sans-serif" font-size="14" font-weight="bold" lengthAdjust="spacing" textLength="69" x="10" y="22.5332">useCases</text></g><!--MD5=[3595ff3ee417d2dc09f6f0180f6b3a10]
entity useCases.AnonimousUser--><g id="elem_useCases.AnonimousUser"><ellipse cx="71.5" cy="104.5" fill="#F1F1F1" rx="8" ry="8" style="stroke:#181818;stroke-width:0.5;"/><path d="M71.5,112.5 L71.5,139.5 M58.5,120.5 L84.5,120.5 M71.5,139.5 L58.5,154.5 M71.5,139.5 L84.5,154.5 " fill="none" style="stroke:#181818;stroke-width:0.5;"/><text fill="#000000" font-family="sans-serif" font-size="14" lengthAdjust="spacing" textLength="99" x="22" y="170.5332">AnonimousUser</text></g><!--MD5=[ea2353e1cde60f48ed35632b27b641d8]
entity useCases.RegistredUser--><g id="elem_useCases.RegistredUser"><ellipse cx="71.5" cy="436.5" fill="#F1F1F1" rx="8" ry="8" style="stroke:#181818;stroke-width:0.5;"/><path d="M71.5,444.5 L71.5,471.5 M58.5,452.5 L84.5,452.5 M71.5,471.5 L58.5,486.5 M71.5,471.5 L84.5,486.5 " fill="none" style="stroke:#181818;stroke-width:0.5;"/><text fill="#000000" font-family="sans-serif" font-size="14" lengthAdjust="spacing" textLength="90" x="26.5" y="502.5332">RegistredUser</text></g><g id="elem_useCases.CreateCup"><ellipse cx="258.4074" cy="295.0891" fill="#F1F1F1" rx="60.9074" ry="15.5891" style="stroke:#181818;stroke-width:0.5;"/><text fill="#000000" font-family="sans-serif" font-size="14" lengthAdjust="spacing" textLength="69" x="220.9074" y="299.6057">CreateCup</text></g><g id="elem_useCases.ReadCup"><ellipse cx="524.258" cy="328.0364" fill="#F1F1F1" rx="54.258" ry="15.5364" style="stroke:#181818;stroke-width:0.5;"/><text fill="#000000" font-family="sans-serif" font-size="14" lengthAdjust="spacing" textLength="60" x="491.258" y="332.553">ReadCup</text></g><g id="elem_useCases.ReadCupList"><ellipse cx="258.5887" cy="228.0177" fill="#F1F1F1" rx="68.0887" ry="16.0177" style="stroke:#181818;stroke-width:0.5;"/><text fill="#000000" font-family="sans-serif" font-size="14" lengthAdjust="spacing" textLength="82" x="214.5887" y="232.5343">ReadCupList</text></g><g id="elem_useCases.UpdateCup"><ellipse cx="258.3852" cy="427.0992" fill="#F1F1F1" rx="62.3852" ry="15.5992" style="stroke:#181818;stroke-width:0.5;"/><text fill="#000000" font-family="sans-serif" font-size="14" lengthAdjust="spacing" textLength="71" x="219.8852" y="431.6158">UpdateCup</text></g><g id="elem_useCases.DeleteCup"><ellipse cx="258.4297" cy="493.0784" fill="#F1F1F1" rx="59.4297" ry="15.5784" style="stroke:#181818;stroke-width:0.5;"/><text fill="#000000" font-family="sans-serif" font-size="14" lengthAdjust="spacing" textLength="67" x="221.9297" y="497.595">DeleteCup</text></g><g id="elem_useCases.Transaction"><ellipse cx="258.341" cy="361.1182" fill="#F1F1F1" rx="65.341" ry="15.6182" style="stroke:#181818;stroke-width:0.5;"/><text fill="#000000" font-family="sans-serif" font-size="14" lengthAdjust="spacing" textLength="75" x="217.841" y="365.6348">Transaction</text></g><g id="elem_useCases.Login"><ellipse cx="258.734" cy="160.9517" fill="#F1F1F1" rx="36.234" ry="15.4517" style="stroke:#181818;stroke-width:0.5;"/><text fill="#000000" font-family="sans-serif" font-size="14" lengthAdjust="spacing" textLength="35" x="241.234" y="164.6802">Login</text></g><g id="elem_useCases.Signup"><ellipse cx="258.5997" cy="94.9523" fill="#F1F1F1" rx="42.5997" ry="15.4523" style="stroke:#181818;stroke-width:0.5;"/><text fill="#000000" font-family="sans-serif" font-size="14" lengthAdjust="spacing" textLength="44" x="236.3355" y="98.7639">Signup</text></g><g id="elem_useCases.Logout"><ellipse cx="258.5997" cy="768.9523" fill="#F1F1F1" rx="42.5997" ry="15.4523" style="stroke:#181818;stroke-width:0.5;"/><text fill="#000000" font-family="sans-serif" font-size="14" lengthAdjust="spacing" textLength="44" x="236.3355" y="772.7639">Logout</text></g><g id="elem_useCases.ReadComment"><ellipse cx="524.2859" cy="630.8572" fill="#F1F1F1" rx="72.2859" ry="16.8572" style="stroke:#181818;stroke-width:0.5;"/><text fill="#000000" font-family="sans-serif" font-size="14" lengthAdjust="spacing" textLength="94" x="474.2859" y="635.3738">ReadComment</text></g><g id="elem_useCases.CreateComment"><ellipse cx="258.6002" cy="631.02" fill="#F1F1F1" rx="75.6002" ry="17.52" style="stroke:#181818;stroke-width:0.5;"/><text fill="#000000" font-family="sans-serif" font-size="14" lengthAdjust="spacing" textLength="103" x="204.1002" y="635.5366">CreateComment</text></g><g id="elem_useCases.DeleteComment"><ellipse cx="258.3525" cy="560.8705" fill="#F1F1F1" rx="74.8525" ry="17.3705" style="stroke:#181818;stroke-width:0.5;"/><text fill="#000000" font-family="sans-serif" font-size="14" lengthAdjust="spacing" textLength="101" x="204.8525" y="565.3871">DeleteComment</text></g><g id="elem_useCases.UpdateComment"><ellipse cx="258.355" cy="701.171" fill="#F1F1F1" rx="76.355" ry="17.671" style="stroke:#181818;stroke-width:0.5;"/><text fill="#000000" font-family="sans-serif" font-size="14" lengthAdjust="spacing" textLength="105" x="203.1233" y="705.6255">UpdateComment</text></g><!--MD5=[66991c58b189da1ba1d4c22b3beefb15]
link useCases.AnonimousUser to useCases.Signup--><g id="link_useCases.AnonimousUser_useCases.Signup"><path codeLine="21" d="M121.11,124.49 C150.74,118.08 188.19,109.99 216.35,103.9 " fill="none" id="useCases.AnonimousUser-to-useCases.Signup" style="stroke:#181818;stroke-width:1.0;"/><polygon fill="#181818" points="221.49,102.79,211.8476,100.7838,216.6031,103.8474,213.5395,108.6029,221.49,102.79" style="stroke:#181818;stroke-width:1.0;"/></g><!--MD5=[eb9266376c672d0e3168e3d5b9b40ab5]
link useCases.AnonimousUser to useCases.ReadCup--><g id="link_useCases.AnonimousUser_useCases.ReadCup"><path codeLine="22" d="M118.15,95.83 C136.71,82.35 159.15,68.92 182,62 C247.08,42.29 274.59,30.77 335,62 C438.5,115.51 497.44,254.97 516.55,307.54 " fill="none" id="useCases.AnonimousUser-to-useCases.ReadCup" style="stroke:#181818;stroke-width:1.0;"/><polygon fill="#181818" points="518.28,312.35,519.0162,302.5287,516.5965,307.6419,511.4833,305.2223,518.28,312.35" style="stroke:#181818;stroke-width:1.0;"/></g><!--MD5=[4e689e7c302179d8ef910320f72809a3]
link useCases.AnonimousUser to useCases.ReadCupList--><g id="link_useCases.AnonimousUser_useCases.ReadCupList"><path codeLine="23" d="M121.17,162.18 C140.02,172.45 161.86,184.06 182,194 C194.29,200.07 207.9,206.33 220.14,211.81 " fill="none" id="useCases.AnonimousUser-to-useCases.ReadCupList" style="stroke:#181818;stroke-width:1.0;"/><polygon fill="#181818" points="224.93,213.94,218.3451,206.6161,220.3651,211.9,215.0812,213.92,224.93,213.94" style="stroke:#181818;stroke-width:1.0;"/></g><!--MD5=[5a6446177b3e5b415f3d4c4541a78031]
link useCases.AnonimousUser to useCases.Login--><g id="link_useCases.AnonimousUser_useCases.Login"><path codeLine="24" d="M121.11,141.83 C151.64,146.12 190.49,151.58 218.91,155.58 " fill="none" id="useCases.AnonimousUser-to-useCases.Login" style="stroke:#181818;stroke-width:1.0;"/><polygon fill="#181818" points="224.09,156.3,215.7398,151.0775,219.1394,155.5989,214.618,158.9985,224.09,156.3" style="stroke:#181818;stroke-width:1.0;"/></g><!--MD5=[7877da3c22b8cd0dcf92f7f85dc3f5c5]
link useCases.Transaction to useCases.ReadCup--><g id="link_useCases.Transaction_useCases.ReadCup"><path codeLine="26" d="M321.97,364.95 C352.33,365.78 389.25,365.14 422,360 C444.21,356.51 468.24,349.11 487.34,342.3 " fill="none" id="useCases.Transaction-to-useCases.ReadCup" style="stroke:#181818;stroke-width:1.0;stroke-dasharray:7.0,7.0;"/><polygon fill="#181818" points="492.09,340.59,482.2661,339.8897,487.3881,342.2907,484.9872,347.4127,492.09,340.59" style="stroke:#181818;stroke-width:1.0;"/><text fill="#000000" font-family="sans-serif" font-size="13" lengthAdjust="spacing" textLength="55" x="366" y="356.4951">«include»</text></g><!--MD5=[622efcef3fc78cc01b3cfd21c3b853f5]
link useCases.RegistredUser to useCases.Login--><g id="link_useCases.RegistredUser_useCases.Login"><path codeLine="28" d="M78.53,428 C89.4,369.95 117.47,260.53 182,194 C192.73,182.93 207.81,175.34 221.67,170.25 " fill="none" id="useCases.RegistredUser-to-useCases.Login" style="stroke:#181818;stroke-width:1.0;"/><polygon fill="#181818" points="226.71,168.49,216.8936,167.6917,221.9914,170.1437,219.5394,175.2415,226.71,168.49" style="stroke:#181818;stroke-width:1.0;"/></g><!--MD5=[878ec0b3872b6ccc3a530a40beff2097]
link useCases.RegistredUser to useCases.Logout--><g id="link_useCases.RegistredUser_useCases.Logout"><path codeLine="29" d="M78.88,506.39 C90.09,563.83 118.47,670.83 182,736 C191.87,746.13 205.38,753.35 218.24,758.41 " fill="none" id="useCases.RegistredUser-to-useCases.Logout" style="stroke:#181818;stroke-width:1.0;"/><polygon fill="#181818" points="222.94,760.18,215.9175,753.2746,218.2584,758.4244,213.1085,760.7652,222.94,760.18" style="stroke:#181818;stroke-width:1.0;"/></g><!--MD5=[502ccb1edc1c972c762d8daa4f9aeba4]
link useCases.RegistredUser to useCases.CreateCup--><g id="link_useCases.RegistredUser_useCases.CreateCup"><path codeLine="31" d="M95.71,427.88 C115.46,397.34 146.26,355.61 182,328 C191.91,320.35 203.86,314.07 215.3,309.12 " fill="none" id="useCases.RegistredUser-to-useCases.CreateCup" style="stroke:#181818;stroke-width:1.0;"/><polygon fill="#181818" points="220.17,307.08,210.3231,306.886,215.5618,309.0203,213.4275,314.2591,220.17,307.08" style="stroke:#181818;stroke-width:1.0;"/></g><!--MD5=[ab74c00343610245fbb3264561dce31b]
link useCases.CreateCup to useCases.ReadCup--><g id="link_useCases.CreateCup_useCases.ReadCup"><path codeLine="32" d="M313.56,301.76 C359.03,307.44 423.71,315.53 469.23,321.22 " fill="none" id="useCases.CreateCup-to-useCases.ReadCup" style="stroke:#181818;stroke-width:1.0;stroke-dasharray:7.0,7.0;"/><polygon fill="#181818" points="474.41,321.86,465.9702,316.7836,469.448,321.2451,464.9864,324.7228,474.41,321.86" style="stroke:#181818;stroke-width:1.0;"/><text fill="#000000" font-family="sans-serif" font-size="13" lengthAdjust="spacing" textLength="55" x="366" y="305.4951">«include»</text></g><!--MD5=[f2e64435ab6936eba3e14e7cc1b00279]
link useCases.RegistredUser to useCases.UpdateCup--><g id="link_useCases.RegistredUser_useCases.UpdateCup"><path codeLine="33" d="M116.81,457.42 C143.48,451.65 177.56,444.28 205.5,438.24 " fill="none" id="useCases.RegistredUser-to-useCases.UpdateCup" style="stroke:#181818;stroke-width:1.0;"/><polygon fill="#181818" points="210.64,437.13,201.0033,435.0969,205.7502,438.1737,202.6733,442.9206,210.64,437.13" style="stroke:#181818;stroke-width:1.0;"/></g><!--MD5=[793a506a5017d0292fa2186935e00570]
link useCases.UpdateCup to useCases.ReadCup--><g id="link_useCases.UpdateCup_useCases.ReadCup"><path codeLine="34" d="M313.94,419.66 C346.17,414.16 387.34,405.11 422,391 C450.69,379.31 480.46,359.82 500.28,345.6 " fill="none" id="useCases.UpdateCup-to-useCases.ReadCup" style="stroke:#181818;stroke-width:1.0;stroke-dasharray:7.0,7.0;"/><polygon fill="#181818" points="504.35,342.65,494.7196,344.7126,500.3076,345.5926,499.4276,351.1806,504.35,342.65" style="stroke:#181818;stroke-width:1.0;"/><text fill="#000000" font-family="sans-serif" font-size="13" lengthAdjust="spacing" textLength="55" x="366" y="387.4951">«include»</text></g><!--MD5=[7f9f4e06a40d6dbeb00a42947f04255a]
link useCases.RegistredUser to useCases.DeleteCup--><g id="link_useCases.RegistredUser_useCases.DeleteCup"><path codeLine="35" d="M116.81,473.23 C141.97,476.76 173.73,481.23 200.7,485.02 " fill="none" id="useCases.RegistredUser-to-useCases.DeleteCup" style="stroke:#181818;stroke-width:1.0;"/><polygon fill="#181818" points="205.68,485.72,197.3298,480.4975,200.7294,485.0189,196.208,488.4185,205.68,485.72" style="stroke:#181818;stroke-width:1.0;"/></g><!--MD5=[486951481c9aabeb196ec2986932ae08]
link useCases.DeleteCup to useCases.ReadCup--><g id="link_useCases.DeleteCup_useCases.ReadCup"><path codeLine="36" d="M304.49,483.02 C338.63,474.06 385.73,458.62 422,435 C458.76,411.06 491.78,371.23 509.6,347.51 " fill="none" id="useCases.DeleteCup-to-useCases.ReadCup" style="stroke:#181818;stroke-width:1.0;stroke-dasharray:7.0,7.0;"/><polygon fill="#181818" points="512.75,343.28,504.1804,348.134,509.7752,347.2988,510.6105,352.8937,512.75,343.28" style="stroke:#181818;stroke-width:1.0;"/><text fill="#000000" font-family="sans-serif" font-size="13" lengthAdjust="spacing" textLength="55" x="366" y="431.4951">«include»</text></g><!--MD5=[adce95a288b231ca28a18be6e2800f11]
link useCases.RegistredUser to useCases.ReadCupList--><g id="link_useCases.RegistredUser_useCases.ReadCupList"><path codeLine="37" d="M84.72,427.8 C100.61,382.55 132.33,308.43 182,262 C190.47,254.08 201.1,247.78 211.68,242.86 " fill="none" id="useCases.RegistredUser-to-useCases.ReadCupList" style="stroke:#181818;stroke-width:1.0;"/><polygon fill="#181818" points="216.53,240.7,206.6812,240.72,211.9651,242.74,209.9451,248.0239,216.53,240.7" style="stroke:#181818;stroke-width:1.0;"/></g><!--MD5=[84663254271fbc3e0b20797bbbc07035]
link useCases.ReadCupList to useCases.ReadCup--><g id="link_useCases.ReadCupList_useCases.ReadCup"><path codeLine="38" d="M300.27,240.66 C333.36,251.21 381.07,267.04 422,283 C445.18,292.04 470.78,303.4 490.48,312.45 " fill="none" id="useCases.ReadCupList-to-useCases.ReadCup" style="stroke:#181818;stroke-width:1.0;stroke-dasharray:7.0,7.0;"/><polygon fill="#181818" points="495.35,314.69,488.8398,307.2996,490.806,312.6038,485.5019,314.57,495.35,314.69" style="stroke:#181818;stroke-width:1.0;"/><text fill="#000000" font-family="sans-serif" font-size="13" lengthAdjust="spacing" textLength="55" x="366" y="260.4951">«include»</text></g><!--MD5=[934b2105ab769bd88ef9a593a64eb605]
link useCases.RegistredUser to useCases.CreateComment--><g id="link_useCases.RegistredUser_useCases.CreateComment"><path codeLine="40" d="M98.77,506.23 C118.96,534.07 148.92,570.83 182,596 C191.17,602.98 201.96,609.01 212.47,614 " fill="none" id="useCases.RegistredUser-to-useCases.CreateComment" style="stroke:#181818;stroke-width:1.0;"/><polygon fill="#181818" points="217.27,616.22,210.779,608.8128,212.7315,614.122,207.4222,616.0744,217.27,616.22" style="stroke:#181818;stroke-width:1.0;"/></g><!--MD5=[62d0861e5428942c784d10f555b4db11]
link useCases.CreateComment to useCases.ReadComment--><g id="link_useCases.CreateComment_useCases.ReadComment"><path codeLine="41" d="M334.09,631 C369.26,631 411.18,631 446.64,631 " fill="none" id="useCases.CreateComment-to-useCases.ReadComment" style="stroke:#181818;stroke-width:1.0;stroke-dasharray:7.0,7.0;"/><polygon fill="#181818" points="451.82,631,442.82,627,446.82,631,442.82,635,451.82,631" style="stroke:#181818;stroke-width:1.0;"/><text fill="#000000" font-family="sans-serif" font-size="13" lengthAdjust="spacing" textLength="55" x="366" y="627.4951">«include»</text></g><!--MD5=[5af1967af159b2c3afc1a1aeb0e718c2]
link useCases.RegistredUser to useCases.DeleteComment--><g id="link_useCases.RegistredUser_useCases.DeleteComment"><path codeLine="42" d="M116.67,491.58 C136.5,502.41 160.28,515.12 182,526 C193.63,531.82 206.42,537.88 218.12,543.29 " fill="none" id="useCases.RegistredUser-to-useCases.DeleteComment" style="stroke:#181818;stroke-width:1.0;"/><polygon fill="#181818" points="222.71,545.4,216.1998,538.0096,218.166,543.3138,212.8619,545.28,222.71,545.4" style="stroke:#181818;stroke-width:1.0;"/></g><!--MD5=[bc4f3be68bb410424513a20ff5c78f2b]
link useCases.DeleteComment to useCases.ReadComment--><g id="link_useCases.DeleteComment_useCases.ReadComment"><path codeLine="43" d="M308.85,574.08 C354.92,586.3 423.49,604.48 470.66,616.99 " fill="none" id="useCases.DeleteComment-to-useCases.ReadComment" style="stroke:#181818;stroke-width:1.0;stroke-dasharray:7.0,7.0;"/><polygon fill="#181818" points="475.73,618.33,468.0623,612.1489,470.8984,617.0435,466.0038,619.8796,475.73,618.33" style="stroke:#181818;stroke-width:1.0;"/><text fill="#000000" font-family="sans-serif" font-size="13" lengthAdjust="spacing" textLength="55" x="366" y="586.4951">«include»</text></g><!--MD5=[4dfcd5b6916bb67b8ba20c52d8768e6d]
link useCases.RegistredUser to useCases.UpdateComment--><g id="link_useCases.RegistredUser_useCases.UpdateComment"><path codeLine="44" d="M85.55,506.14 C101.93,550.07 133.86,621.07 182,666 C189.97,673.44 199.8,679.53 209.7,684.43 " fill="none" id="useCases.RegistredUser-to-useCases.UpdateComment" style="stroke:#181818;stroke-width:1.0;"/><polygon fill="#181818" points="214.25,686.59,207.8348,679.117,209.7331,684.4459,204.4042,686.3441,214.25,686.59" style="stroke:#181818;stroke-width:1.0;"/></g><!--MD5=[3ac50430d127a7dd5ee8b6adcc3805c4]
link useCases.UpdateComment to useCases.ReadComment--><g id="link_useCases.UpdateComment_useCases.ReadComment"><path codeLine="45" d="M309.16,687.83 C355.27,675.61 423.71,657.46 470.79,644.98 " fill="none" id="useCases.UpdateComment-to-useCases.ReadComment" style="stroke:#181818;stroke-width:1.0;stroke-dasharray:7.0,7.0;"/><polygon fill="#181818" points="475.84,643.64,466.1138,642.0904,471.0084,644.9265,468.1723,649.8211,475.84,643.64" style="stroke:#181818;stroke-width:1.0;"/><text fill="#000000" font-family="sans-serif" font-size="13" lengthAdjust="spacing" textLength="55" x="366" y="656.4951">«include»</text></g><!--MD5=[6eb53401f4065a60041e1f4797a7584c]
link useCases.RegistredUser to useCases.Transaction--><g id="link_useCases.RegistredUser_useCases.Transaction"><path codeLine="47" d="M116.67,434.97 C136.2,421.5 159.74,406.16 182,394 C193.75,387.58 206.99,381.45 219.08,376.24 " fill="none" id="useCases.RegistredUser-to-useCases.Transaction" style="stroke:#181818;stroke-width:1.0;"/><polygon fill="#181818" points="223.82,374.22,213.9724,374.0628,219.2191,376.1775,217.1044,381.4242,223.82,374.22" style="stroke:#181818;stroke-width:1.0;"/></g><!--MD5=[63faa280618108f6966dc1c317a2efcb]
@startuml useCases
allowmixing
namespace useCases{
left to right direction
actor AnonimousUser
actor RegistredUser

usecase CreateCup
usecase ReadCup
usecase ReadCupList
usecase UpdateCup
usecase DeleteCup
usecase Transaction
usecase Login
usecase Signup
usecase Logout
usecase ReadComment
usecase CreateComment
usecase DeleteComment
usecase UpdateComment

AnonimousUser - -> Signup
AnonimousUser - -> ReadCup
AnonimousUser - -> ReadCupList
AnonimousUser - -> Login

Transaction ..> ReadCup  : "<<include>>"

RegistredUser - -> Login
RegistredUser - -> Logout

RegistredUser - -> CreateCup
CreateCup ..> ReadCup  : "<<include>>"
RegistredUser - -> UpdateCup
UpdateCup ..> ReadCup  : "<<include>>"
RegistredUser - -> DeleteCup
DeleteCup ..> ReadCup  : "<<include>>"
RegistredUser - -> ReadCupList
ReadCupList ..> ReadCup  : "<<include>>"

RegistredUser - -> CreateComment
CreateComment ..> ReadComment  : "<<include>>"
RegistredUser - -> DeleteComment
DeleteComment ..> ReadComment  : "<<include>>"
RegistredUser - -> UpdateComment
UpdateComment ..> ReadComment  : "<<include>>"

RegistredUser - -> Transaction
}
@enduml

PlantUML version 1.2022.7(Mon Aug 22 19:01:30 CEST 2022)
(GPL source distribution)
Java Runtime: OpenJDK Runtime Environment
JVM: OpenJDK 64-Bit Server VM
Default Encoding: Cp1252
Language: es
Country: ES
--></g></svg>